<svg width="58" height="70" viewBox="0 0 58 70" fill="none" xmlns="http://www.w3.org/2000/svg">
<g clip-path="url(#clip0_1488_17787)">
<path d="M58 34.2509V70H42.5345V19.4021C42.5345 18.7693 42.2822 18.1623 41.8327 17.7149L27.7719 3.71347C27.3224 3.26605 27.0701 2.65908 27.0701 2.02623V0.685059L42.5356 0.78101V15.1759C42.5356 15.8185 42.7923 16.4352 43.2482 16.889L56.1004 29.6851C57.3166 30.8959 58 32.5389 58 34.2509Z" fill="#0D0D0D"/>
<path d="M58.0001 0.744314V12.2812L49.3955 3.71558C48.9472 3.26278 48.6948 2.66011 48.6948 2.02403V0.682861L58.0001 0.744314Z" fill="#0D0D0D"/>
<path d="M37.0902 34.2509V70H21.6247V19.4021C21.6247 18.7693 21.3723 18.1623 20.9229 17.7149L6.86098 3.71347C6.41152 3.26605 6.15918 2.65908 6.15918 2.02623V0.685059L21.6247 0.78101V15.191C21.6247 15.8239 21.877 16.4309 22.3265 16.8783L35.1895 29.683C36.4068 30.8958 37.0902 32.5389 37.0902 34.2509Z" fill="#0D0D0D"/>
<path d="M15.4655 34.2487V69.9977H0V16.1785L13.5637 29.6861C14.781 30.8936 15.4655 32.5399 15.4655 34.2487Z" fill="#0D0D0D"/>
<path d="M58.0001 0.744314V12.2812L49.3955 3.71558C48.9472 3.26278 48.6948 2.66011 48.6948 2.02403V0.682861L58.0001 0.744314Z" fill="#0D0D0D"/>
</g>
<defs>
<clipPath id="clip0_1488_17787">
<rect width="58" height="69.3171" fill="white" transform="translate(0 0.682861)"/>
</clipPath>
</defs>
</svg>
