<svg xmlns="http://www.w3.org/2000/svg" version="1.1" xmlns:xlink="http://www.w3.org/1999/xlink" xmlns:svgjs="http://svgjs.dev/svgjs" width="1000" height="1000" viewBox="0 0 1000 1000"><rect width="1000" height="1000" fill="#ffffff"></rect><g transform="matrix(0.7,0,0,0.7,149.5757575757575,406.31655809789453)"><svg viewBox="0 0 396 106" data-background-color="#ffffff" preserveAspectRatio="xMidYMid meet" height="267" width="1000" xmlns="http://www.w3.org/2000/svg" xmlns:xlink="http://www.w3.org/1999/xlink"><g id="tight-bounds" transform="matrix(1,0,0,1,0.24000000000003752,0.13239615635731639)"><svg viewBox="0 0 395.5199999999999 105.73520768728535" height="105.73520768728535" width="395.5199999999999"><g><svg viewBox="0 0 627.6963896891548 167.8034186092789" height="105.73520768728535" width="395.5199999999999"><g transform="matrix(1,0,0,1,0,23.191355249183992)"><svg viewBox="0 0 395.52 121.42070811091092" height="121.42070811091092" width="395.52"><g id="textblocktransform"><svg viewBox="0 0 395.52 121.42070811091092" height="121.42070811091092" width="395.52" id="textblock"><g><svg viewBox="0 0 395.52 78.82377864863196" height="78.82377864863196" width="395.52"><g transform="matrix(1,0,0,1,0,0)"><svg width="395.52" viewBox="0.1 -33.2 168.838134765625 33.650000000000006" height="78.82377864863196" data-palette-color="#096a2e"><g transform="matrix(1,0,0,1,0,0)"><g><svg width="15.13208984375" viewBox="1.78 -36.36 74.21 36.36" height="7.414000000000001" data-palette-color="#096a2e" id="scriptelement" x="153.806044921875" y="-33.2"><path d="M12.91-30.02L1.78-30.02 1.78-36.36 31.64-36.36 31.64-30.02 20.51-30.02 20.51 0 12.91 0 12.91-30.02ZM36.57 0L36.57-36.36 46.06-36.36 56.07-11.93 56.5-11.93 66.51-36.36 75.99-36.36 75.99 0 68.53 0 68.53-23.67 68.23-23.67 58.82-0.18 53.74-0.18 44.33-23.76 44.03-23.76 44.03 0 36.57 0Z" opacity="1" transform="matrix(1,0,0,1,0,0)" fill="#000000" class="undefined-123" data-fill-palette-color="primary" id="lv-123"></path></svg></g></g><path d="M8.7 0L3.75 0 0.1-32.75 2.95-32.75 6.3-2.5 6.85-2.5 11.25-18.3 13.9-18.3 18.1-2.5 18.7-2.5 22.05-32.75 24.9-32.75 21.25 0 16.2 0 12.6-14.1 12.45-14.1 8.7 0ZM28.35-11.85Q28.35-17.6 30.72-20.83 33.1-24.05 37.65-24.05 42.2-24.05 44.42-21.05 46.65-18.05 46.65-13.05L46.65-13.05 46.5-10.55 31.2-10.55Q31.45-6.8 33.2-4.48 34.95-2.15 38.02-2.15 41.1-2.15 45.25-3.6L45.25-3.6 46-1.1Q41.95 0.45 38.4 0.45L38.4 0.45Q33.5 0.45 30.92-2.83 28.35-6.1 28.35-11.85ZM37.85-21.5L37.85-21.5Q31.55-21.5 31.2-13.05L31.2-13.05 43.8-13.05Q43.8-21.5 37.85-21.5ZM60.8-12L60.8-12 56.2-12 56.2 0 53.45 0 53.45-32.75 60.8-32.75Q66.8-32.75 69.67-30.48 72.55-28.2 72.55-22.6 72.55-17 69.65-14.5 66.75-12 60.8-12ZM60.8-30.25L60.8-30.25 56.2-30.25 56.2-14.5 60.8-14.5Q65.4-14.5 67.52-16.35 69.65-18.2 69.65-22.55 69.65-26.9 67.55-28.58 65.45-30.25 60.8-30.25ZM86.94-21.25L81.14-21.25 81.14-23.75 89.59-23.75 89.59-2.5 95.39-2.5 95.39 0 80.74 0 80.74-2.5 86.94-2.5 86.94-21.25ZM88.04-28.55Q87.14-28.55 86.52-29.18 85.89-29.8 85.89-30.78 85.89-31.75 86.52-32.33 87.14-32.9 88.04-32.9 88.94-32.9 89.52-32.35 90.09-31.8 90.09-30.8 90.09-29.8 89.52-29.18 88.94-28.55 88.04-28.55ZM120.64-16L117.94-16 117.94-20.95Q115.49-21.5 114.04-21.5L114.04-21.5Q110.44-21.5 108.67-18.95 106.89-16.4 106.89-11.9 106.89-7.4 108.69-4.78 110.49-2.15 114.04-2.15L114.04-2.15Q116.29-2.15 120.29-3.55L120.29-3.55 121.04-1.05Q117.09 0.45 114.09 0.45L114.09 0.45Q109.19 0.45 106.62-2.83 104.04-6.1 104.04-11.95 104.04-17.8 106.59-20.93 109.14-24.05 114.09-24.05L114.09-24.05Q117.39-24.05 120.64-23L120.64-23 120.64-16ZM142.94-23.75L142.94-23.75 145.94-23.75Q142.44-18.1 137.89-12.65L137.89-12.65Q140.99-8.25 146.24 0L146.24 0 143.24 0Q139.24-6.5 135.99-11.05L135.99-11.05 132.49-10.6 132.49 0 129.84 0 129.84-33.2 132.49-33.2 132.49-13 135.74-13.5Q139.29-18.1 142.94-23.75Z" opacity="1" transform="matrix(1,0,0,1,0,0)" fill="#000000" class="wordmark-text-0" data-fill-palette-color="primary" id="text-0"></path></svg></g></svg></g><g transform="matrix(1,0,0,1,0,97.4321810168864)"><svg viewBox="0 0 375.74399999999997 23.988527094024523" height="23.988527094024523" width="375.74399999999997"><g transform="matrix(1,0,0,1,0,0)"><svg width="375.74399999999997" viewBox="2.5 -36.15 574.81 36.699999999999996" height="23.988527094024523" data-palette-color="#8abe53"><path d="M37-16.2Q37-14.75 36.13-13.85 35.25-12.95 33.65-12.9L33.65-12.9Q33.1-6.75 29.63-3.35 26.15 0.05 20.1 0.05L20.1 0.05Q15.1 0.05 11.08-2.23 7.05-4.5 4.78-8.5 2.5-12.5 2.5-17.4L2.5-17.4Q2.5-22.25 4.67-26.18 6.85-30.1 10.6-32.35 14.35-34.6 18.85-34.6L18.85-34.6Q22.55-34.6 25.03-33.18 27.5-31.75 28.55-29.95L28.55-29.95 28.55-31.1Q28.55-32.1 29.38-32.8 30.2-33.5 31.75-33.5L31.75-33.5Q33.35-33.5 34.18-32.77 35-32.05 35.05-30.95L35.05-30.95Q35.2-26.8 34.35-25.15L34.35-25.15Q33.9-24.35 33.02-23.95 32.15-23.55 31.05-23.55L31.05-23.55Q30.05-23.55 29.3-23.93 28.55-24.3 27.35-25.35L27.35-25.35Q26-26.55 24.55-27.3 23.1-28.05 20.6-28.05L20.6-28.05Q17.5-28.05 15.03-26.73 12.55-25.4 11.15-22.98 9.75-20.55 9.75-17.4L9.75-17.4Q9.75-14.25 11.15-11.75 12.55-9.25 14.9-7.85 17.25-6.45 19.9-6.45L19.9-6.45Q22.7-6.45 24.45-8.08 26.2-9.7 26.65-12.95L26.65-12.95 21.6-13.05Q19.85-13.1 19.03-13.95 18.2-14.8 18.2-16.2L18.2-16.2Q18.2-17.75 19.15-18.7 20.1-19.65 21.75-19.6L21.75-19.6 33.15-19.35Q35.05-19.3 36.02-18.5 37-17.7 37-16.2L37-16.2ZM68.15-6.55Q69.05-6.05 69.52-5.45 70-4.85 70-3.85L70-3.85Q70-2.4 69.07-1.43 68.15-0.45 66.7-0.45L66.7-0.45Q65.95-0.45 65.15-0.7 64.35-0.95 63.85-1.3L63.85-1.3 51-9.25 51-2.9Q51-1.45 50.1-0.55 49.2 0.35 47.5 0.35L47.5 0.35Q45.65 0.35 44.7-0.65 43.75-1.65 43.75-3.4L43.75-3.4Q43.75-10.6 43.6-19.5L43.6-19.5 43.5-24.55 43.15-24.45Q42.85-24.35 42.7-24.35L42.7-24.35Q40.6-24.35 40.6-27.95L40.6-27.95Q40.6-29.1 41.35-29.9 42.1-30.7 43.45-31.45L43.45-31.45 43.45-31.9Q43.45-35.2 47.8-35.2L47.8-35.2Q49.25-35.2 49.85-34.93 50.45-34.65 50.5-34.3L50.5-34.3Q50.5-34.15 50.55-34.1L50.55-34.1Q54.1-35.1 55.85-35.1L55.85-35.1Q60.35-35.1 63.67-33.7 67-32.3 68.8-29.78 70.6-27.25 70.6-24L70.6-24Q70.6-19.05 66.57-16.3 62.55-13.55 56.15-13.45L56.15-13.45 68.15-6.55ZM55.95-28.55Q53.6-28.55 50.9-27.55L50.9-27.55Q51-25.25 51-19.5L51-19.5 51-19.15Q52.4-18.95 55.25-18.95L55.25-18.95Q58.6-18.95 60.5-20.25 62.4-21.55 62.4-23.85L62.4-23.85Q62.4-26 60.7-27.28 59-28.55 55.95-28.55L55.95-28.55ZM98.94-7.25Q99.19-7.3 99.59-7.3L99.59-7.3Q101.09-7.3 101.94-6.43 102.8-5.55 102.8-4.05L102.8-4.05Q102.8-1.45 100.09-0.9L100.09-0.9Q97.84-0.45 91.69-0.45L91.69-0.45 90.09-0.45Q87.34-0.45 84.87-0.6 82.39-0.75 78.8-1.2L78.8-1.2Q76.59-1.5 76.59-4.2L76.59-4.2Q76.59-5.5 77.09-6.38 77.59-7.25 78.64-7.35L78.64-7.35 79.14-7.35Q79.75-11.4 79.64-15.15L79.64-15.15 79.3-15.15Q78.09-15.15 77.52-15.98 76.94-16.8 76.94-18.45L76.94-18.45Q76.94-19.85 77.52-20.75 78.09-21.65 79.25-21.65L79.25-21.65 79.64-21.65Q79.69-23.5 79.69-28.7L79.69-28.7Q78-29.4 78-31.55L78-31.55Q78-33.15 78.84-33.88 79.69-34.6 81.5-34.8L81.5-34.8Q83.94-35.05 90.39-35.05L90.39-35.05Q96.64-35.05 99.94-34.65L99.94-34.65Q101.44-34.5 102.27-33.77 103.09-33.05 103.09-31.55L103.09-31.55Q103.09-30.05 102.34-29.13 101.59-28.2 100.3-28.3L100.3-28.3Q95.69-28.7 92.19-28.7L92.19-28.7Q90.59-28.7 88.09-28.6L88.09-28.6 86.8-28.55 86.94-21.55 88.09-21.55Q90.59-21.55 94.19-21.45L94.19-21.45 97.39-21.35Q99.34-21.35 99.34-18.2L99.34-18.2Q99.34-16.7 98.77-15.85 98.19-15 97.14-15L97.14-15Q95.64-15 94.59-15.05L94.59-15.05 88.09-15.1 87-15.1Q86.89-10.6 86.39-7L86.39-7Q88.3-6.8 91.14-6.8L91.14-6.8Q95.3-6.8 98.94-7.25L98.94-7.25ZM130.94-7.25Q131.19-7.3 131.59-7.3L131.59-7.3Q133.09-7.3 133.94-6.43 134.79-5.55 134.79-4.05L134.79-4.05Q134.79-1.45 132.09-0.9L132.09-0.9Q129.84-0.45 123.69-0.45L123.69-0.45 122.09-0.45Q119.34-0.45 116.87-0.6 114.39-0.75 110.79-1.2L110.79-1.2Q108.59-1.5 108.59-4.2L108.59-4.2Q108.59-5.5 109.09-6.38 109.59-7.25 110.64-7.35L110.64-7.35 111.14-7.35Q111.74-11.4 111.64-15.15L111.64-15.15 111.29-15.15Q110.09-15.15 109.52-15.98 108.94-16.8 108.94-18.45L108.94-18.45Q108.94-19.85 109.52-20.75 110.09-21.65 111.24-21.65L111.24-21.65 111.64-21.65Q111.69-23.5 111.69-28.7L111.69-28.7Q109.99-29.4 109.99-31.55L109.99-31.55Q109.99-33.15 110.84-33.88 111.69-34.6 113.49-34.8L113.49-34.8Q115.94-35.05 122.39-35.05L122.39-35.05Q128.64-35.05 131.94-34.65L131.94-34.65Q133.44-34.5 134.27-33.77 135.09-33.05 135.09-31.55L135.09-31.55Q135.09-30.05 134.34-29.13 133.59-28.2 132.29-28.3L132.29-28.3Q127.69-28.7 124.19-28.7L124.19-28.7Q122.59-28.7 120.09-28.6L120.09-28.6 118.79-28.55 118.94-21.55 120.09-21.55Q122.59-21.55 126.19-21.45L126.19-21.45 129.39-21.35Q131.34-21.35 131.34-18.2L131.34-18.2Q131.34-16.7 130.77-15.85 130.19-15 129.14-15L129.14-15Q127.64-15 126.59-15.05L126.59-15.05 120.09-15.1 118.99-15.1Q118.89-10.6 118.39-7L118.39-7Q120.29-6.8 123.14-6.8L123.14-6.8Q127.29-6.8 130.94-7.25L130.94-7.25ZM167.94-35.75Q169.79-35.75 170.67-34.8 171.54-33.85 171.54-31.85L171.54-31.85Q171.54-27.9 171.49-25.9L171.49-25.9 171.44-18.5Q171.44-10.9 171.02-7.15 170.59-3.4 169.44-1.95 168.29-0.5 165.94-0.5L165.94-0.5Q164.14-0.5 162.62-1.65 161.09-2.8 159.17-5.45 157.24-8.1 153.79-13.6L153.79-13.6 147.89-23.15Q147.94-21.3 147.94-16.25L147.94-16.25 147.99-3.5Q147.99-2.2 146.97-1.3 145.94-0.4 144.34-0.4L144.34-0.4Q142.74-0.4 141.72-1.28 140.69-2.15 140.69-3.5L140.69-3.5 140.69-16.55 140.64-22Q140.59-23.4 140.59-25.95L140.59-25.95Q140.59-29.65 140.91-31.65 141.24-33.65 142.14-34.52 143.04-35.4 144.84-35.4L144.84-35.4Q146.59-35.4 148.02-34.35 149.44-33.3 151.37-30.6 153.29-27.9 157.14-21.75L157.14-21.75Q159.19-18.5 163.24-11.85L163.24-11.85 164.19-10.25 164.19-18.5 164.24-32.65Q164.24-34 165.14-34.88 166.04-35.75 167.94-35.75L167.94-35.75ZM227.29-19.25Q228.19-19.25 228.99-18.43 229.79-17.6 229.79-15.95L229.79-15.95Q229.79-14.3 228.99-13.5 228.19-12.7 227.24-12.7L227.24-12.7 226.84-12.7 227.09-3.35Q227.14-1.75 226.16-0.83 225.19 0.1 223.49 0.1L223.49 0.1Q221.84 0.1 220.84-0.78 219.84-1.65 219.79-3.15L219.79-3.15 219.49-12.8 206.74-13 205.89-2.25Q205.69 0.35 202.29 0.35L202.29 0.35Q200.39 0.35 199.44-0.43 198.49-1.2 198.59-2.75L198.59-2.75 199.39-13.1 199.09-13.1Q197.89-13.1 197.21-13.98 196.54-14.85 196.54-16.4L196.54-16.4Q196.54-17.95 197.29-18.78 198.04-19.6 199.29-19.6L199.29-19.6 199.94-19.6 200.99-33.1Q201.09-34.45 202.14-35.3 203.19-36.15 204.84-36.15L204.84-36.15Q206.59-36.15 207.49-35.15 208.39-34.15 208.29-32.55L208.29-32.55 207.24-19.5 219.29-19.35 218.89-32.75Q218.84-34.25 219.81-35.2 220.79-36.15 222.54-36.15L222.54-36.15Q224.19-36.15 225.19-35.23 226.19-34.3 226.24-32.95L226.24-32.95 226.64-19.25 227.29-19.25ZM259.13-7.25Q259.38-7.3 259.78-7.3L259.78-7.3Q261.28-7.3 262.13-6.43 262.98-5.55 262.98-4.05L262.98-4.05Q262.98-1.45 260.28-0.9L260.28-0.9Q258.03-0.45 251.88-0.45L251.88-0.45 250.28-0.45Q247.53-0.45 245.06-0.6 242.58-0.75 238.98-1.2L238.98-1.2Q236.78-1.5 236.78-4.2L236.78-4.2Q236.78-5.5 237.28-6.38 237.78-7.25 238.83-7.35L238.83-7.35 239.33-7.35Q239.93-11.4 239.83-15.15L239.83-15.15 239.48-15.15Q238.28-15.15 237.71-15.98 237.13-16.8 237.13-18.45L237.13-18.45Q237.13-19.85 237.71-20.75 238.28-21.65 239.43-21.65L239.43-21.65 239.83-21.65Q239.88-23.5 239.88-28.7L239.88-28.7Q238.18-29.4 238.18-31.55L238.18-31.55Q238.18-33.15 239.03-33.88 239.88-34.6 241.68-34.8L241.68-34.8Q244.13-35.05 250.58-35.05L250.58-35.05Q256.83-35.05 260.13-34.65L260.13-34.65Q261.63-34.5 262.46-33.77 263.28-33.05 263.28-31.55L263.28-31.55Q263.28-30.05 262.53-29.13 261.78-28.2 260.48-28.3L260.48-28.3Q255.88-28.7 252.38-28.7L252.38-28.7Q250.78-28.7 248.28-28.6L248.28-28.6 246.98-28.55 247.13-21.55 248.28-21.55Q250.78-21.55 254.38-21.45L254.38-21.45 257.58-21.35Q259.53-21.35 259.53-18.2L259.53-18.2Q259.53-16.7 258.96-15.85 258.38-15 257.33-15L257.33-15Q255.83-15 254.78-15.05L254.78-15.05 248.28-15.1 247.18-15.1Q247.08-10.6 246.58-7L246.58-7Q248.48-6.8 251.33-6.8L251.33-6.8Q255.48-6.8 259.13-7.25L259.13-7.25ZM295.63-8L296.38-5.4 296.98-3.45Q297.13-2.95 297.13-2.5L297.13-2.5Q297.13-1.05 295.91-0.25 294.68 0.55 293.03 0.55L293.03 0.55Q291.73 0.55 290.78 0 289.83-0.55 289.53-1.55L289.53-1.55 287.83-8 277.63-8.05 275.88-1.7Q275.58-0.55 274.66-0.03 273.73 0.5 272.43 0.5L272.43 0.5Q270.78 0.5 269.53-0.33 268.28-1.15 268.28-2.5L268.28-2.5Q268.28-3 268.43-3.5L268.43-3.5 274.18-20.8 276.98-29.35Q278.13-32.75 279.48-34.18 280.83-35.6 283.13-35.6L283.13-35.6Q285.33-35.6 286.61-34.33 287.88-33.05 288.93-29.8L288.93-29.8Q291.68-21.1 293.73-14.35L293.73-14.35 295.08-14.35Q297.53-14.35 297.53-11.2L297.53-11.2Q297.53-8 295.68-8L295.68-8 295.63-8ZM279.53-14.5L286.13-14.45 285.48-16.8 284.23-21.2 283.73-22.95Q283.43-24.05 283.23-24.55 283.03-25.05 282.83-25.05L282.83-25.05Q282.58-25.05 282.43-24.6 282.28-24.15 281.98-23L281.98-23 281.58-21.55 279.53-14.5ZM314.08 0.15Q309.18 0.15 306.9-0.9 304.63-1.95 303.88-4.4 303.13-6.85 303.13-11.95L303.13-11.95Q303.13-17.7 303.65-22.5 304.18-27.3 305.08-32.6L305.08-32.6Q305.28-33.8 306.3-34.52 307.33-35.25 308.93-35.25L308.93-35.25Q310.63-35.25 311.5-34.43 312.38-33.6 312.38-32.2L312.38-32.2Q312.38-31.9 312.28-31.3L312.28-31.3Q311.23-25.15 310.68-20.83 310.13-16.5 310.13-11.75L310.13-11.75Q310.13-9.3 310.35-8.15 310.58-7 311.25-6.55 311.93-6.1 313.38-6.1L313.38-6.1Q316.48-6.1 324.08-7.5L324.08-7.5Q324.33-7.55 324.78-7.55L324.78-7.55Q326.08-7.55 326.85-6.58 327.63-5.6 327.63-4.3L327.63-4.3Q327.63-1.65 323.78-0.95L323.78-0.95Q320.33-0.3 318.55-0.08 316.78 0.15 314.08 0.15L314.08 0.15ZM353.98-34.6Q355.48-34.45 356.33-33.73 357.18-33 357.18-31.3L357.18-31.3Q357.18-29.55 356.2-28.75 355.23-27.95 353.43-28.05L353.43-28.05Q349.83-28.3 347.53-28.3L347.53-28.3Q347.13-22.65 346.98-17L346.98-17Q346.83-11.4 346.83-2.8L346.83-2.8Q346.83-0.95 346.1-0.23 345.38 0.5 343.33 0.5L343.33 0.5Q341.18 0.5 340.23-0.25 339.28-1 339.28-2.75L339.28-2.75Q339.28-10.05 339.63-17L339.63-17 340.23-28.25Q338.03-28.15 336.68-28.05L336.68-28.05 334.48-27.9Q334.28-27.85 333.88-27.85L333.88-27.85Q332.43-27.85 331.53-28.8 330.63-29.75 330.63-31.3L330.63-31.3Q330.63-32.75 331.4-33.45 332.18-34.15 333.58-34.35L333.58-34.35Q335.38-34.6 338.63-34.75 341.88-34.9 344.63-34.9L344.63-34.9Q346.88-34.9 349.75-34.83 352.63-34.75 353.98-34.6L353.98-34.6ZM392.92-19.25Q393.82-19.25 394.62-18.43 395.42-17.6 395.42-15.95L395.42-15.95Q395.42-14.3 394.62-13.5 393.82-12.7 392.87-12.7L392.87-12.7 392.47-12.7 392.72-3.35Q392.77-1.75 391.8-0.83 390.82 0.1 389.12 0.1L389.12 0.1Q387.47 0.1 386.47-0.78 385.47-1.65 385.42-3.15L385.42-3.15 385.12-12.8 372.37-13 371.52-2.25Q371.32 0.35 367.92 0.35L367.92 0.35Q366.02 0.35 365.07-0.43 364.12-1.2 364.22-2.75L364.22-2.75 365.02-13.1 364.72-13.1Q363.52-13.1 362.85-13.98 362.17-14.85 362.17-16.4L362.17-16.4Q362.17-17.95 362.92-18.78 363.67-19.6 364.92-19.6L364.92-19.6 365.57-19.6 366.62-33.1Q366.72-34.45 367.77-35.3 368.82-36.15 370.47-36.15L370.47-36.15Q372.22-36.15 373.12-35.15 374.02-34.15 373.92-32.55L373.92-32.55 372.87-19.5 384.92-19.35 384.52-32.75Q384.47-34.25 385.45-35.2 386.42-36.15 388.17-36.15L388.17-36.15Q389.82-36.15 390.82-35.23 391.82-34.3 391.87-32.95L391.87-32.95 392.27-19.25 392.92-19.25ZM415.47-0.05Q413.72-0.05 412.77-0.95 411.82-1.85 411.82-3.4L411.82-3.4 411.67-16.6Q410.97-16.6 409.05-18.53 407.12-20.45 406.02-22.1L406.02-22.1Q405.07-23.5 403.82-25.95 402.57-28.4 401.57-30.95L401.57-30.95Q401.42-31.35 401.42-31.75L401.42-31.75Q401.42-33 402.65-34.05 403.87-35.1 405.57-35.1L405.57-35.1Q406.77-35.1 407.57-34.48 408.37-33.85 409.02-32.5L409.02-32.5Q411.37-27.65 412.77-25.25L412.77-25.25Q414.77-21.95 415.47-21.95L415.47-21.95Q416.12-21.95 417.92-25.25L417.92-25.25 421.82-32.7Q422.47-33.9 423.1-34.45 423.72-35 425.07-35L425.07-35Q426.92-35 428.12-34.18 429.32-33.35 429.32-31.9L429.32-31.9Q429.32-31.4 428.97-30.45L428.97-30.45Q428.52-29.3 427-26.28 425.47-23.25 424.57-21.9L424.57-21.9Q423.37-20.05 421.5-18.32 419.62-16.6 418.92-16.6L418.92-16.6 419.07-3.55Q419.07-1.9 418.15-0.98 417.22-0.05 415.47-0.05L415.47-0.05ZM467.07-34.85Q471.12-34.85 474.49-33.38 477.87-31.9 479.84-29.23 481.82-26.55 481.82-23.15L481.82-23.15Q481.82-19.95 480.07-17.4 478.32-14.85 475.29-13.43 472.27-12 468.57-12L468.57-12Q466.87-12 465.24-12.25 463.62-12.5 462.57-12.85L462.57-12.85 462.47-2.85Q462.47-1.4 461.44-0.48 460.42 0.45 458.72 0.45L458.72 0.45Q457.02 0.45 455.99-0.5 454.97-1.45 455.07-3.05L455.07-3.05Q455.27-8.25 455.27-14.7L455.27-14.7Q455.27-20.8 455.02-25.55L455.02-25.55 454.87-25.45Q454.37-25.2 453.97-25.2L453.97-25.2Q453.12-25.2 452.57-26.15 452.02-27.1 452.02-28.35L452.02-28.35Q452.02-29.35 452.62-29.98 453.22-30.6 454.42-31.35L454.42-31.35 454.82-31.6 454.82-32.25Q454.82-33.85 455.72-34.68 456.62-35.5 458.62-35.5L458.62-35.5Q460.62-35.5 461.39-35.13 462.17-34.75 462.17-34.35L462.17-34.35 462.17-34.3Q464.62-34.85 467.07-34.85L467.07-34.85ZM467.37-17.9Q470.07-17.9 471.79-19.5 473.52-21.1 473.52-23.4L473.52-23.4Q473.52-25.75 471.64-27.13 469.77-28.5 466.82-28.5L466.82-28.5Q465.22-28.5 462.32-27.9L462.32-27.9Q462.37-27.05 462.37-25.75L462.37-25.75Q462.37-23.75 462.47-21.05L462.47-21.05Q462.57-19.55 462.57-18.85L462.57-18.85Q463.32-18.5 464.74-18.2 466.17-17.9 467.37-17.9L467.37-17.9ZM504.11-6.65Q507.31-6.6 507.31-3.4L507.31-3.4Q507.31-0.1 504.06-0.1L504.06-0.1 489.06-0.3Q487.41-0.35 486.74-1.3 486.06-2.25 486.06-3.55L486.06-3.55Q486.06-5.2 486.94-6.03 487.81-6.85 489.06-6.85L489.06-6.85 493.21-6.8Q493.86-17.85 493.91-28.95L493.91-28.95Q491.76-28.8 490.31-28.65L490.31-28.65 488.66-28.55Q487.26-28.55 486.54-29.4 485.81-30.25 485.81-31.8L485.81-31.8Q485.81-33.4 486.54-34.15 487.26-34.9 488.66-35.1L488.66-35.1Q489.76-35.25 492.56-35.4 495.36-35.55 498.16-35.55L498.16-35.55Q500.86-35.55 504.46-35.25L504.46-35.25Q505.86-35.15 506.59-34.27 507.31-33.4 507.31-32L507.31-32Q507.31-28.85 504.16-28.85L504.16-28.85Q503.41-28.85 501.16-29L501.16-29Q501.06-15.4 500.41-6.7L500.41-6.7 504.11-6.65ZM541.06-16.1Q542.86-16.1 543.89-15.15 544.91-14.2 544.91-12.6L544.91-12.6Q544.91-8.95 542.89-6.03 540.86-3.1 537.31-1.45 533.76 0.2 529.36 0.2L529.36 0.2Q524.16 0.2 520.19-1.88 516.21-3.95 514.01-7.78 511.81-11.6 511.81-16.6L511.81-16.6Q511.81-21.9 513.89-26.28 515.96-30.65 519.56-33.18 523.16-35.7 527.51-35.7L527.51-35.7Q533.26-35.7 536.36-33L536.36-33 536.36-33.25Q536.36-34.2 537.31-34.9 538.26-35.6 539.71-35.6L539.71-35.6Q541.41-35.6 542.36-34.77 543.31-33.95 543.31-32.4L543.31-32.4 543.26-27.6Q543.16-23.2 539.66-23.2L539.66-23.2Q538.86-23.2 538.09-23.5 537.31-23.8 536.91-24.35L536.91-24.35Q535.61-26.1 534.81-27 534.01-27.9 532.71-28.55 531.41-29.2 529.51-29.2L529.51-29.2Q526.96-29.2 524.54-27.5 522.11-25.8 520.59-22.93 519.06-20.05 519.06-16.65L519.06-16.65Q519.06-13.65 520.44-11.3 521.81-8.95 524.19-7.63 526.56-6.3 529.36-6.3L529.36-6.3Q531.51-6.3 533.36-7.1 535.21-7.9 536.34-9.38 537.46-10.85 537.46-12.7L537.46-12.7Q537.46-14.2 538.41-15.15 539.36-16.1 541.06-16.1L541.06-16.1ZM575.06-5.95Q576.46-4.75 576.46-3.35L576.46-3.35Q576.46-1.85 575.41-0.83 574.36 0.2 572.81 0.2L572.81 0.2Q571.56 0.2 570.56-0.5L570.56-0.5 563.21-7.05 557.26-12.3 557.21-9.2Q557.16-7.1 557.16-3.6L557.16-3.6Q557.16-1.95 556.16-0.93 555.16 0.1 553.51 0.1L553.51 0.1Q551.61 0.1 550.76-0.63 549.91-1.35 549.91-3.2L549.91-3.2Q549.91-5.35 550.01-9.75L550.01-9.75Q550.16-13.35 550.16-17.65L550.16-17.65Q550.16-20.9 550.06-25.6L550.06-25.6 550.01-31.85Q550.01-33.25 551.03-34.15 552.06-35.05 553.71-35.05L553.71-35.05Q555.36-35.05 556.33-34.13 557.31-33.2 557.31-31.7L557.31-31.7 557.36-24.2Q561.36-27.1 563.36-28.6L563.36-28.6 566.76-31.05 571.36-34.4Q572.36-35.1 573.66-35.1L573.66-35.1Q575.31-35.1 576.31-34.15 577.31-33.2 577.31-31.7L577.31-31.7Q577.31-30.2 576.21-29.3L576.21-29.3Q575.06-28.4 572.88-26.98 570.71-25.55 569.81-24.95L569.81-24.95 567.66-23.6Q564.76-21.7 562.38-20.2 560.01-18.7 559.76-18.55L559.76-18.55Q561.91-16.85 563.36-15.68 564.81-14.5 565.71-13.75L565.71-13.75 567.16-12.55Q566.91-12.75 569.91-10.25L569.91-10.25Q572.96-7.6 575.06-5.95L575.06-5.95Z" opacity="1" transform="matrix(1,0,0,1,0,0)" fill="#000000" class="slogan-text-1" data-fill-palette-color="secondary" id="text-1"></path></svg></g></svg></g></svg></g></svg></g><g transform="matrix(1,0,0,1,414.1284023682544,0)"><svg viewBox="0 0 213.56798732090041 167.8034186092789" height="167.8034186092789" width="213.56798732090041"><g><svg xmlns="http://www.w3.org/2000/svg" xmlns:xlink="http://www.w3.org/1999/xlink" version="1.1" x="0" y="0" viewBox="1 21 98 77" enable-background="new 0 0 100 100" xml:space="preserve" height="167.8034186092789" width="213.56798732090041" class="icon-icon-0" data-fill-palette-color="accent" id="icon-0"><g fill="#8abe53" data-fill-palette-color="accent"><path d="M47 78c4.418 0 8 3.582 8 8s-3.582 8-8 8c-4.417 0-8-3.582-8-8S42.583 78 47 78M47 74c-6.617 0-12 5.383-12 12s5.383 12 12 12c6.617 0 12-5.383 12-12S53.617 74 47 74L47 74z" fill="#000000" data-fill-palette-color="accent"></path><path d="M29 34v15H8V34H29M28.905 30H8c-2.209 0-4 1.791-4 4v15c0 2.209 1.791 4 4 4h20.905C31.114 53 33 51.209 33 49V34c0-2.209-1.839-4-4.048-4H28.905z" fill="#000000" data-fill-palette-color="accent"></path><path d="M61 34v15H40V34H61M60.904 30H40c-2.209 0-4 1.791-4 4v15c0 2.209 1.791 4 4 4h20.904C63.113 53 65 51.209 65 49V34c0-2.209-1.839-4-4.048-4H60.904z" fill="#000000" data-fill-palette-color="accent"></path><path d="M82 34l4 21v21H72V34H82M81.904 30H72c-2.209 0-4 1.791-4 4v42c0 2.209 1.791 4 4 4h13.904C88.113 80 90 78.209 90 76V55c0-0.251-0.071-0.502-0.118-0.748l-4.024-21C85.498 31.365 83.837 30 81.916 30H81.904z" fill="#000000" data-fill-palette-color="accent"></path><path d="M93 30c-1-5-5-9-10-9H1v4h4 3 75c3.23 0 5.503 2.91 6.078 5.785L95 60.359v19.584c0 1.1-0.897 2.057-2 2.057H65.576C63.732 73 56.104 67.015 47 67.015S30.268 73 28.424 82H8 5 1v4h31c0-8 6.717-14.985 15-14.985C55.283 71.015 62 78 62 86h31c3.313 0 6-2.746 6-6.057 0-1.664 0-19.98 0-19.98L93 30z" fill="#000000" data-fill-palette-color="accent"></path></g></svg></g></svg></g></svg></g><defs></defs></svg><rect width="395.5199999999999" height="105.73520768728535" fill="none" stroke="none" visibility="hidden"></rect></g></svg></g></svg>