<svg width="22" height="23" viewBox="0 0 22 23" fill="none" xmlns="http://www.w3.org/2000/svg">
<path d="M4.17116 16.0913V20.0328L8.06699 19.059L11.0003 22.0268L13.9337 19.059L17.8295 20.0328V16.0913L21.7712 15.0711L19.8003 11.1296L21.7712 7.18807L17.8295 6.16791V2.22637L13.9337 3.20016L11.0003 0.232422L8.06699 3.20016L4.17116 2.22637V6.16791L0.229492 7.18807L2.20033 11.1296L0.229492 15.0711L4.17116 16.0913ZM3.94199 10.2486L3.07116 8.44008L4.62949 8.06912C5.08783 7.97637 5.44685 7.75225 5.70658 7.39674C5.9663 7.04123 6.09616 6.63162 6.09616 6.16791V4.77678L7.56283 5.19412H8.06699C8.58644 5.19412 9.04477 4.99317 9.44199 4.59129L11.0003 3.01468L12.5587 4.59129C12.9559 4.99317 13.4142 5.19412 13.9337 5.19412C14.117 5.19412 14.285 5.1632 14.4378 5.10137L15.9045 4.77678V6.16791C15.9045 6.63162 16.0344 7.04123 16.2941 7.39674C16.5538 7.75225 16.9128 7.97637 17.3712 8.06912L18.9295 8.44008L18.0587 10.2486C17.7531 10.8359 17.7531 11.4233 18.0587 12.0106L18.9295 13.8191L17.3712 14.1901C16.9128 14.2828 16.5538 14.507 16.2941 14.8625C16.0344 15.218 15.9045 15.6276 15.9045 16.0913V17.4824L14.4378 17.0651H13.9337C13.4142 17.0651 12.9559 17.266 12.5587 17.6679L11.0003 19.2445L9.44199 17.6679C9.04477 17.266 8.58644 17.0651 8.06699 17.0651C7.88366 17.0651 7.7156 17.096 7.56283 17.1578L6.09616 17.4824V16.0913C6.09616 15.6276 5.9663 15.218 5.70658 14.8625C5.44685 14.507 5.08783 14.2828 4.62949 14.1901L3.07116 13.8191L3.94199 12.0106C4.24755 11.4233 4.24755 10.8359 3.94199 10.2486ZM10.0378 14.5147L14.6212 9.83121C15.0489 9.39842 15.0489 8.93471 14.6212 8.44008C14.1628 8.0382 13.7045 8.0382 13.2462 8.44008L10.0378 11.7324L8.75449 10.434C8.29616 10.0322 7.83783 10.0322 7.37949 10.434C6.98227 10.8977 6.98227 11.3615 7.37949 11.8252L10.0378 14.5147Z" fill="#535353"/>
</svg>
