<svg width="14" height="24" viewBox="0 0 14 24" fill="none" xmlns="http://www.w3.org/2000/svg">
<g clip-path="url(#clip0_320_10612)">
<path d="M7.12702 15.6081C8.50857 15.6065 9.83309 15.057 10.81 14.0801C11.7869 13.1032 12.3364 11.7787 12.338 10.3971V5.91113H1.91602V10.3971C1.91787 11.7784 2.46734 13.1026 3.44397 14.0795C4.42061 15.0563 5.74471 15.606 7.12602 15.6081H7.12702ZM2.57402 6.50713H4.41402V6.91313H2.57402V6.50713ZM2.57402 7.98213H4.41402V8.38813H2.57402V7.98213ZM2.57402 9.45013H4.41402V9.85613H2.57402V9.45013ZM2.57402 10.9251H4.41402V11.3311H2.57402V10.9251Z" fill="#4FA6D1"/>
<path d="M12.978 2.34375e-05H0V10.4C0.0020833 12.0475 0.573698 13.6437 1.61798 14.918C2.66227 16.1922 4.115 17.0663 5.73 17.392L5.776 17.4V17.67C5.776 17.88 6.003 18.045 6.286 18.045H6.716V19.501H6.555C6.48188 19.5013 6.41183 19.5305 6.36013 19.5822C6.30843 19.6339 6.27926 19.7039 6.279 19.777V21.929C6.279 22.081 6.402 22.203 6.553 22.203H6.715V24H7.545V22.206H7.707C7.78012 22.2058 7.85017 22.1766 7.90187 22.1249C7.95357 22.0732 7.98274 22.0031 7.983 21.93V19.775C7.98274 19.7019 7.95357 19.6319 7.90187 19.5802C7.85017 19.5285 7.78012 19.4993 7.707 19.499H7.545V18.043H7.975C8.261 18.043 8.486 17.877 8.486 17.668V17.398C11.797 16.737 14.258 13.856 14.262 10.399V-0.000976562L12.978 2.34375e-05ZM12.978 10.4C12.9502 11.9328 12.3219 13.3935 11.2283 14.4678C10.1346 15.5422 8.66301 16.1443 7.12996 16.1449C5.59691 16.1454 4.1249 15.5442 3.03052 14.4706C1.93615 13.397 1.30686 11.9368 1.278 10.404V1.28002H12.978V10.4Z" fill="#4FA6D1"/>
<path d="M2.57422 2.08984H4.41122V2.49584H2.57422V2.08984ZM2.57422 3.56384H4.41122V3.96984H2.57422V3.56384ZM2.57422 5.03884H4.41122V5.44484H2.57422V5.03884Z" fill="#4FA6D1"/>
</g>
<defs>
<clipPath id="clip0_320_10612">
<rect width="14" height="24" fill="white"/>
</clipPath>
</defs>
</svg>
