<svg width="14" height="21" viewBox="0 0 14 21" fill="none" xmlns="http://www.w3.org/2000/svg">
<path fill-rule="evenodd" clip-rule="evenodd" d="M4 19H6.5V21H7.5V19H10V18H12C12.5304 18 13.0391 17.7893 13.4142 17.4142C13.7893 17.0391 14 16.5304 14 16V4.05699C14 3.52656 13.7893 3.01785 13.4142 2.64278C13.0391 2.26771 12.5304 2.05699 12 2.05699H9L8.434 1.47499C8.24761 1.28328 8.02467 1.13088 7.77837 1.02682C7.53206 0.922757 7.26739 0.869141 7 0.869141C6.73261 0.869141 6.46794 0.922757 6.22163 1.02682C5.97533 1.13088 5.75239 1.28328 5.566 1.47499L5 2.05699H2C1.46957 2.05699 0.960859 2.26771 0.585786 2.64278C0.210714 3.01785 0 3.52656 0 4.05699V16C0 16.5304 0.210714 17.0391 0.585786 17.4142C0.960859 17.7893 1.46957 18 2 18H4V19ZM8.283 2.75399C8.37619 2.84987 8.48765 2.92608 8.61081 2.97812C8.73396 3.03016 8.8663 3.05698 9 3.05699H12C12.2652 3.05699 12.5196 3.16235 12.7071 3.34989C12.8946 3.53742 13 3.79178 13 4.05699V12.77C12.8529 12.6556 12.6984 12.551 12.5375 12.457C11.625 11.926 10.3055 11.65 8.746 12.57C7.462 13.3275 6.2545 13.5325 4.941 13.56C4.356 13.5725 3.757 13.55 3.1155 13.5255C3.02717 13.5221 2.93884 13.5187 2.8505 13.5155C2.23405 13.4887 1.617 13.4786 1 13.485V4.05749C1 3.79228 1.10536 3.53792 1.29289 3.35039C1.48043 3.16285 1.73478 3.05749 2 3.05749H5C5.1337 3.05748 5.26604 3.03066 5.38919 2.97862C5.51235 2.92658 5.62381 2.85037 5.717 2.75449L6.283 2.17249C6.37619 2.07664 6.48766 2.00044 6.61082 1.94841C6.73397 1.89638 6.86631 1.86957 7 1.86957C7.13369 1.86957 7.26603 1.89638 7.38918 1.94841C7.51234 2.00044 7.62381 2.07664 7.717 2.17249L8.283 2.75449V2.75399ZM1 14.4855V16C1 16.2652 1.10536 16.5196 1.29289 16.7071C1.48043 16.8946 1.73478 17 2 17H12C12.2652 17 12.5196 16.8946 12.7071 16.7071C12.8946 16.5196 13 16.2652 13 16V14.165C12.7329 13.8266 12.4055 13.5405 12.0345 13.321C11.3875 12.9445 10.4575 12.721 9.2545 13.431C7.7755 14.303 6.383 14.5295 4.962 14.5595C4.345 14.5725 3.715 14.5485 3.077 14.5245L2.8135 14.5145C2.20938 14.4883 1.60465 14.4787 1 14.4855V14.4855Z" fill="#4FA6D1"/>
</svg>
