<svg width="10" height="10" viewBox="0 0 10 10" fill="none" xmlns="http://www.w3.org/2000/svg">
<path d="M5 0.375C2.4125 0.375 0.3125 2.475 0.3125 5.0625C0.3125 7.65 2.4125 9.75 5 9.75C7.5875 9.75 9.6875 7.65 9.6875 5.0625C9.6875 2.475 7.5875 0.375 5 0.375ZM5 8.8125C2.9375 8.8125 1.25 7.125 1.25 5.0625C1.25 3 2.9375 1.3125 5 1.3125C7.0625 1.3125 8.75 3 8.75 5.0625C8.75 7.125 7.0625 8.8125 5 8.8125Z" fill="#1BC949"/>
<path d="M3.76172 3.61875C3.93047 3.43125 4.13672 3.28125 4.38047 3.1875C4.62422 3.075 4.86797 3.01875 5.13047 3.01875C5.44922 3.01875 5.76797 3.09375 6.03047 3.2625C6.29297 3.4125 6.53672 3.6375 6.70547 3.88125L7.38047 3.375C7.11797 3.0375 6.79922 2.7375 6.42422 2.55C6.03047 2.34375 5.61797 2.25 5.14922 2.25C4.77422 2.25 4.39922 2.325 4.06172 2.475C3.72422 2.625 3.42422 2.83125 3.18047 3.075C2.93672 3.3375 2.73047 3.61875 2.58047 3.975C2.43047 4.3125 2.35547 4.6875 2.35547 5.0625C2.35547 5.45625 2.43047 5.8125 2.58047 6.15C2.73047 6.4875 2.91797 6.7875 3.18047 7.05C3.42422 7.3125 3.72422 7.5 4.06172 7.65C4.39922 7.8 4.75547 7.875 5.14922 7.875C5.61797 7.875 6.04922 7.78125 6.42422 7.575C6.79922 7.36875 7.13672 7.0875 7.38047 6.75L6.70547 6.24375C6.53672 6.50625 6.31172 6.7125 6.03047 6.8625C5.74922 7.0125 5.44922 7.0875 5.13047 7.0875C4.86797 7.0875 4.62422 7.03125 4.38047 6.91875C4.15547 6.80625 3.94922 6.65625 3.76172 6.4875C3.59297 6.3 3.44297 6.09375 3.34922 5.85C3.25547 5.60625 3.19922 5.34375 3.19922 5.0625C3.19922 4.78125 3.25547 4.51875 3.34922 4.275C3.44297 4.03125 3.59297 3.80625 3.76172 3.61875Z" fill="#1BC949"/>
</svg>
