<svg width="130" height="54" viewBox="0 0 130 54" fill="none" xmlns="http://www.w3.org/2000/svg">
<path d="M52.531 26.2974C52.5375 21.9873 51.4774 17.7424 49.4449 13.9398C47.4123 10.1372 44.4702 6.89472 40.8801 4.50045C37.2899 2.10618 33.1629 0.634293 28.8657 0.215573C24.5685 -0.203146 20.2342 0.444272 16.248 2.1003C12.2618 3.75633 8.74711 6.36968 6.01628 9.70813C3.28545 13.0466 1.42303 17.0067 0.594529 21.2367C-0.233977 25.4667 -0.00291321 29.8354 1.26719 33.9548C2.53729 38.0741 4.80711 41.8165 7.87492 44.8493C8.08915 44.3946 8.39666 43.9897 8.77754 43.6611C5.91703 40.7827 3.81108 37.2451 2.64593 33.361C1.48078 29.477 1.29232 25.3661 2.09722 21.3921C2.90213 17.418 4.6756 13.7031 7.26079 10.576C9.84599 7.44885 13.1633 5.00577 16.9193 3.46282C20.6753 1.91986 24.7543 1.32455 28.7956 1.72955C32.8368 2.13454 36.7159 3.52735 40.0897 5.78482C43.4635 8.04228 46.2281 11.0948 48.139 14.6726C50.0499 18.2503 51.0483 22.2429 51.0458 26.2974C51.0255 30.4822 49.9485 34.5943 47.9145 38.2536C45.8805 41.9129 42.9552 45.0012 39.4089 47.2329C36.9456 48.7694 33.6156 50.4386 30.6632 50.5894C30.2204 50.5984 29.7808 50.5128 29.3739 50.3382C28.967 50.1636 28.6023 49.9041 28.3042 49.5771C27.8651 49.0985 27.54 48.527 27.3532 47.9054C27.1664 47.2838 27.1227 46.6281 27.2254 45.9873L26.0423 45.8473C25.917 46.663 25.9795 47.4965 26.225 48.2846C26.4705 49.0727 26.8925 49.7945 27.4591 50.3955C30.5662 53.5725 35.9747 50.8909 39.1752 49.0853C43.2244 46.8073 46.5951 43.497 48.9429 39.4927C51.2907 35.4884 52.5314 30.9336 52.5382 26.2938L52.531 26.2974Z" fill="#094963"/>
<path d="M31.1816 52.0043C30.4741 52.029 29.7692 51.9072 29.1113 51.6465C28.4534 51.3857 27.8567 50.9918 27.3589 50.4894C26.7802 49.8715 26.3499 49.1301 26.1007 48.3216C25.8515 47.5131 25.7899 46.6585 25.9205 45.8227V45.6935L27.3589 45.8658V45.9914C27.2588 46.6116 27.3014 47.2464 27.4833 47.8478C27.6652 48.4492 27.9818 49.0015 28.409 49.4627C28.694 49.7767 29.0429 50.0263 29.4324 50.1947C29.8219 50.3631 30.2429 50.4465 30.6673 50.4391C33.6772 50.2848 37.0504 48.5401 39.3483 47.1007C42.9804 44.8377 45.9578 41.6674 47.986 37.9034C50.0142 34.1393 51.0228 29.9119 50.9122 25.6394C50.8016 21.3668 49.5755 17.1971 47.3553 13.5426C45.135 9.88819 41.9975 6.87568 38.2531 4.80307C34.5087 2.73047 30.2871 1.66958 26.006 1.72534C21.7248 1.78111 17.5324 2.9516 13.8435 5.12104C10.1545 7.29047 7.09684 10.3837 4.97286 14.0947C2.84888 17.8057 1.73221 22.006 1.73331 26.28C1.72606 29.4892 2.35279 32.6683 3.57764 35.6354C4.8025 38.6026 6.60143 41.2995 8.87152 43.5719L8.96862 43.6688L8.86433 43.7622C8.49506 44.0769 8.19821 44.4675 7.99407 44.9073L7.91496 45.0724L7.7855 44.9432C4.70823 41.8954 2.43235 38.1364 1.15991 33.9997C-0.112533 29.863 -0.342182 25.4768 0.491353 21.2302C1.32489 16.9837 3.19582 13.0083 5.93806 9.65689C8.6803 6.3055 12.209 3.68181 16.211 2.01872C20.2129 0.355628 24.5643 -0.295412 28.8788 0.1234C33.1934 0.542212 37.3376 2.01792 40.9436 4.41951C44.5496 6.82111 47.5058 10.0743 49.5499 13.8903C51.594 17.7063 52.6626 21.9671 52.6609 26.2943C52.6557 30.958 51.4097 35.5366 49.0505 39.5619C46.6912 43.5872 43.3033 46.9147 39.2332 49.2043C36.867 50.5361 33.8463 52.0043 31.1816 52.0043ZM26.1471 45.995C26.0454 46.7714 26.1178 47.5606 26.3591 48.3056C26.6004 49.0506 27.0046 49.7327 27.5423 50.3027C30.4731 53.2966 35.5436 50.9776 39.1001 48.9709C43.1321 46.7055 46.4888 43.4114 48.8266 39.4257C51.1645 35.44 52.3996 30.9058 52.4056 26.2872C52.4075 22.008 51.3529 17.7943 49.335 14.019C47.317 10.2436 44.3981 7.0229 40.8363 4.64184C37.2746 2.26078 33.1798 0.792765 28.9143 0.367667C24.6489 -0.0574322 20.3442 0.573498 16.3812 2.20463C12.4182 3.83576 8.91895 6.41682 6.19316 9.71943C3.46737 13.022 1.59903 16.9444 0.753431 21.1395C-0.0921635 25.3345 0.111059 29.673 1.34512 33.771C2.57918 37.869 4.80603 41.6002 7.82866 44.6345C8.02194 44.2678 8.27607 43.9364 8.58023 43.6545C5.7255 40.7492 3.63066 37.1875 2.48041 33.2833C1.33016 29.3791 1.15984 25.2523 1.98446 21.2669C2.80909 17.2814 4.60333 13.5598 7.20898 10.4299C9.81463 7.30014 13.1517 4.85837 16.9258 3.31992C20.7 1.78146 24.7954 1.19359 28.8509 1.60813C32.9064 2.02267 36.7974 3.42689 40.1809 5.69698C43.5644 7.96707 46.3365 11.0333 48.2526 14.6253C50.1688 18.2173 51.1702 22.2248 51.1686 26.2943C51.1469 30.5002 50.0642 34.6328 48.0203 38.3106C45.9764 41.9884 43.0372 45.093 39.4741 47.3376C37.1475 48.7735 33.7204 50.5684 30.6673 50.712C30.2062 50.7235 29.7481 50.6354 29.3242 50.4539C28.9003 50.2724 28.5206 50.0016 28.2112 49.6602C27.7703 49.1884 27.4394 48.6251 27.2424 48.0107C27.0453 47.3963 26.9868 46.7459 27.0713 46.1063L26.1471 45.995Z" fill="#094963"/>
<path d="M11.924 54.0003C15.7869 54.0003 18.9184 50.8744 18.9184 47.0182C18.9184 43.1621 15.7869 40.0361 11.924 40.0361C8.06117 40.0361 4.92969 43.1621 4.92969 47.0182C4.92969 50.8744 8.06117 54.0003 11.924 54.0003Z" fill="#CADE6C"/>
<path d="M11.9247 53.3826C15.4459 53.3826 18.3005 50.5331 18.3005 47.018C18.3005 43.5029 15.4459 40.6533 11.9247 40.6533C8.40338 40.6533 5.54883 43.5029 5.54883 47.018C5.54883 50.5331 8.40338 53.3826 11.9247 53.3826Z" fill="#49B0E2"/>
<path d="M26.3198 46.6377C26.0764 46.6359 25.8345 46.6009 25.6006 46.5336C23.5652 45.9305 21.8247 43.7336 20.6919 42.1326C17.7144 37.9218 15.8948 32.8997 14.5103 28.5453C14.0751 27.1776 13.7191 25.7919 13.3955 24.4996C13.3488 24.3022 13.2912 24.0976 13.2337 23.8786C12.9064 22.694 12.5145 21.215 12.9784 20.0268C13.8558 17.837 18.7321 17.9231 20.3827 18.0165C20.4459 18.0201 20.5077 18.0363 20.5645 18.0643C20.6213 18.0923 20.6718 18.1314 20.7131 18.1793C20.7544 18.2272 20.7856 18.283 20.8048 18.3432C20.824 18.4034 20.8309 18.4669 20.825 18.5298C20.8149 18.6514 20.7578 18.7643 20.6659 18.8447C20.574 18.925 20.4544 18.9666 20.3323 18.9606C17.9265 18.817 14.3808 19.0683 13.8594 20.3786C13.4998 21.2688 13.8594 22.5791 14.1471 23.6309C14.2082 23.8535 14.2657 24.0688 14.3161 24.2699C14.6361 25.5514 14.9886 26.9191 15.4129 28.2581C16.7758 32.5443 18.5631 37.4802 21.4651 41.5869C22.0728 42.4449 23.914 45.0475 25.8703 45.6254C26.1706 45.7152 26.4906 45.7152 26.7909 45.6254C28.7471 45.0475 30.5883 42.4449 31.1961 41.5869C34.0981 37.4802 35.871 32.5443 37.2483 28.2581C37.6762 26.9155 38.0286 25.5478 38.3451 24.2699C38.3954 24.0688 38.4529 23.8535 38.5141 23.6309C38.8018 22.5791 39.1614 21.2688 38.8054 20.3786C38.2803 19.0683 34.7346 18.817 32.3324 18.9606C32.21 18.9666 32.09 18.9252 31.9975 18.8449C31.905 18.7646 31.8472 18.6517 31.8362 18.5298C31.8303 18.4669 31.8371 18.4034 31.8564 18.3432C31.8756 18.283 31.9068 18.2272 31.9481 18.1793C31.9893 18.1314 32.0399 18.0923 32.0967 18.0643C32.1534 18.0363 32.2153 18.0201 32.2785 18.0165C33.9327 17.9231 38.8054 17.837 39.6828 20.0268C40.1611 21.215 39.7547 22.6904 39.4311 23.8786C39.37 24.0976 39.3124 24.3022 39.2657 24.4996C38.9456 25.7919 38.586 27.1776 38.1509 28.5453C36.7664 32.8997 34.9468 37.9218 31.9692 42.1326C30.8401 43.7336 29.0924 45.9305 27.0606 46.5336C26.8198 46.6028 26.5704 46.6379 26.3198 46.6377Z" fill="#094963"/>
<path d="M31.8986 19.3305C32.3355 19.3305 32.6897 18.9769 32.6897 18.5407C32.6897 18.1046 32.3355 17.751 31.8986 17.751C31.4616 17.751 31.1074 18.1046 31.1074 18.5407C31.1074 18.9769 31.4616 19.3305 31.8986 19.3305Z" fill="#094963"/>
<path d="M20.7579 19.3305C21.1949 19.3305 21.5491 18.9769 21.5491 18.5407C21.5491 18.1046 21.1949 17.751 20.7579 17.751C20.321 17.751 19.9668 18.1046 19.9668 18.5407C19.9668 18.9769 20.321 19.3305 20.7579 19.3305Z" fill="#094963"/>
<path d="M44.2676 26.3262C44.3192 26.9166 44.5907 27.4663 45.0284 27.8668C45.4661 28.2672 46.0383 28.4894 46.632 28.4894C47.2257 28.4894 47.7979 28.2672 48.2356 27.8668C48.6733 27.4663 48.9448 26.9166 48.9964 26.3262H44.2676Z" fill="#CADE6C"/>
<path d="M44.2676 25.882H48.9964C48.9448 25.2915 48.6733 24.7418 48.2356 24.3414C47.7979 23.9409 47.2257 23.7187 46.632 23.7188C46.0383 23.7187 45.4661 23.9409 45.0284 24.3414C44.5907 24.7418 44.3192 25.2915 44.2676 25.882Z" fill="#CADE6C"/>
<path d="M42.4481 26.8438C42.0719 27.2988 41.879 27.8774 41.907 28.4667C41.935 29.056 42.1819 29.6138 42.5996 30.0312C43.0173 30.4486 43.5758 30.6957 44.1661 30.7243C44.7564 30.7529 45.3363 30.5609 45.7925 30.1858L42.4481 26.8438Z" fill="#49B0E2"/>
<path d="M42.7598 26.5311L46.1077 29.8696C46.4834 29.4142 46.6757 28.8354 46.6471 28.2461C46.6185 27.6568 46.3709 27.0993 45.9528 26.6824C45.5346 26.2654 44.9759 26.0189 44.3855 25.9909C43.7952 25.963 43.2156 26.1556 42.7598 26.5311Z" fill="#49B0E2"/>
<path d="M28.344 13.0337H22.8815C22.637 13.0328 22.4029 12.9351 22.2304 12.7622C22.0578 12.5893 21.9609 12.3552 21.9609 12.1111V5.09672C21.9609 4.85299 22.0579 4.61924 22.2306 4.4469C22.4032 4.27455 22.6374 4.17773 22.8815 4.17773H24.1833V4.30697C24.2348 4.64671 24.4066 4.95676 24.6676 5.18082C24.9285 5.40488 25.2614 5.52809 25.6056 5.52809C25.9498 5.52809 26.2826 5.40488 26.5435 5.18082C26.8045 4.95676 26.9763 4.64671 27.0278 4.30697V4.17773H28.326C28.5705 4.17773 28.805 4.27444 28.9782 4.44668C29.1515 4.61892 29.2492 4.85266 29.2502 5.09672V12.1111C29.2493 12.3525 29.1541 12.5839 28.9849 12.7562C28.8156 12.9285 28.5857 13.0281 28.344 13.0337ZM22.8815 4.45415C22.797 4.45415 22.7133 4.47077 22.6352 4.50306C22.5571 4.53536 22.4861 4.58268 22.4264 4.64235C22.3666 4.70202 22.3192 4.77286 22.2868 4.85082C22.2545 4.92878 22.2378 5.01233 22.2378 5.09672V12.1111C22.2378 12.2819 22.3055 12.4457 22.4262 12.5668C22.5468 12.6878 22.7105 12.7563 22.8815 12.7573H28.344C28.515 12.7563 28.6787 12.6878 28.7994 12.5668C28.92 12.4457 28.9877 12.2819 28.9877 12.1111V5.09672C28.9877 4.9263 28.9199 4.76286 28.7991 4.64235C28.6784 4.52185 28.5147 4.45415 28.344 4.45415H27.3011C27.2475 4.86282 27.0469 5.23809 26.7365 5.50996C26.4262 5.78184 26.0274 5.93176 25.6146 5.93176C25.2017 5.93176 24.8029 5.78184 24.4926 5.50996C24.1822 5.23809 23.9816 4.86282 23.928 4.45415H22.8815Z" fill="#094963"/>
<path d="M24.2695 4.15625C24.2873 4.49985 24.4366 4.8235 24.6866 5.06042C24.9365 5.29733 25.268 5.42943 25.6127 5.42943C25.9573 5.42943 26.2888 5.29733 26.5388 5.06042C26.7887 4.8235 26.938 4.49985 26.9558 4.15625H24.2695Z" fill="#094963"/>
<path d="M27.7359 7.60156H23.4961V7.74874H27.7359V7.60156Z" fill="#CADE6C"/>
<path d="M27.7359 8.62207H23.4961V8.76925H27.7359V8.62207Z" fill="#CADE6C"/>
<path d="M27.7359 9.64551H23.4961V9.79269H27.7359V9.64551Z" fill="#CADE6C"/>
<path d="M27.7359 10.668H23.4961V10.8152H27.7359V10.668Z" fill="#CADE6C"/>
<path d="M12.285 18.9457H12.0081C11.8238 18.9408 11.6443 18.8852 11.4896 18.7852C11.3348 18.6851 11.2106 18.5444 11.1307 18.3785C10.96 18.0574 10.9226 17.6823 11.0264 17.3339L12.1484 14.1426L13.2667 17.3267C13.3721 17.677 13.3359 18.0545 13.166 18.3785C13.0852 18.5444 12.9603 18.6851 12.805 18.7851C12.6496 18.8851 12.4698 18.9406 12.285 18.9457ZM11.3608 18.2565C11.4199 18.3795 11.5113 18.4842 11.6253 18.5594C11.7393 18.6346 11.8716 18.6776 12.0081 18.6836H12.285C12.4222 18.6782 12.5552 18.6355 12.6699 18.5603C12.7846 18.485 12.8765 18.38 12.9359 18.2565C13.071 17.9937 13.1006 17.6894 13.0186 17.4057L12.1448 14.9251L11.2709 17.4093C11.1905 17.6911 11.2214 17.993 11.3572 18.2529L11.3608 18.2565Z" fill="#49B0E2"/>
<path d="M14.3484 14.7244H14.032C13.8212 14.7179 13.6163 14.6539 13.4395 14.5394C13.2626 14.4248 13.1205 14.2641 13.0287 14.0747C12.8335 13.7085 12.7909 13.2803 12.91 12.8829L14.1902 9.23926L15.4704 12.8757C15.5895 13.2751 15.5482 13.7051 15.3553 14.0747C15.2632 14.2646 15.1206 14.4257 14.943 14.5403C14.7654 14.6549 14.5598 14.7186 14.3484 14.7244ZM13.2912 13.9347C13.3576 14.0766 13.4619 14.1975 13.5925 14.2842C13.7232 14.3709 13.8752 14.4202 14.032 14.4265H14.3484C14.5057 14.4204 14.6583 14.3713 14.7896 14.2846C14.9209 14.1979 15.0258 14.0768 15.0928 13.9347C15.2459 13.6364 15.2793 13.2911 15.1863 12.969L14.1902 10.1367L13.1941 12.9726C13.1028 13.294 13.1375 13.638 13.2912 13.9347Z" fill="#CADE6C"/>
<path d="M9.72457 17.3162H9.46565C9.29484 17.3106 9.12875 17.259 8.98502 17.1667C8.84128 17.0744 8.72528 16.945 8.64934 16.7921C8.49315 16.4935 8.45961 16.1458 8.55584 15.8229L9.59511 12.8613L10.6344 15.8157C10.731 16.141 10.6975 16.491 10.5409 16.7921C10.4649 16.945 10.3489 17.0744 10.2052 17.1667C10.0615 17.259 9.89537 17.3106 9.72457 17.3162ZM8.86511 16.6773C8.91936 16.792 9.00397 16.8897 9.10981 16.96C9.21564 17.0302 9.33869 17.0702 9.46565 17.0757H9.72457C9.85153 17.0702 9.97457 17.0302 10.0804 16.96C10.1862 16.8897 10.2709 16.792 10.3251 16.6773C10.4503 16.4347 10.4786 16.1537 10.4042 15.8911L9.59511 13.5901L8.786 15.8947C8.71259 16.1562 8.74084 16.4357 8.86511 16.6773Z" fill="#CADE6C"/>
<path d="M11.825 43.1152H11.9545L12.1343 47.2076L11.7207 47.143L11.825 43.1152Z" fill="#F6F8FA"/>
<path d="M12.0157 41.2236H11.8359V42.0529H12.0157V41.2236Z" fill="white"/>
<path d="M12.0157 51.9824H11.8359V52.8117H12.0157V51.9824Z" fill="white"/>
<path d="M17.7291 46.9287H16.8984V47.1082H17.7291V46.9287Z" fill="white"/>
<path d="M6.95179 46.9287H6.12109V47.1082H6.95179V46.9287Z" fill="white"/>
<path d="M15.504 50.459L15.377 50.5859L15.9645 51.1721L16.0916 51.0451L15.504 50.459Z" fill="white"/>
<path d="M7.88691 42.8594L7.75977 42.9863L8.34715 43.5727L8.47429 43.4458L7.88691 42.8594Z" fill="white"/>
<path d="M8.3452 50.4654L7.75781 51.0518L7.88495 51.1787L8.47234 50.5923L8.3452 50.4654Z" fill="white"/>
<path d="M15.9643 42.855L15.377 43.4414L15.5041 43.5683L16.0915 42.982L15.9643 42.855Z" fill="white"/>
<path d="M8.96484 47.0796V46.9576L11.9676 46.875V47.1622L8.96484 47.0796Z" fill="#F2F2F2"/>
<path d="M11.9244 47.4625C12.1707 47.4625 12.3703 47.2632 12.3703 47.0174C12.3703 46.7716 12.1707 46.5723 11.9244 46.5723C11.6782 46.5723 11.4785 46.7716 11.4785 47.0174C11.4785 47.2632 11.6782 47.4625 11.9244 47.4625Z" fill="#F6F8FA"/>
<path d="M30.272 32.3287C28.6825 32.3287 27.7835 34.8667 26.1976 34.8667C24.6118 34.8667 23.4898 32.3287 21.8823 32.3287C21.8823 30.778 20.6884 25.1492 21.235 23.6882C21.6414 22.5789 24.0364 21.7102 25.1512 22.1158C25.8393 22.3762 26.5991 22.3762 27.2872 22.1158C28.4883 21.6851 30.8833 22.5897 31.2825 23.7994C31.6277 24.9338 30.4374 30.7421 30.272 32.3287Z" fill="#094963"/>
<path d="M26.2267 15.644C26.9803 15.6675 27.6953 15.9822 28.2211 16.5217C28.7468 17.0611 29.0422 17.7833 29.045 18.5359C29.0478 19.2886 28.7578 20.0129 28.236 20.5563C27.7143 21.0996 27.0017 21.4196 26.2483 21.4487C25.858 21.4637 25.4686 21.4002 25.1034 21.2618C24.7382 21.1235 24.4047 20.9131 24.1227 20.6433C23.8407 20.3735 23.616 20.0497 23.4621 19.6914C23.3081 19.333 23.228 18.9474 23.2266 18.5575C23.2251 18.1676 23.3024 17.7813 23.4537 17.4219C23.6049 17.0624 23.8272 16.737 24.1072 16.4651C24.3872 16.1932 24.7191 15.9804 25.0833 15.8393C25.4474 15.6982 25.8363 15.6318 26.2267 15.644Z" fill="#094963"/>
<path d="M43.5364 10.2805C43.5574 10.2805 43.5775 10.2722 43.5923 10.2574C43.6072 10.2426 43.6155 10.2225 43.6155 10.2015C43.616 10.1909 43.6143 10.1802 43.6105 10.1702C43.6068 10.1602 43.601 10.1511 43.5936 10.1434C43.5862 10.1357 43.5774 10.1295 43.5675 10.1253C43.5577 10.1211 43.5471 10.119 43.5364 10.119H40.3539C40.3418 10.1164 40.3293 10.1166 40.3174 10.1195C40.3054 10.1224 40.2942 10.1279 40.2846 10.1356C40.2751 10.1433 40.2674 10.1531 40.2621 10.1642C40.2568 10.1753 40.254 10.1875 40.254 10.1998C40.254 10.2121 40.2568 10.2242 40.2621 10.2353C40.2674 10.2464 40.2751 10.2562 40.2846 10.2639C40.2942 10.2716 40.3054 10.2772 40.3174 10.28C40.3293 10.2829 40.3418 10.2831 40.3539 10.2805H40.7386V11.4113H39.347V10.2805H39.7785C39.7905 10.2831 39.803 10.2829 39.815 10.28C39.827 10.2772 39.8381 10.2716 39.8477 10.2639C39.8573 10.2562 39.865 10.2464 39.8703 10.2353C39.8756 10.2242 39.8783 10.2121 39.8783 10.1998C39.8783 10.1875 39.8756 10.1753 39.8703 10.1642C39.865 10.1531 39.8573 10.1433 39.8477 10.1356C39.8381 10.1279 39.827 10.1224 39.815 10.1195C39.803 10.1166 39.7905 10.1164 39.7785 10.119H36.596C36.5839 10.1164 36.5714 10.1166 36.5595 10.1195C36.5475 10.1224 36.5363 10.1279 36.5267 10.1356C36.5172 10.1433 36.5095 10.1531 36.5041 10.1642C36.4988 10.1753 36.4961 10.1875 36.4961 10.1998C36.4961 10.2121 36.4988 10.2242 36.5041 10.2353C36.5095 10.2464 36.5172 10.2562 36.5267 10.2639C36.5363 10.2716 36.5475 10.2772 36.5595 10.28C36.5714 10.2829 36.5839 10.2831 36.596 10.2805H36.9807V11.4113H36.596C36.5743 11.4122 36.5538 11.4212 36.5385 11.4365C36.5231 11.4518 36.5141 11.4723 36.5132 11.4939V16.5195C36.5141 16.5412 36.5231 16.5617 36.5385 16.577C36.5538 16.5922 36.5743 16.6012 36.596 16.6021H43.5364C43.5472 16.6023 43.558 16.6001 43.5679 16.5958C43.5778 16.5915 43.5867 16.585 43.5939 16.577C43.6082 16.5613 43.616 16.5407 43.6155 16.5195V11.4939C43.616 11.4727 43.6082 11.4521 43.5939 11.4364C43.5867 11.4284 43.5778 11.4219 43.5679 11.4176C43.558 11.4133 43.5472 11.4111 43.5364 11.4113H43.1049V10.2805H43.5364ZM42.9394 12.0036H40.9113V11.5728H42.9466L42.9394 12.0036ZM40.9041 12.1687H42.9394V14.6134C42.941 14.7467 42.9157 14.8789 42.865 15.0023C42.8144 15.1256 42.7394 15.2375 42.6446 15.3313C42.4518 15.5183 42.1941 15.6238 41.9253 15.6257C41.6563 15.6253 41.3981 15.5196 41.2061 15.3313C41.11 15.2383 41.0339 15.1266 40.9825 15.0032C40.9312 14.8797 40.9057 14.747 40.9077 14.6134L40.9041 12.1687ZM39.1851 10.2805V11.4113H37.1498V10.2805H39.1851ZM39.1851 12.0036H37.1498V11.5728H39.1851V12.0036ZM37.1498 12.1687H39.1851V14.6134C39.1871 14.747 39.1616 14.8797 39.1102 15.0032C39.0589 15.1266 38.9828 15.2383 38.8867 15.3313C38.6945 15.519 38.4363 15.6241 38.1674 15.6241C37.8986 15.6241 37.6404 15.519 37.4482 15.3313C37.3534 15.2375 37.2784 15.1256 37.2277 15.0023C37.1771 14.8789 37.1518 14.7467 37.1533 14.6134L37.1498 12.1687ZM43.4537 16.4477H36.6787V16.2503H43.4537V16.4477ZM43.4537 11.5728V16.0888H36.6787V11.5728H36.9843V14.6134C36.9858 14.7675 37.0184 14.9198 37.0801 15.061C37.1419 15.2023 37.2317 15.3296 37.3439 15.4354C37.5665 15.6538 37.8661 15.7762 38.1782 15.7762C38.4903 15.7762 38.7899 15.6538 39.0125 15.4354C39.125 15.3298 39.2148 15.2024 39.2766 15.0611C39.3384 14.9199 39.3709 14.7675 39.3721 14.6134V11.5728H40.7638V14.6134C40.7652 14.7675 40.7978 14.9198 40.8596 15.061C40.9214 15.2023 41.0111 15.3296 41.1234 15.4354C41.346 15.6538 41.6456 15.7762 41.9577 15.7762C42.2698 15.7762 42.5694 15.6538 42.792 15.4354C42.9043 15.3296 42.994 15.2023 43.0558 15.061C43.1176 14.9198 43.1502 14.7675 43.1516 14.6134V11.5728H43.4537ZM42.9394 11.4113H40.9113V10.2805H42.9466L42.9394 11.4113Z" fill="#094963"/>
<path d="M40.9121 12.168H42.9475V14.6126C42.9491 14.7459 42.9238 14.8781 42.8731 15.0015C42.8224 15.1248 42.7475 15.2367 42.6526 15.3306C42.4598 15.5175 42.2022 15.623 41.9334 15.6249C41.6643 15.6245 41.4061 15.5188 41.2142 15.3306C41.118 15.2375 41.0419 15.1259 40.9906 15.0024C40.9393 14.8789 40.9138 14.7463 40.9157 14.6126L40.9121 12.168Z" fill="#49B0E2"/>
<path d="M37.1504 12.168H39.1858V14.6126C39.1877 14.7463 39.1622 14.8789 39.1109 15.0024C39.0596 15.1259 38.9835 15.2375 38.8873 15.3306C38.6954 15.5188 38.4372 15.6245 38.1681 15.6249C37.8993 15.623 37.6416 15.5175 37.4489 15.3306C37.354 15.2367 37.279 15.1248 37.2284 15.0015C37.1777 14.8781 37.1524 14.7459 37.154 14.6126L37.1504 12.168Z" fill="#CADE6C"/>
<path d="M40.4712 41.0409C40.4777 41.0558 40.4881 41.0688 40.5014 41.0783C40.5148 41.0878 40.5304 41.0934 40.5467 41.0947C40.5634 41.0953 40.58 41.0908 40.5941 41.0819C40.6082 41.0729 40.6193 41.0598 40.6258 41.0445L41.363 38.8296L41.9779 36.9808L42.3663 38.8367V38.8655C42.3712 38.8822 42.3818 38.8967 42.3962 38.9065C42.4107 38.9163 42.428 38.9208 42.4454 38.9193H44.2183C44.2282 38.9203 44.2382 38.9193 44.2478 38.9164C44.2573 38.9135 44.2662 38.9088 44.2739 38.9024C44.2816 38.8961 44.2879 38.8883 44.2926 38.8795C44.2972 38.8707 44.3001 38.861 44.301 38.8511C44.3001 38.8412 44.2972 38.8315 44.2926 38.8227C44.2879 38.8139 44.2816 38.8061 44.2739 38.7998C44.2662 38.7934 44.2573 38.7887 44.2478 38.7858C44.2382 38.7829 44.2282 38.7819 44.2183 38.7829H42.5138L42.0714 36.6685C42.0668 36.6521 42.0569 36.6376 42.0433 36.6272C42.0296 36.6169 42.013 36.6112 41.9959 36.6111C41.9789 36.6086 41.9615 36.6124 41.947 36.6216C41.9325 36.6308 41.9218 36.6449 41.9168 36.6613L41.1976 38.8152L40.5539 40.7716L39.9929 38.8332V38.7973C39.9875 38.7818 39.9772 38.7686 39.9635 38.7595C39.9499 38.7505 39.9337 38.7461 39.9174 38.747H37.9647C37.9463 38.7444 37.9275 38.7484 37.9117 38.7582C37.896 38.7681 37.8842 38.7832 37.8784 38.8009C37.8713 38.823 37.8713 38.8469 37.8784 38.8691C37.8807 38.8832 37.8861 38.8966 37.8941 38.9084C37.9022 38.9202 37.9128 38.93 37.9252 38.9373C37.9452 38.9428 37.9663 38.9428 37.9863 38.9373H39.8599L40.4712 41.0409Z" fill="#CADE6C"/>
<path d="M40.5536 41.13C40.5328 41.1296 40.5127 41.1229 40.496 41.1107C40.4793 41.0985 40.4667 41.0814 40.4601 41.0618L39.8343 38.951H37.9752C37.9515 38.9559 37.927 38.9559 37.9033 38.951C37.874 38.9321 37.8533 38.9024 37.8457 38.8685C37.8405 38.8424 37.8405 38.8155 37.8457 38.7895C37.8529 38.7671 37.8675 38.7478 37.8871 38.7348C37.9067 38.7218 37.9301 38.7157 37.9536 38.7177H39.9063C39.9277 38.7167 39.9489 38.7229 39.9665 38.7352C39.9841 38.7476 39.997 38.7654 40.0034 38.7859V38.8182L40.5464 40.6921L41.8877 36.6607C41.8948 36.6403 41.9086 36.6228 41.9269 36.6111C41.9451 36.5994 41.9668 36.5941 41.9884 36.5961C42.0102 36.596 42.0314 36.6029 42.0489 36.6159C42.0664 36.6288 42.0793 36.6471 42.0855 36.6679L42.5242 38.7679H44.2108C44.2346 38.7679 44.2575 38.7774 44.2743 38.7942C44.2912 38.8111 44.3007 38.8339 44.3007 38.8577C44.3007 38.8815 44.2912 38.9043 44.2743 38.9211C44.2575 38.938 44.2346 38.9474 44.2108 38.9474H42.4379C42.4158 38.9489 42.394 38.9424 42.3762 38.9293C42.3584 38.9161 42.3459 38.8971 42.3408 38.8756V38.8469L41.9812 37.0736L40.6543 41.0546C40.648 41.0764 40.6348 41.0956 40.6166 41.1092C40.5984 41.1228 40.5763 41.1301 40.5536 41.13ZM38.5326 38.9223H39.8739L40.4924 41.0331C40.497 41.0444 40.505 41.0539 40.5153 41.0604C40.5257 41.0668 40.5378 41.0698 40.55 41.069C40.5616 41.0692 40.573 41.0664 40.5832 41.0607C40.5933 41.055 40.6017 41.0467 40.6075 41.0367L41.992 36.8977L42.402 38.8577C42.4053 38.87 42.4129 38.8807 42.4235 38.888C42.434 38.8952 42.4468 38.8985 42.4595 38.8972H44.2324C44.2647 38.8972 44.2935 38.8756 44.2935 38.8505C44.2935 38.8254 44.2647 38.8038 44.2324 38.8038H42.5098L42.0675 36.6895C42.0643 36.6778 42.0572 36.6675 42.0474 36.6604C42.0376 36.6532 42.0257 36.6495 42.0136 36.65C42.0008 36.6483 41.9879 36.6509 41.9768 36.6574C41.9657 36.6639 41.9572 36.6739 41.9524 36.6859L40.5536 40.8321L39.9602 38.7895C39.9563 38.7785 39.949 38.769 39.9392 38.7625C39.9295 38.7561 39.9179 38.7529 39.9063 38.7536H37.95C37.9367 38.7513 37.9231 38.7542 37.9118 38.7615C37.9004 38.7688 37.8923 38.78 37.8889 38.7931C37.8837 38.8119 37.8837 38.8317 37.8889 38.8505C37.8905 38.8616 37.8945 38.8722 37.9008 38.8815C37.907 38.8908 37.9152 38.8986 37.9248 38.9043C37.9414 38.9081 37.9586 38.9081 37.9752 38.9043L38.5326 38.9223Z" fill="#CADE6C"/>
<path d="M44.3541 38.8182C44.3547 38.2559 44.1937 37.7053 43.8902 37.2316C43.5869 36.7611 43.1427 36.3981 42.6208 36.1941C42.3343 36.0826 42.0294 36.0254 41.7218 36.0254C41.2073 36.0259 40.7053 36.1837 40.2834 36.4777C39.8608 36.1852 39.3592 36.0275 38.8449 36.0254C38.5362 36.0253 38.2301 36.0825 37.9423 36.1941C37.4215 36.3999 36.9779 36.7625 36.6729 37.2316C36.4344 37.6045 36.283 38.0264 36.2301 38.4657C36.1772 38.9051 36.224 39.3507 36.3672 39.7695C36.4434 39.9716 36.5488 40.1615 36.6801 40.3331C36.9637 40.6947 37.287 41.0234 37.6439 41.3131C38.1842 41.759 38.7524 42.1702 39.3448 42.5444C39.8195 42.846 40.1719 43.047 40.2294 43.0757H40.2942C40.8967 42.7324 41.4812 42.3586 42.0454 41.9557C42.5021 41.6372 42.9337 41.2844 43.3364 40.9003C43.519 40.7248 43.6874 40.5352 43.8399 40.3331C43.9725 40.1624 44.078 39.9723 44.1528 39.7695C44.254 39.4797 44.3074 39.1754 44.311 38.8685V38.8218L44.3541 38.8182ZM38.0682 38.9152H39.9382L40.5531 40.8859C40.5572 40.9062 40.5682 40.9245 40.5843 40.9376C40.6003 40.9507 40.6204 40.9578 40.6412 40.9578C40.6619 40.9578 40.682 40.9507 40.6981 40.9376C40.7141 40.9245 40.7252 40.9062 40.7293 40.8859L41.4485 38.8362L42.0311 37.2028L42.3907 38.8434V38.8828C42.3954 38.9035 42.4067 38.922 42.4229 38.9356C42.4392 38.9493 42.4594 38.9572 42.4806 38.9582H44.1492C44.1382 39.2105 44.0897 39.4597 44.0053 39.6977C43.9385 39.8817 43.8426 40.0538 43.7212 40.2075C43.4479 40.5566 43.1368 40.8744 42.7934 41.1552C42.2567 41.5949 41.6935 42.0013 41.1069 42.3721C40.7005 42.6306 40.3877 42.8136 40.2726 42.8783C39.6877 42.5482 39.12 42.1888 38.5716 41.8013C38.1291 41.4884 37.7097 41.1441 37.3166 40.7711C37.1422 40.6031 36.981 40.4219 36.8347 40.229C36.7147 40.0745 36.6189 39.9026 36.5506 39.7193C36.4174 39.3307 36.3737 38.9171 36.4229 38.5094C36.4721 38.1016 36.6129 37.7102 36.8347 37.3644C37.1155 36.9259 37.5285 36.5877 38.0143 36.3987C38.2812 36.2942 38.5654 36.2406 38.8521 36.2408C39.3493 36.2423 39.833 36.402 40.233 36.6967C40.2484 36.707 40.2666 36.7125 40.2852 36.7125C40.3037 36.7125 40.3219 36.707 40.3373 36.6967C40.7389 36.4024 41.2236 36.2428 41.7218 36.2408C42.0074 36.2406 42.2904 36.2942 42.5561 36.3987C43.043 36.5857 43.4566 36.9243 43.7356 37.3644C44.0124 37.7927 44.162 38.2906 44.1671 38.8003H42.5885L42.1569 36.8834C42.1536 36.8627 42.1431 36.8439 42.1274 36.8301C42.1116 36.8164 42.0916 36.8085 42.0706 36.808C42.0506 36.8073 42.0309 36.8128 42.0142 36.8237C41.9975 36.8346 41.9845 36.8504 41.9771 36.869L41.2579 38.8757L40.643 40.5952L40.1036 38.8649V38.8182C40.0983 38.7992 40.087 38.7824 40.0715 38.7701C40.056 38.7579 40.037 38.7508 40.0173 38.75H38.079C38.0523 38.75 38.0267 38.7606 38.0078 38.7795C37.9889 38.7983 37.9783 38.8239 37.9783 38.8505C37.9783 38.8772 37.9889 38.9028 38.0078 38.9216C38.0267 38.9405 38.0523 38.9511 38.079 38.9511L38.0682 38.9152Z" fill="#49B0E2"/>
<path d="M12.7584 32.4043C12.6171 32.2499 12.4456 32.1259 12.2545 32.0401C12.0634 31.9543 11.8567 31.9084 11.6472 31.9054H6.11644C5.94 31.9054 5.77079 31.8354 5.64603 31.7108C5.52126 31.5863 5.45117 31.4174 5.45117 31.2413C5.45117 31.0651 5.52126 30.8962 5.64603 30.7717C5.77079 30.6471 5.94 30.5771 6.11644 30.5771L6.64867 30.6741V30.8572H6.11644C6.01439 30.8572 5.91653 30.8976 5.84437 30.9696C5.77221 31.0417 5.73167 31.1394 5.73167 31.2413C5.73167 31.3431 5.77221 31.4408 5.84437 31.5129C5.91653 31.5849 6.01439 31.6254 6.11644 31.6254H11.6472C11.8972 31.6274 12.144 31.6814 12.3718 31.7841C12.5997 31.8867 12.8036 32.0356 12.9706 32.2213L12.7584 32.4043Z" fill="#094963"/>
<path d="M5.75084 27.9169C5.72184 27.9167 5.69352 27.908 5.66929 27.8921C5.64506 27.8762 5.62593 27.8537 5.61419 27.8272L5.86232 27.7015C5.84868 27.6785 5.82821 27.6603 5.80373 27.6493C5.77925 27.6384 5.75197 27.6353 5.72567 27.6405C5.69901 27.6449 5.67448 27.6578 5.65569 27.6772C5.63691 27.6966 5.62488 27.7215 5.62138 27.7482C5.62138 27.7267 5.57104 27.5759 5.35527 26.5887C5.27616 26.2297 5.28335 25.781 5.03522 25.4831C4.67561 25.0595 4.26207 25.2569 3.90605 25.5692L3.72266 25.361C4.1398 25.002 4.83025 24.7472 5.25458 25.2605C5.52069 25.58 5.5135 26.1328 5.61419 26.5241C5.71848 26.9944 5.81917 27.3139 5.85153 27.5221C5.8839 27.7303 5.94143 27.881 5.81557 27.9098C5.79504 27.918 5.77267 27.9204 5.75084 27.9169Z" fill="#094963"/>
<path d="M11.3853 33.822C11.7447 33.822 12.0362 33.5311 12.0362 33.1722C12.0362 32.8134 11.7447 32.5225 11.3853 32.5225C11.0258 32.5225 10.7344 32.8134 10.7344 33.1722C10.7344 33.5311 11.0258 33.822 11.3853 33.822Z" fill="#094963"/>
<path d="M6.96144 33.822C7.32091 33.822 7.61232 33.5311 7.61232 33.1722C7.61232 32.8134 7.32091 32.5225 6.96144 32.5225C6.60196 32.5225 6.31055 32.8134 6.31055 33.1722C6.31055 33.5311 6.60196 33.822 6.96144 33.822Z" fill="#094963"/>
<path d="M3.69129 26.0217C3.92962 26.0217 4.12283 25.8288 4.12283 25.5909C4.12283 25.353 3.92962 25.1602 3.69129 25.1602C3.45297 25.1602 3.25977 25.353 3.25977 25.5909C3.25977 25.8288 3.45297 26.0217 3.69129 26.0217Z" fill="#094963"/>
<path d="M11.9499 30.8741H6.61694C6.5123 30.8742 6.41074 30.8387 6.32903 30.7735C6.24731 30.7082 6.19032 30.6171 6.16743 30.5152C6.0164 29.7757 5.51654 27.331 5.40146 26.8787C5.37199 26.7985 5.36379 26.7121 5.37765 26.6278C5.39151 26.5435 5.42697 26.4643 5.48058 26.3977C5.55024 26.3327 5.63343 26.2839 5.72419 26.2547C5.81495 26.2256 5.91104 26.2168 6.0056 26.229H12.4785C12.5807 26.22 12.6837 26.233 12.7804 26.2671C12.8772 26.3011 12.9655 26.3555 13.0395 26.4264C13.0798 26.4715 13.1102 26.5245 13.1287 26.582C13.1473 26.6395 13.1537 26.7002 13.1474 26.7603C13.1222 26.8859 12.5325 29.8618 12.4282 30.2998C12.3059 30.8382 11.9571 30.867 11.9427 30.867L11.9499 30.8741ZM5.93728 26.4982C5.84805 26.4916 5.75958 26.5185 5.68915 26.5736C5.66801 26.6077 5.65535 26.6463 5.65222 26.6863C5.64909 26.7263 5.65559 26.7664 5.67117 26.8033C5.78984 27.2628 6.2897 29.7111 6.44074 30.4506C6.44903 30.4911 6.47109 30.5275 6.5032 30.5537C6.53531 30.5799 6.57549 30.5941 6.61694 30.5941H11.9391C11.9391 30.5941 12.0974 30.5511 12.1657 30.2352C12.2664 29.808 12.8489 26.868 12.8849 26.7064C12.8841 26.6637 12.8675 26.6227 12.8381 26.5915C12.7881 26.5517 12.7303 26.5225 12.6684 26.5058C12.6066 26.4891 12.5419 26.4853 12.4785 26.4946H5.93728V26.4982Z" fill="#CADE6C"/>
<path d="M10.8007 26.3442L10.3242 30.7158L10.6031 30.7461L11.0796 26.3744L10.8007 26.3442Z" fill="#CADE6C"/>
<path d="M7.7554 26.3388L7.47656 26.3691L7.95385 30.7407L8.23269 30.7104L7.7554 26.3388Z" fill="#CADE6C"/>
<path d="M8.24835 27.9639C8.2915 27.8885 8.33825 27.8131 8.3814 27.7341V27.709H5.73828V27.9854H8.21957C8.21957 27.9854 8.24115 27.971 8.24835 27.9639Z" fill="#CADE6C"/>
<path d="M10.2207 27.709H10.2387C10.328 27.7731 10.3907 27.8676 10.4149 27.9747H12.7955V27.6982L10.2207 27.709Z" fill="#CADE6C"/>
<path d="M8.22126 29.1553H6.03125V29.4353H8.30756C8.24356 29.3566 8.21262 29.2562 8.22126 29.1553Z" fill="#CADE6C"/>
<path d="M10.3459 29.1553C10.3472 29.2596 10.3071 29.3603 10.2344 29.4353H12.5035V29.1553H10.3459Z" fill="#CADE6C"/>
<path d="M9.26708 29.981C8.98868 29.9817 8.71634 29.8999 8.48456 29.746C8.25279 29.592 8.072 29.3728 7.96514 29.1162C7.85827 28.8596 7.83013 28.5771 7.88427 28.3045C7.93841 28.0319 8.07239 27.7815 8.26925 27.5849C8.4661 27.3884 8.71697 27.2547 8.99005 27.2006C9.26314 27.1466 9.54615 27.1747 9.80322 27.2814C10.0603 27.388 10.2799 27.5685 10.4341 27.7999C10.5883 28.0312 10.6703 28.3031 10.6695 28.581C10.6686 28.952 10.5205 29.3076 10.2577 29.5699C9.99491 29.8323 9.63874 29.9801 9.26708 29.981ZM9.26708 27.4682C9.04446 27.4682 8.82685 27.5341 8.64175 27.6575C8.45665 27.781 8.31237 27.9565 8.22718 28.1618C8.14199 28.3671 8.11971 28.593 8.16314 28.811C8.20657 29.0289 8.31376 29.2292 8.47117 29.3863C8.62859 29.5434 8.82915 29.6504 9.04749 29.6938C9.26583 29.7372 9.49214 29.7149 9.69781 29.6299C9.90348 29.5448 10.0793 29.4008 10.203 29.216C10.3266 29.0312 10.3927 28.814 10.3927 28.5918C10.3941 28.4433 10.366 28.2961 10.3101 28.1585C10.2542 28.0209 10.1715 27.8958 10.0668 27.7903C9.96215 27.6848 9.83759 27.6011 9.70032 27.544C9.56306 27.4868 9.4158 27.4574 9.26708 27.4574V27.4682Z" fill="#CADE6C"/>
<path d="M9.62764 29.1403C9.54995 29.1465 9.47181 29.1366 9.39815 29.1111C9.32449 29.0857 9.2569 29.0454 9.19964 28.9926C9.14237 28.9398 9.09668 28.8758 9.06542 28.8045C9.03417 28.7332 9.01803 28.6563 9.01803 28.5785C9.01803 28.5007 9.03417 28.4237 9.06542 28.3525C9.09668 28.2812 9.14237 28.2172 9.19964 28.1644C9.2569 28.1116 9.32449 28.0712 9.39815 28.0458C9.47181 28.0204 9.54995 28.0105 9.62764 28.0167C9.67182 28.0112 9.71651 28.0112 9.76069 28.0167C9.66273 27.9554 9.5501 27.9214 9.43452 27.9182C9.31894 27.9151 9.20462 27.9429 9.10345 27.9987C9.00228 28.0546 8.91795 28.1365 8.85922 28.236C8.8005 28.3354 8.76953 28.4487 8.76953 28.5641C8.76953 28.6795 8.8005 28.7929 8.85922 28.8923C8.91795 28.9917 9.00228 29.0736 9.10345 29.1295C9.20462 29.1854 9.31894 29.2132 9.43452 29.21C9.5501 29.2069 9.66273 29.1729 9.76069 29.1116C9.71773 29.1267 9.67303 29.1364 9.62764 29.1403Z" fill="#CADE6C"/>
<path d="M66.6172 24.0547H68.275L71.6121 31.8696L74.8846 24.0547H76.5495V36.0445H74.7875V28.567H74.7479L72.3134 34.3107H70.8426L68.408 28.567H68.3757V36.0445H66.6172V24.0547Z" fill="#094963"/>
<path d="M85.36 33.363H80.9512L80.0558 36.0445H78.1895L82.4184 24.0547H83.8928L88.1218 36.0445H86.2626L85.36 33.363ZM84.8602 31.7512L83.1772 26.5065H83.1448L81.4619 31.7512H84.8602Z" fill="#094963"/>
<path d="M88.0195 24.0547H89.8787L91.7055 32.5768H91.7379L93.9926 24.0547H95.2692L97.5204 32.5768H97.5527L99.3867 24.0547H101.246L98.3403 36.0445H96.8659L94.6471 27.3968H94.6147L92.3888 36.0445H90.9216L88.0195 24.0547Z" fill="#094963"/>
<path d="M103.1 24.0547H110.529V25.7634H104.862V29.1952H109.702V30.8035H104.862V34.3358H110.529V36.0445H103.1V24.0547Z" fill="#094963"/>
<path d="M112.475 24.0547H114.237V36.0445H112.475V24.0547Z" fill="#094963"/>
<path d="M116.83 24.0539H120.901C121.621 24.0298 122.335 24.206 122.961 24.5629C123.587 24.9198 124.101 25.4433 124.447 26.075C124.719 26.5054 124.9 26.9867 124.979 27.4894C125.036 27.9847 125.065 28.8355 125.065 30.0489C125.088 30.9496 125.044 31.8507 124.932 32.7448C124.895 32.9814 124.83 33.2128 124.738 33.434C124.642 33.6466 124.533 33.8528 124.411 34.0515C124.057 34.6312 123.562 35.1127 122.972 35.4515C122.311 35.8629 121.543 36.0691 120.764 36.0438H116.809L116.83 24.0539ZM118.592 34.3351H120.7C121.692 34.3351 122.411 33.9761 122.857 33.2868C123.06 32.9969 123.184 32.6592 123.217 32.3068C123.264 31.9155 123.289 31.1868 123.289 30.1135C123.289 29.0401 123.264 28.3186 123.217 27.8735C123.174 27.4721 123.015 27.0917 122.76 26.7786C122.534 26.4419 122.222 26.1707 121.857 25.9924C121.492 25.814 121.087 25.7348 120.682 25.7627H118.589L118.592 34.3351Z" fill="#094963"/>
<path d="M127.457 24.0547H129.219V36.0445H127.457V24.0547Z" fill="#094963"/>
<path d="M81.1058 41.6621H79.502V43.4857H78.8906V39.3359H79.502V41.1308H81.1058V39.3359H81.7207V43.5037H81.1058V41.6621Z" fill="#094963"/>
<path d="M83.0766 42.2255C83.0697 42.3252 83.0837 42.4252 83.1178 42.5191C83.1519 42.6131 83.2052 42.6989 83.2744 42.7711C83.3388 42.834 83.4154 42.883 83.4995 42.9151C83.5836 42.9472 83.6735 42.9617 83.7634 42.9578C83.8827 42.957 84.0004 42.9309 84.1089 42.8814C84.2174 42.8319 84.3141 42.7601 84.3928 42.6706L84.8135 43.0296C84.6864 43.1812 84.5274 43.3029 84.3477 43.3861C84.1681 43.4692 83.9723 43.5118 83.7742 43.5106C83.6242 43.5096 83.4752 43.4866 83.3319 43.4424C83.2582 43.4155 83.1872 43.3819 83.1197 43.3419C83.0478 43.304 82.9803 43.2582 82.9184 43.2055C82.7851 43.0763 82.6841 42.9177 82.6235 42.7424C82.5301 42.5062 82.4872 42.2531 82.4976 41.9993C82.4922 41.7556 82.5287 41.5128 82.6055 41.2814C82.6638 41.107 82.7582 40.9468 82.8824 40.8111C82.9914 40.7011 83.1226 40.6155 83.2672 40.5598C83.4008 40.5109 83.542 40.4854 83.6843 40.4844C83.9957 40.4811 84.2958 40.6011 84.5186 40.8183C84.6383 40.9388 84.7319 41.0826 84.7937 41.2406C84.8556 41.3987 84.8844 41.5677 84.8782 41.7373V42.2291L83.0766 42.2255ZM84.2921 41.7337C84.2985 41.5429 84.2345 41.3564 84.1123 41.2096C83.9963 41.1011 83.8433 41.0407 83.6843 41.0407C83.5254 41.0407 83.3724 41.1011 83.2564 41.2096C83.1356 41.3572 83.0718 41.5431 83.0766 41.7337H84.2921Z" fill="#094963"/>
<path d="M87.086 43.2241C87.0322 43.3252 86.9443 43.4041 86.8379 43.4467C86.6912 43.503 86.5346 43.5287 86.3776 43.5221C86.1041 43.5349 85.8366 43.4394 85.6332 43.2564C85.5434 43.1758 85.4724 43.0764 85.4252 42.9654C85.3779 42.8544 85.3557 42.7344 85.3599 42.6139C85.3561 42.4998 85.3751 42.3861 85.4158 42.2795C85.4566 42.1728 85.5183 42.0754 85.5972 41.9928C85.6903 41.9054 85.8 41.8375 85.9198 41.7931C86.0396 41.7487 86.1672 41.7287 86.2949 41.7344H87.0968V41.4221C87.0968 41.16 86.9026 41.0344 86.507 41.0415C86.3913 41.0367 86.2756 41.0525 86.1654 41.0882C86.0785 41.1246 86.0063 41.1891 85.9604 41.2713L85.5037 40.9123C85.6168 40.7645 85.7653 40.6475 85.9357 40.5722C86.106 40.4969 86.2926 40.4657 86.4783 40.4815C86.7821 40.4616 87.0847 40.5355 87.3449 40.6933C87.4595 40.7831 87.5499 40.9001 87.6077 41.0337C87.6654 41.1672 87.6888 41.3131 87.6758 41.458V43.4862H87.086V43.2241ZM87.086 42.2262H86.392C86.0539 42.2262 85.8885 42.3554 85.8921 42.5851C85.8924 42.6352 85.9042 42.6846 85.9266 42.7294C85.9491 42.7743 85.9816 42.8133 86.0216 42.8436C86.1402 42.9321 86.2877 42.9731 86.4351 42.9585C86.6112 42.9771 86.789 42.9473 86.9493 42.8723C87.0428 42.8077 87.086 42.6641 87.086 42.4416V42.2262Z" fill="#094963"/>
<path d="M88.5059 39.3359H89.0992V42.739C89.0992 42.8755 89.1711 42.9437 89.315 42.9437H89.5164V43.5037H89.261C89.0727 43.5114 88.8873 43.4544 88.736 43.3421C88.6591 43.2726 88.5995 43.1861 88.562 43.0895C88.5245 42.9929 88.5102 42.8888 88.5202 42.7857L88.5059 39.3359Z" fill="#094963"/>
<path d="M90.0569 39.6123H90.6323V40.5169H91.0566V40.9728H90.6323V42.7067C90.6323 42.8575 90.697 42.9293 90.8372 42.9257H91.0566V43.4857H90.7545C90.6624 43.4891 90.5705 43.4737 90.4845 43.4403C90.3986 43.407 90.3204 43.3565 90.2547 43.2918C90.1851 43.2214 90.1315 43.1369 90.0974 43.044C90.0632 42.9511 90.0495 42.852 90.0569 42.7534V40.9585H89.7656V40.5026H90.0569V39.6123Z" fill="#094963"/>
<path d="M91.6495 39.3359H92.2284V40.8508C92.3159 40.7363 92.4292 40.644 92.5592 40.5816C92.6892 40.5192 92.8322 40.4885 92.9764 40.4918C93.2193 40.4929 93.453 40.5852 93.6309 40.7503C93.7335 40.8503 93.814 40.9707 93.8673 41.1036C93.9205 41.2365 93.9454 41.379 93.9402 41.5221V43.4965H93.3612V41.7267C93.3674 41.641 93.3562 41.5548 93.3284 41.4734C93.3006 41.392 93.2567 41.317 93.1994 41.2529C93.1475 41.1976 93.0844 41.154 93.0143 41.1249C92.9443 41.0959 92.8688 41.082 92.793 41.0842C92.7167 41.0821 92.6407 41.0961 92.5701 41.1251C92.4995 41.1542 92.4358 41.1977 92.3831 41.2529C92.3244 41.3163 92.2794 41.3911 92.2509 41.4726C92.2224 41.5541 92.2111 41.6406 92.2176 41.7267V43.4965H91.6387L91.6495 39.3359Z" fill="#094963"/>
<path d="M96.2266 39.3359H96.8019V39.9282H96.2266V39.3359ZM96.2266 40.5349H96.8019V43.5037H96.2266V40.5349Z" fill="#094963"/>
<path d="M97.6143 40.517H98.1933V40.8329C98.2805 40.7181 98.3938 40.6257 98.5239 40.5633C98.6539 40.5009 98.797 40.4703 98.9413 40.4739C99.1841 40.4757 99.4175 40.5679 99.5957 40.7324C99.6983 40.8324 99.7789 40.9527 99.8321 41.0857C99.8854 41.2186 99.9102 41.3611 99.905 41.5042V43.4786H99.326V41.7088C99.3322 41.623 99.321 41.5369 99.2932 41.4555C99.2655 41.3741 99.2216 41.2991 99.1642 41.235C99.1123 41.1797 99.0492 41.1361 98.9792 41.107C98.9091 41.0779 98.8337 41.064 98.7579 41.0662C98.6809 41.0639 98.6044 41.0777 98.5332 41.1068C98.4619 41.1359 98.3976 41.1795 98.3443 41.235C98.287 41.2991 98.2431 41.3741 98.2153 41.4555C98.1875 41.5369 98.1763 41.623 98.1825 41.7088V43.4786H97.6035L97.6143 40.517Z" fill="#094963"/>
<path d="M102.93 41.7698L101.711 39.3359H102.362L103.218 41.1847L104.077 39.3359H104.728L103.509 41.7877V43.5037H102.93V41.7698Z" fill="#094963"/>
<path d="M104.494 41.9996C104.486 41.7579 104.511 41.5164 104.569 41.2816C104.614 41.1259 104.695 40.9831 104.807 40.8652C104.899 40.7553 105.013 40.665 105.141 40.5996C105.31 40.5208 105.494 40.4815 105.681 40.4847C105.871 40.4804 106.061 40.5197 106.234 40.5996C106.359 40.666 106.468 40.7577 106.554 40.8688C106.672 40.9819 106.756 41.1246 106.799 41.2816C106.852 41.5171 106.875 41.7583 106.867 41.9996C106.876 42.2408 106.853 42.4822 106.799 42.7175C106.754 42.8778 106.67 43.0245 106.554 43.1447C106.514 43.1919 106.468 43.2341 106.418 43.2703C106.365 43.3235 106.303 43.3661 106.234 43.396C106.063 43.4845 105.873 43.5289 105.681 43.5252C105.493 43.5277 105.307 43.4833 105.141 43.396C105.015 43.3344 104.901 43.2491 104.807 43.1447C104.697 43.0213 104.616 42.8755 104.569 42.7175C104.511 42.4829 104.485 42.2412 104.494 41.9996ZM106.292 41.9996C106.295 41.8447 106.286 41.6898 106.263 41.5365C106.246 41.4458 106.206 41.3607 106.148 41.2888C106.102 41.2191 106.037 41.1642 105.961 41.1308C105.873 41.0893 105.777 41.0684 105.681 41.0698C105.586 41.07 105.493 41.0908 105.407 41.1308C105.331 41.1671 105.264 41.2213 105.213 41.2888C105.162 41.3638 105.125 41.4479 105.105 41.5365C105.079 41.6882 105.068 41.8421 105.073 41.996C105.069 42.1474 105.079 42.299 105.105 42.4483C105.125 42.5404 105.161 42.628 105.213 42.7068C105.269 42.7678 105.334 42.8188 105.407 42.8575C105.492 42.9003 105.586 42.9225 105.681 42.9221C105.778 42.9242 105.874 42.902 105.961 42.8575C106.034 42.8219 106.098 42.7704 106.148 42.7068C106.206 42.6309 106.246 42.5423 106.263 42.4483C106.285 42.301 106.295 42.1521 106.292 42.0032V41.9996Z" fill="#094963"/>
<path d="M107.574 40.5176H108.16V42.2873C108.15 42.4593 108.208 42.6285 108.322 42.7576C108.375 42.8127 108.439 42.8563 108.509 42.8853C108.58 42.9144 108.656 42.9283 108.732 42.9263C108.809 42.9286 108.885 42.9147 108.955 42.8856C109.026 42.8566 109.09 42.8129 109.142 42.7576C109.256 42.6285 109.315 42.4593 109.304 42.2873V40.5176H109.879V43.4863H109.304V43.1704C109.217 43.2842 109.104 43.376 108.975 43.4384C108.845 43.5007 108.703 43.5319 108.56 43.5294C108.318 43.5223 108.087 43.4264 107.912 43.2602C107.805 43.1656 107.721 43.0479 107.666 42.9161C107.611 42.7842 107.587 42.6416 107.596 42.4991L107.574 40.5176Z" fill="#094963"/>
<path d="M110.722 40.517H111.301V40.8329C111.389 40.7181 111.503 40.6257 111.633 40.5633C111.764 40.5009 111.908 40.4703 112.052 40.4739C112.274 40.4744 112.489 40.5547 112.656 40.7001L112.236 41.217C112.13 41.1242 111.995 41.0709 111.855 41.0662C111.784 41.065 111.714 41.0776 111.649 41.1035C111.583 41.1294 111.524 41.168 111.473 41.217C111.41 41.2769 111.36 41.3502 111.329 41.4315C111.297 41.5129 111.284 41.6002 111.29 41.6873V43.4821H110.711L110.722 40.517Z" fill="#094963"/>
<path d="M116.682 41.6621H115.078V43.4857H114.467V39.3359H115.078V41.1308H116.682V39.3359H117.297V43.5037H116.682V41.6621Z" fill="#094963"/>
<path d="M119.727 43.2241C119.673 43.3252 119.585 43.4041 119.478 43.4467C119.332 43.503 119.175 43.5287 119.018 43.5221C118.745 43.5349 118.477 43.4394 118.274 43.2564C118.184 43.1758 118.113 43.0764 118.066 42.9654C118.019 42.8544 117.996 42.7344 118.001 42.6139C117.997 42.4998 118.016 42.3861 118.056 42.2795C118.097 42.1728 118.159 42.0754 118.238 41.9928C118.331 41.9054 118.441 41.8375 118.56 41.7931C118.68 41.7487 118.808 41.7287 118.935 41.7344H119.737V41.4221C119.737 41.16 119.547 41.0344 119.148 41.0415C119.032 41.0367 118.916 41.0525 118.806 41.0882C118.719 41.1246 118.647 41.1891 118.601 41.2713L118.144 40.9123C118.257 40.7645 118.406 40.6475 118.576 40.5722C118.747 40.4969 118.933 40.4657 119.119 40.4815C119.423 40.4616 119.725 40.5355 119.986 40.6933C120.1 40.7831 120.19 40.9001 120.248 41.0337C120.306 41.1672 120.329 41.3131 120.316 41.458V43.4862H119.737L119.727 43.2241ZM119.727 42.2262H119.033C118.695 42.2262 118.529 42.3554 118.533 42.5851C118.533 42.6352 118.545 42.6846 118.567 42.7294C118.59 42.7743 118.622 42.8133 118.662 42.8436C118.781 42.9321 118.928 42.9731 119.076 42.9585C119.252 42.9771 119.43 42.9473 119.59 42.8723C119.683 42.8077 119.727 42.6641 119.727 42.4416V42.2262Z" fill="#094963"/>
<path d="M121.147 40.517H121.726V40.8329C121.814 40.7183 121.927 40.6261 122.057 40.5637C122.187 40.5013 122.33 40.4705 122.474 40.4739C122.717 40.4749 122.951 40.5672 123.129 40.7323C123.232 40.8324 123.312 40.9527 123.365 41.0856C123.419 41.2185 123.443 41.3611 123.438 41.5041V43.4785H122.859V41.7088C122.865 41.623 122.854 41.5369 122.826 41.4555C122.799 41.3741 122.755 41.2991 122.697 41.2349C122.645 41.1797 122.582 41.1361 122.512 41.107C122.442 41.0779 122.367 41.064 122.291 41.0662C122.215 41.0642 122.139 41.0781 122.068 41.1072C121.998 41.1362 121.934 41.1798 121.881 41.2349C121.822 41.2983 121.777 41.3731 121.749 41.4546C121.72 41.5362 121.709 41.6227 121.716 41.7088V43.4785H121.137L121.147 40.517Z" fill="#094963"/>
<path d="M126.025 43.177C125.934 43.2875 125.82 43.3769 125.691 43.4389C125.562 43.5009 125.421 43.5341 125.277 43.536C125.128 43.5333 124.981 43.497 124.848 43.4299C124.715 43.3628 124.599 43.2665 124.508 43.1483C124.421 43.0386 124.366 42.9068 124.349 42.7678C124.287 42.2635 124.287 41.7535 124.349 41.2493C124.37 41.1178 124.424 40.994 124.508 40.8903C124.64 40.713 124.83 40.587 125.045 40.534C125.26 40.481 125.487 40.5041 125.687 40.5995C125.811 40.6689 125.925 40.7547 126.025 40.8544V39.3359H126.601V43.5037H126.025V43.177ZM125.453 41.0734C125.344 41.0672 125.236 41.0921 125.141 41.1452C125.062 41.1978 125 41.2728 124.964 41.3606C124.929 41.4542 124.907 41.5519 124.896 41.6513C124.896 41.7662 124.896 41.8811 124.896 42.0103C124.896 42.1396 124.896 42.2329 124.896 42.3406C124.907 42.4446 124.93 42.5471 124.964 42.6457C125.004 42.73 125.065 42.8029 125.141 42.8575C125.234 42.9149 125.344 42.9424 125.453 42.9365C125.569 42.9421 125.683 42.912 125.781 42.8503C125.858 42.7977 125.915 42.7205 125.943 42.6313C125.98 42.5344 126.006 42.4331 126.018 42.3298C126.018 42.2221 126.018 42.1144 126.018 42.0103C126.018 41.9062 126.018 41.7842 126.018 41.6801C126.005 41.5793 125.979 41.4804 125.943 41.3857C125.915 41.2975 125.858 41.2214 125.781 41.1703C125.684 41.1048 125.57 41.071 125.453 41.0734Z" fill="#094963"/>
<path d="M127.43 42.5663C127.546 42.6916 127.687 42.7905 127.845 42.8561C128.003 42.9218 128.173 42.9527 128.343 42.9468C128.486 42.9522 128.628 42.9187 128.753 42.8499C128.802 42.8213 128.842 42.7804 128.87 42.7312C128.898 42.682 128.912 42.6263 128.911 42.5699C128.916 42.527 128.91 42.4837 128.893 42.4441C128.876 42.4045 128.849 42.3699 128.814 42.3437C128.736 42.2978 128.647 42.273 128.555 42.2719L128.045 42.2288C127.825 42.2133 127.616 42.1249 127.451 41.9775C127.373 41.9009 127.311 41.8085 127.27 41.7065C127.229 41.6045 127.21 41.495 127.214 41.3852C127.207 41.2542 127.231 41.1234 127.286 41.004C127.34 40.8845 127.423 40.7801 127.527 40.6996C127.748 40.5392 128.017 40.4582 128.289 40.4698C128.41 40.4684 128.53 40.4768 128.649 40.495C128.749 40.5132 128.848 40.5396 128.944 40.574C129.119 40.6469 129.281 40.7488 129.422 40.8755L129.062 41.3063C128.951 41.224 128.831 41.1553 128.703 41.1016C128.567 41.0519 128.423 41.0276 128.279 41.0298C128.144 41.0165 128.008 41.0522 127.897 41.1304C127.86 41.1623 127.831 41.2021 127.812 41.2468C127.793 41.2916 127.784 41.3401 127.786 41.3888C127.785 41.4224 127.792 41.4557 127.807 41.4858C127.823 41.5158 127.845 41.5417 127.872 41.5611C127.956 41.6282 128.06 41.666 128.167 41.6688L128.645 41.7047C128.767 41.7036 128.888 41.728 129 41.7762C129.112 41.8244 129.213 41.8954 129.296 41.9847C129.425 42.1619 129.49 42.3765 129.483 42.595C129.484 42.7275 129.452 42.858 129.389 42.9747C129.326 43.0914 129.235 43.1904 129.124 43.2627C128.872 43.4311 128.574 43.5176 128.271 43.5104C128.035 43.5094 127.802 43.462 127.584 43.3708C127.366 43.2796 127.168 43.1465 127.002 42.9791L127.43 42.5663Z" fill="#094963"/>
<path d="M67.4945 41.7702L66.2754 39.3076H66.9263L67.7857 41.1635L68.6452 39.3076H69.2961L68.077 41.7666V43.4897H67.4945V41.7702Z" fill="#094963"/>
<path d="M69.0622 41.9957C69.0552 41.7541 69.0806 41.5126 69.1378 41.2777C69.1861 41.1239 69.2684 40.9828 69.3787 40.8649C69.4703 40.7554 69.5827 40.6651 69.7095 40.5993C69.8788 40.5179 70.0648 40.4774 70.2525 40.4808C70.4451 40.4763 70.636 40.5169 70.8099 40.5993C70.9326 40.6666 71.0413 40.7568 71.13 40.8649C71.2465 40.98 71.3308 41.1236 71.3745 41.2813C71.4289 41.5166 71.4531 41.7579 71.4464 41.9993C71.4539 42.2407 71.4297 42.4821 71.3745 42.7172C71.3286 42.8772 71.2447 43.0237 71.13 43.1444C71.0888 43.1919 71.043 43.2352 70.9933 43.2736C70.9408 43.3276 70.8769 43.3693 70.8063 43.3957C70.6361 43.4807 70.4483 43.5249 70.2579 43.5249C70.0676 43.5249 69.8798 43.4807 69.7095 43.3957C69.584 43.3341 69.4716 43.2488 69.3787 43.1444C69.2688 43.0208 69.1867 42.8751 69.1378 42.7172C69.0789 42.4814 69.0535 42.2385 69.0622 41.9957ZM70.8603 41.9957C70.8655 41.8396 70.8558 41.6833 70.8315 41.529C70.8154 41.4385 70.7771 41.3534 70.72 41.2813C70.673 41.2115 70.6068 41.1567 70.5294 41.1234C70.442 41.0815 70.3459 41.0606 70.2489 41.0623C70.1544 41.0621 70.061 41.0829 69.9756 41.1234C69.8991 41.1596 69.8325 41.2138 69.7815 41.2813C69.7301 41.3563 69.6935 41.4404 69.6736 41.529C69.6461 41.6806 69.634 41.8345 69.6376 41.9885C69.634 42.1413 69.646 42.2941 69.6736 42.4444C69.6931 42.5365 69.7297 42.6242 69.7815 42.7029C69.8376 42.7643 69.9031 42.8164 69.9756 42.8572C70.061 42.8977 70.1544 42.9185 70.2489 42.9183C70.3459 42.92 70.442 42.8991 70.5294 42.8572C70.6028 42.8193 70.6677 42.7667 70.72 42.7029C70.7772 42.6268 70.8154 42.5382 70.8315 42.4444C70.8565 42.2986 70.8673 42.1507 70.8639 42.0029L70.8603 41.9957Z" fill="#094963"/>
<path d="M72.1504 40.5137H72.7294V42.287C72.7187 42.459 72.7769 42.6281 72.8912 42.7573C73.0009 42.8654 73.1488 42.926 73.3029 42.926C73.4571 42.926 73.605 42.8654 73.7147 42.7573C73.8263 42.6268 73.883 42.4583 73.8729 42.287V40.5137H74.4555V43.4896H73.8729V43.1701C73.7855 43.2846 73.6721 43.3769 73.5421 43.4393C73.4121 43.5017 73.2691 43.5325 73.1249 43.5291C72.8818 43.5242 72.6494 43.4281 72.474 43.2598C72.3662 43.1658 72.2816 43.0482 72.2268 42.9162C72.1719 42.7843 72.1482 42.6414 72.1576 42.4988L72.1504 40.5137Z" fill="#094963"/>
<path d="M75.3074 40.5138H75.8863V40.8261C75.9663 40.7272 76.0654 40.6454 76.1777 40.5855C76.29 40.5256 76.4132 40.4888 76.5401 40.4774C76.6669 40.4661 76.7947 40.4803 76.9159 40.5192C77.0371 40.5581 77.1493 40.621 77.2456 40.7041L76.8213 41.221C76.7161 41.1274 76.581 41.074 76.4401 41.0702C76.3692 41.0689 76.2987 41.0815 76.2327 41.1074C76.1667 41.1333 76.1064 41.1719 76.0553 41.221C75.9915 41.2815 75.9419 41.3554 75.9102 41.4373C75.8784 41.5193 75.8654 41.6073 75.8719 41.6949V43.4898H75.293L75.3074 40.5138Z" fill="#094963"/>
<path d="M78.157 10.2981V10.3734C78.157 13.9632 75.4312 16.7596 72.0077 16.7596H71.8926C68.4296 16.7596 65.7793 13.9453 65.7793 10.2981V8.48522H67.1242C67.1242 9.65549 67.1242 10.3375 67.1422 10.5278C67.3724 13.6258 69.1884 15.4745 71.9681 15.4745C74.9781 15.4745 76.8516 13.3206 76.8516 9.88524H71.8567C72.1012 6.02982 74.0718 4.1416 77.4198 4.1416V5.29392C75.3556 5.29392 74.0503 6.37085 73.5037 8.54266H78.139L78.157 10.2981ZM71.382 19.7248H70.0406V18.1202H71.382V19.7248ZM73.8633 19.7248H72.5183V18.1202H73.8633V19.7248Z" fill="#094963"/>
<path d="M90.9506 13.6258H79.5762V12.3012H86.5813C86.5813 10.6212 86.2793 9.26067 85.6535 8.24117C84.8984 7.01347 83.726 6.3709 82.1546 6.27756H81.6439V5.02832C85.6356 5.02832 87.7357 7.45262 87.9442 12.3012H90.9542L90.9506 13.6258Z" fill="#094963"/>
<path d="M100.528 13.6257H90.1211V12.3011H93.0159C92.5125 11.3817 92.2792 10.3391 92.3428 9.29321C92.4064 8.24733 92.7644 7.2406 93.3755 6.38873C94.1127 5.46257 95.152 5.01026 96.4969 5.01026C97.3954 4.98711 98.2797 5.23753 99.0322 5.72822C99.4137 5.96634 99.7395 6.28346 99.9877 6.65815C100.236 7.03283 100.401 7.45633 100.471 7.90002L98.8632 8.06874C98.6366 6.72976 97.8419 6.06924 96.4969 6.06924C96.0796 6.04772 95.6646 6.14449 95.3 6.3484C94.9354 6.5523 94.636 6.85501 94.4364 7.22156C94.0656 7.97769 93.8901 8.81433 93.9257 9.65543C93.9257 10.8113 94.2098 11.698 94.796 12.3011H100.51L100.528 13.6257Z" fill="#094963"/>
<path d="M112.183 13.6261H109.572C109.213 15.5717 107.907 16.5912 105.732 16.7241V15.4569H105.901C107.113 15.4569 107.889 14.8322 108.213 13.6261H106.149C105.65 13.6391 105.154 13.5367 104.701 13.3269C104.248 13.117 103.85 12.8054 103.538 12.4163C102.838 11.5523 102.476 10.4646 102.517 9.35425C102.481 8.23052 102.865 7.13365 103.596 6.27782C103.929 5.8811 104.346 5.56324 104.818 5.3472C105.289 5.13116 105.803 5.02233 106.322 5.02857C108.422 5.02857 109.727 6.31372 109.727 8.80861V12.323H112.187L112.183 13.6261ZM108.364 12.3015V8.31681C108.373 8.03901 108.323 7.7625 108.219 7.50486C108.114 7.24722 107.957 7.01409 107.758 6.82029C107.558 6.62649 107.32 6.47626 107.059 6.37916C106.799 6.28206 106.52 6.24022 106.242 6.25628C105.888 6.25838 105.54 6.35163 105.232 6.52706C104.924 6.70248 104.666 6.95416 104.484 7.25783C104.085 7.83633 103.873 8.52276 103.876 9.22502C103.862 9.93503 104.046 10.635 104.408 11.2461C104.574 11.5695 104.826 11.841 105.136 12.031C105.446 12.221 105.803 12.322 106.167 12.323L108.364 12.3015Z" fill="#094963"/>
<path d="M115.859 13.6264H111.863V12.3018H115.859V13.6264Z" fill="#094963"/>
<path d="M119.607 13.6264H115.611V12.3018H119.607V13.6264Z" fill="#094963"/>
<path d="M129.994 10.9769C130.037 12.0755 129.674 13.1514 128.973 13.9995C128.618 14.4168 128.173 14.7475 127.67 14.9665C127.168 15.1855 126.622 15.287 126.074 15.2631C124.618 15.2631 123.521 14.7175 122.802 13.6226H119.148V12.298H122.252C122.136 11.8734 122.079 11.4349 122.083 10.9949C122.041 9.8693 122.427 8.7695 123.162 7.91487C123.531 7.51036 123.986 7.19247 124.494 6.98395C125.001 6.77543 125.548 6.68144 126.096 6.70871C126.643 6.68252 127.188 6.77924 127.692 6.99173C128.197 7.20423 128.646 7.52707 129.009 7.93641C129.697 8.79664 130.047 9.87756 129.994 10.9769ZM128.459 10.8441C128.491 10.1321 128.321 9.42553 127.97 8.80514C127.774 8.50492 127.504 8.26129 127.184 8.09871C126.865 7.93614 126.508 7.86035 126.15 7.87897C125.766 7.8595 125.383 7.94189 125.04 8.11779C124.698 8.29368 124.408 8.55683 124.201 8.88052C123.807 9.54085 123.617 10.3026 123.654 11.0703C123.623 11.8022 123.814 12.5264 124.201 13.1488C124.409 13.449 124.69 13.6915 125.018 13.8535C125.346 14.0155 125.709 14.0917 126.074 14.0749C127.664 14.0773 128.459 13.0016 128.459 10.8477V10.8441Z" fill="#094963"/>
<path d="M84.569 50.1048H81.2355C80.1998 50.1048 79.6855 49.5843 79.6855 48.5432V47.6601H80.0631V48.5432C80.0631 49.3437 80.4443 49.7279 81.2031 49.7279H82.7602C83.1522 49.7279 83.2924 49.5735 83.2924 48.9919V46.6299H83.652V49.1607C83.6597 49.3548 83.6254 49.5482 83.5513 49.7279H84.551L84.569 50.1048ZM82.3251 47.6314L82.0554 47.6494C82.054 47.6187 82.0465 47.5886 82.0335 47.5609C82.0205 47.5331 82.0021 47.5081 81.9793 47.4875C81.9566 47.4668 81.9301 47.4508 81.9011 47.4404C81.8722 47.43 81.8415 47.4254 81.8108 47.4268C81.631 47.4268 81.5411 47.5453 81.5411 47.7858C81.5369 47.8696 81.5596 47.9526 81.6058 48.0227H82.3251V48.2884H81.0449V48.0227H81.3074C81.2811 47.9489 81.2678 47.8712 81.2678 47.793C81.2583 47.7183 81.2653 47.6425 81.2882 47.5708C81.3111 47.4991 81.3494 47.4333 81.4004 47.3779C81.4514 47.3226 81.5139 47.279 81.5836 47.2502C81.6532 47.2214 81.7283 47.2082 81.8036 47.2114C81.9293 47.2004 82.0542 47.2389 82.1517 47.3188C82.2492 47.3986 82.3114 47.5135 82.3251 47.6386V47.6314Z" fill="#094963"/>
<path d="M85.7485 47.6748V49.1682C85.7485 49.7964 85.486 50.1123 84.9574 50.1123H84.4863V49.7533H84.8459C84.9359 49.7647 85.0273 49.7493 85.1085 49.7091C85.1898 49.6688 85.2573 49.6055 85.3026 49.5271C85.3678 49.363 85.3949 49.1863 85.3817 49.0102V47.6856L85.7485 47.6748ZM85.0293 50.9343H84.6481V50.4641H85.0293V50.9343ZM85.7485 50.9343H85.3602V50.4641H85.745L85.7485 50.9343Z" fill="#094963"/>
<path d="M89.5236 50.1051H86.2871V49.7461H88.2757C88.2948 49.3453 88.204 48.9469 88.0132 48.5938C87.9081 48.424 87.7616 48.2836 87.5874 48.1857C87.4132 48.0878 87.217 48.0355 87.0171 48.0338H86.8733V47.6748C88.0096 47.6748 88.603 48.364 88.6713 49.7425H89.5272L89.5236 50.1051Z" fill="#094963"/>
<path d="M90.7014 47.6748V49.1682C90.7014 49.7964 90.4389 50.1123 89.9102 50.1123H89.4355V49.7533H89.7952C89.8851 49.7647 89.9765 49.7493 90.0577 49.7091C90.139 49.6688 90.2065 49.6055 90.2519 49.5271C90.3171 49.363 90.3441 49.1863 90.331 49.0102V47.6856L90.7014 47.6748ZM89.9822 50.9343H89.601V50.4641H89.9822V50.9343ZM90.7014 50.9343H90.3202V50.4641H90.7014V50.9343Z" fill="#094963"/>
<path d="M96.7301 50.1049H96.651C96.4244 50.1159 96.201 50.0483 96.0188 49.9135C95.8365 49.7787 95.7067 49.585 95.6513 49.3654C95.6335 49.8038 95.4443 50.2177 95.1243 50.5183C94.8043 50.819 94.3789 50.9825 93.9395 50.9737C93.6983 50.9665 93.461 50.9108 93.2417 50.8101C93.0225 50.7094 92.8258 50.5657 92.6634 50.3874C92.5009 50.2092 92.3761 50.0002 92.2964 49.7728C92.2166 49.5454 92.1835 49.3043 92.1991 49.0639V48.5254H92.5802V48.9921C92.5802 49.9613 93.1017 50.6003 93.9575 50.6003C94.2984 50.6013 94.627 50.4733 94.8772 50.2422C95.1274 50.0111 95.2806 49.694 95.3061 49.3547C95.3177 49.2595 95.3079 49.1628 95.2773 49.0719C95.2467 48.981 95.1961 48.8981 95.1292 48.8292C95.0623 48.7604 94.9808 48.7073 94.8907 48.674C94.8006 48.6407 94.7041 48.628 94.6084 48.6367V48.31C94.7054 48.3029 94.8027 48.3029 94.8997 48.31C95.1114 48.3429 95.3106 48.4313 95.4768 48.5663C95.643 48.7013 95.7702 48.878 95.8455 49.0783C96.0433 49.5916 96.2231 49.7639 96.6258 49.7639H96.7373L96.7301 50.1049ZM93.8209 51.8388H93.4397V51.3829H93.8209V51.8388ZM94.5401 51.8388H94.1337V51.3829H94.5149L94.5401 51.8388Z" fill="#094963"/>
<path d="M99.6217 48.8952C99.6357 49.05 99.6172 49.2061 99.5673 49.3533C99.5174 49.5006 99.4372 49.6359 99.3319 49.7504C99.2266 49.865 99.0986 49.9563 98.9559 50.0186C98.8132 50.0809 98.659 50.1127 98.5033 50.1121H96.5938V49.7531H97.6438C97.4577 49.5149 97.3621 49.2186 97.3741 48.9167C97.3605 48.7603 97.3799 48.6028 97.4311 48.4543C97.4822 48.3059 97.5639 48.1698 97.671 48.0548C97.7781 47.9398 97.9081 47.8484 98.0527 47.7867C98.1973 47.7249 98.3532 47.6941 98.5105 47.6962C99.1937 47.6782 99.6217 48.1629 99.6217 48.8952ZM99.2081 48.8557C99.2081 48.3208 98.9672 47.9905 98.5249 47.9905C98.0825 47.9905 97.8056 48.3495 97.8056 48.9203C97.8056 49.4911 98.0717 49.7998 98.5249 49.7998C98.978 49.7998 99.2081 49.4839 99.2081 48.8557ZM98.7047 47.287H98.3163V46.8311H98.7047V47.287Z" fill="#094963"/>
<path d="M105.864 50.1048H102.53C101.5 50.1048 100.983 49.5843 100.98 48.5432V47.6601H101.358V48.5432C101.358 49.3437 101.739 49.7279 102.498 49.7279H104.059C104.451 49.7279 104.591 49.5735 104.591 48.9919V46.6299H104.951V49.1607C104.958 49.3548 104.924 49.5482 104.85 49.7279H105.85L105.864 50.1048ZM103.62 47.6314L103.354 47.6494C103.35 47.5872 103.322 47.5289 103.276 47.4872C103.229 47.4456 103.168 47.4239 103.106 47.4268C102.926 47.4268 102.836 47.5453 102.836 47.7858C102.832 47.8696 102.855 47.9526 102.901 48.0227H103.62V48.2884H102.351V48.0227H102.617C102.588 47.9497 102.573 47.8716 102.574 47.793C102.564 47.7183 102.571 47.6425 102.594 47.5708C102.617 47.4991 102.655 47.4333 102.706 47.3779C102.757 47.3226 102.82 47.279 102.889 47.2502C102.959 47.2214 103.034 47.2082 103.109 47.2114C103.233 47.2033 103.355 47.2431 103.451 47.3227C103.546 47.4023 103.606 47.5155 103.62 47.6386V47.6314Z" fill="#094963"/>
<path d="M107.609 50.1053H105.754V49.7463H106.114C106.203 49.7576 106.294 49.7425 106.375 49.703C106.456 49.6635 106.524 49.6012 106.57 49.5237C106.637 49.3586 106.665 49.1807 106.653 49.0032V47.6786H107.013V49.1719C107.02 49.366 106.986 49.5595 106.912 49.7391H107.609V50.1053ZM106.304 47.2801H105.923V46.8242H106.304V47.2801ZM107.023 47.2801H106.642V46.8242H107.023V47.2801Z" fill="#094963"/>
<path d="M111.798 50.1052H107.482V49.7462H110.755C110.755 49.678 110.755 49.6134 110.755 49.5524C110.755 48.6477 110.273 48.1164 109.431 48.1164C109.23 48.1035 109.029 48.1463 108.85 48.24C108.671 48.3337 108.521 48.4748 108.417 48.6477C108.363 48.5867 108.259 48.479 108.09 48.3139C108.252 48.1214 108.458 47.9697 108.689 47.8712C108.921 47.7726 109.173 47.73 109.424 47.7467C109.666 47.733 109.907 47.7712 110.132 47.8587C110.357 47.9461 110.561 48.0809 110.729 48.2538C110.898 48.4268 111.027 48.6338 111.108 48.8609C111.19 49.0881 111.221 49.33 111.201 49.5703V49.7462H111.791L111.798 50.1052Z" fill="#094963"/>
<path d="M116.009 50.105H111.646V49.7461H112.146C112.528 49.7461 112.715 49.4697 112.715 48.9097V47.9512H113.092V48.8845C113.495 48.1271 114.146 47.6855 114.743 47.6855C115.602 47.6855 116.034 48.2994 116.034 49.5091C116.034 49.6779 116.023 49.8861 116.009 50.105ZM115.649 49.7461C115.649 49.6276 115.667 49.5127 115.667 49.4086C115.667 48.5758 115.307 48.0158 114.732 48.0158C114.074 48.0158 113.293 48.7804 113.017 49.6527V49.7461H115.649Z" fill="#094963"/>
<path d="M76.5997 48.2598H66.2754V49.6023H76.5997V48.2598Z" fill="#094963"/>
<path d="M129.49 48.2598H119.166V49.6023H129.49V48.2598Z" fill="#094963"/>
</svg>
