<svg width="22" height="18" viewBox="0 0 22 18" fill="none" xmlns="http://www.w3.org/2000/svg">
<path d="M0 18V6.75C0 6.13125 0.2156 5.60138 0.6468 5.16037C1.07727 4.72012 1.595 4.5 2.2 4.5H5.5V2.25C5.5 1.63125 5.7156 1.10175 6.1468 0.6615C6.57727 0.2205 7.095 0 7.7 0H14.3C14.905 0 15.4231 0.2205 15.8543 0.6615C16.2848 1.10175 16.5 1.63125 16.5 2.25V4.5H19.8C20.405 4.5 20.9231 4.72012 21.3543 5.16037C21.7848 5.60138 22 6.13125 22 6.75V18H0ZM2.2 15.75H19.8V12.375H17.6V13.5H15.4V12.375H6.6V13.5H4.4V12.375H2.2V15.75ZM2.2 6.75V10.125H4.4V9H6.6V10.125H15.4V9H17.6V10.125H19.8V6.75H2.2ZM7.7 4.5H14.3V2.25H7.7V4.5Z" fill="#535353"/>
</svg>
