<svg width="32" height="32" viewBox="0 0 32 32" fill="none" xmlns="http://www.w3.org/2000/svg">
<path d="M9 7C5.7 7 3 9.7 3 13C3 14.984 3.977 16.75 5.469 17.844C2.832 19.152 1 21.864 1 25H3C3 21.676 5.676 19 9 19C12.324 19 15 21.676 15 25H17C17 21.676 19.676 19 23 19C26.324 19 29 21.676 29 25H31C31 21.863 29.168 19.152 26.531 17.844C27.2945 17.2877 27.916 16.5591 28.345 15.7174C28.774 14.8757 28.9984 13.9447 29 13C29 9.7 26.3 7 23 7C19.7 7 17 9.7 17 13C17 14.984 17.977 16.75 19.469 17.844C18.0079 18.5623 16.7986 19.7062 16 21.125C15.2014 19.7062 13.9921 18.5623 12.531 17.844C13.2945 17.2877 13.916 16.5591 14.345 15.7174C14.774 14.8757 14.9984 13.9447 15 13C15 9.7 12.3 7 9 7ZM9 9C11.223 9 13 10.777 13 13C13 15.223 11.223 17 9 17C6.777 17 5 15.223 5 13C5 10.777 6.777 9 9 9ZM23 9C25.223 9 27 10.777 27 13C27 15.223 25.223 17 23 17C20.777 17 19 15.223 19 13C19 10.777 20.777 9 23 9Z" fill="#4FA6D1"/>
</svg>
