<svg width="12" height="10" viewBox="0 0 12 10" fill="none" xmlns="http://www.w3.org/2000/svg">
<path d="M10.8164 2.32345C10.6593 1.95974 10.4328 1.63015 10.1496 1.35313C9.86617 1.07529 9.53199 0.85449 9.16523 0.702743C8.78493 0.544766 8.37704 0.463904 7.96523 0.464852C7.3875 0.464852 6.82383 0.623055 6.33398 0.921883C6.2168 0.993368 6.10547 1.07188 6 1.15743C5.89453 1.07188 5.7832 0.993368 5.66602 0.921883C5.17617 0.623055 4.6125 0.464852 4.03477 0.464852C3.61875 0.464852 3.21562 0.54454 2.83477 0.702743C2.4668 0.855086 2.13516 1.07423 1.85039 1.35313C1.56679 1.62984 1.34025 1.9595 1.18359 2.32345C1.0207 2.70196 0.9375 3.10391 0.9375 3.51759C0.9375 3.90782 1.01719 4.31446 1.17539 4.72813C1.30781 5.07384 1.49766 5.43243 1.74023 5.79454C2.12461 6.36759 2.65312 6.96524 3.30937 7.5711C4.39687 8.5754 5.47383 9.26915 5.51953 9.29727L5.79727 9.4754C5.92031 9.55392 6.07852 9.55392 6.20156 9.4754L6.4793 9.29727C6.525 9.26798 7.60078 8.5754 8.68945 7.5711C9.3457 6.96524 9.87422 6.36759 10.2586 5.79454C10.5012 5.43243 10.6922 5.07384 10.8234 4.72813C10.9816 4.31446 11.0613 3.90782 11.0613 3.51759C11.0625 3.10391 10.9793 2.70196 10.8164 2.32345Z" fill="#F57A63"/>
</svg>
