<svg width="18" height="20" viewBox="0 0 18 20" fill="none" xmlns="http://www.w3.org/2000/svg">
<path d="M3.4 6C3.55913 6 3.71174 5.93679 3.82426 5.82426C3.93679 5.71174 4 5.55913 4 5.4V1.6C4 1.44087 4.06321 1.28826 4.17574 1.17574C4.28826 1.06321 4.44087 1 4.6 1H13.4C13.4788 1 13.5568 1.01552 13.6296 1.04567C13.7024 1.07583 13.7685 1.12002 13.8243 1.17574C13.88 1.23145 13.9242 1.29759 13.9543 1.37039C13.9845 1.44319 14 1.52121 14 1.6V5.4C14 5.55913 14.0632 5.71174 14.1757 5.82426C14.2883 5.93679 14.4409 6 14.6 6H16.4C16.4788 6 16.5568 6.01552 16.6296 6.04567C16.7024 6.07583 16.7685 6.12002 16.8243 6.17574C16.88 6.23145 16.9242 6.29759 16.9543 6.37039C16.9845 6.44319 17 6.52121 17 6.6V18.4C17 18.4788 16.9845 18.5568 16.9543 18.6296C16.9242 18.7024 16.88 18.7685 16.8243 18.8243C16.7685 18.88 16.7024 18.9242 16.6296 18.9543C16.5568 18.9845 16.4788 19 16.4 19H1.6C1.44087 19 1.28826 18.9368 1.17574 18.8243C1.06321 18.7117 1 18.5591 1 18.4V6.6C1 6.44087 1.06321 6.28826 1.17574 6.17574C1.28826 6.06321 1.44087 6 1.6 6H3.4V6Z" stroke="#4FA6D1" stroke-width="1.5"/>
<path d="M6.992 6H8.992M10.992 6H8.992M8.992 6V4M8.992 6V8M13 15.01L13.01 14.999M13 11.01L13.01 10.999M9 11.01L9.01 10.999M5 11.01L5.01 10.999M5 15.01L5.01 14.999M9 15.01L9.01 14.999" stroke="#4FA6D1" stroke-width="1.5" stroke-linecap="round" stroke-linejoin="round"/>
</svg>
