<svg width="9" height="9" viewBox="0 0 9 9" fill="none" xmlns="http://www.w3.org/2000/svg">
<path d="M8.80547 8.79687C8.80547 8.90859 8.71406 9 8.60234 9L6.92656 8.99238L4.40273 5.98359L1.88145 8.98984L0.203125 8.99746C0.0914062 8.99746 0 8.90859 0 8.79434C0 8.74609 0.0177733 8.70039 0.048242 8.6623L3.35156 4.72676L0.048242 0.793749C0.0175609 0.756536 0.000537347 0.709945 0 0.661717C0 0.549998 0.0914062 0.458592 0.203125 0.458592L1.88145 0.466211L4.40273 3.475L6.92402 0.468749L8.5998 0.461132C8.71152 0.461132 8.80293 0.549999 8.80293 0.664257C8.80293 0.7125 8.78516 0.758204 8.75469 0.796289L5.45645 4.7293L8.75977 8.66484C8.79023 8.70039 8.80547 8.74863 8.80547 8.79687Z" fill="white"/>
</svg>
