<svg width="21" height="21" viewBox="0 0 21 21" fill="none" xmlns="http://www.w3.org/2000/svg">
<g clip-path="url(#clip0_3852_13197)">
<path d="M12.2368 16.2346L12.2347 16.2383L8.0269 13.8081L8.02922 13.8041L12.2368 16.2346Z" stroke="#4FA6D1"/>
<path d="M17.3269 18.2992L16.5956 18.9899L17.6015 18.99L20.0573 18.9903V20.2723H8.38259V18.9904H12.4143C15.6672 18.9904 18.3146 16.3446 18.3146 13.0916L18.3146 13.0914C18.3139 12.0995 18.0633 11.1238 17.586 10.2544C17.1087 9.3849 16.4201 8.64969 15.5837 8.11661L15.2313 7.892L15.0223 8.2539L12.6932 12.2875L12.515 12.1845L12.1687 11.9844L11.9685 12.3307L11.4225 13.2754L10.7936 12.9122L11.3391 11.9685L11.5394 11.622L11.1928 11.4219L11.0139 11.3187L16.6284 1.59295L16.6866 1.62652L17.033 1.82658L17.233 1.48009L17.6378 0.778833L18.5274 1.29237L18.123 1.99554L17.9239 2.34193L18.27 2.54149L18.3074 2.56302L16.0612 6.45111L15.8673 6.78678L16.1967 6.99112C18.2657 8.27452 19.5956 10.5593 19.5956 13.0913C19.5956 15.1441 18.7178 16.9855 17.3269 18.2992ZM6.12802 2.58048V2.98048H6.12834V3.28136L6.12834 8.57073L6.12835 8.57139C6.12865 8.75687 5.98538 8.89505 5.81749 8.89622C5.64436 8.89577 5.49608 8.75021 5.49608 8.57073V3.28136V2.98048H5.49641V2.58048V0.931344H6.12802V2.58048ZM2.68044 2.98048H2.68077V2.58048V0.931344H3.31336V2.58048V2.88136H3.31303V3.28136V8.57073C3.31303 8.75684 3.1693 8.89505 3.00152 8.89622C2.82863 8.89577 2.68044 8.75045 2.68044 8.57073V3.28136V2.98048Z" stroke="#4FA6D1" stroke-width="0.8"/>
</g>
<defs>
<clipPath id="clip0_3852_13197">
<rect width="21" height="21" fill="white"/>
</clipPath>
</defs>
</svg>
