<svg width="21" height="21" viewBox="0 0 21 21" fill="none" xmlns="http://www.w3.org/2000/svg">
<g clip-path="url(#clip0_3852_12697)">
<path d="M12.2368 16.2346L12.2347 16.2383L8.0269 13.8081L8.02922 13.8041L12.2368 16.2346Z" stroke="#4FA6D1"/>
<path d="M17.323 18.2992L16.5917 18.9899L17.5976 18.99L20.0533 18.9903V20.2723H8.37869V18.9904H12.4103C15.6633 18.9904 18.3107 16.3446 18.3107 13.0916L18.3107 13.0914C18.31 12.0995 18.0594 11.1238 17.5821 10.2544C17.1048 9.3849 16.4162 8.64969 15.5798 8.11661L15.2274 7.892L15.0184 8.2539L12.6893 12.2875L12.5111 12.1845L12.1648 11.9844L11.9646 12.3307L11.4186 13.2754L10.7897 12.9122L11.3352 11.9685L11.5355 11.622L11.1889 11.4219L11.01 11.3187L16.6245 1.59295L16.6827 1.62652L17.0291 1.82658L17.2291 1.48009L17.6339 0.778833L18.5235 1.29237L18.1191 1.99554L17.9199 2.34193L18.2661 2.54149L18.3035 2.56302L16.0573 6.45111L15.8633 6.78678L16.1928 6.99112C18.2618 8.27452 19.5917 10.5593 19.5917 13.0913C19.5917 15.1441 18.7139 16.9855 17.323 18.2992ZM6.12411 2.58048V2.98048H6.12444V3.28136L6.12444 8.57073L6.12444 8.57139C6.12474 8.75687 5.98148 8.89505 5.81358 8.89622C5.64046 8.89577 5.49217 8.75021 5.49217 8.57073V3.28136V2.98048H5.4925V2.58048V0.931344H6.12411V2.58048ZM2.67653 2.98048H2.67686V2.58048V0.931344H3.30945V2.58048V2.88136H3.30913V3.28136V8.57073C3.30913 8.75684 3.1654 8.89505 2.99761 8.89622C2.82472 8.89577 2.67653 8.75045 2.67653 8.57073V3.28136V2.98048Z" stroke="#4FA6D1" stroke-width="0.8"/>
</g>
<defs>
<clipPath id="clip0_3852_12697">
<rect width="21" height="21" fill="white"/>
</clipPath>
</defs>
</svg>
