<svg width="17" height="17" viewBox="0 0 17 17" fill="none" xmlns="http://www.w3.org/2000/svg">
<path d="M10.875 16H6.125C5.92609 16 5.73532 15.921 5.59467 15.7803C5.45402 15.6397 5.375 15.4489 5.375 15.25V12.375C5.375 12.1761 5.29598 11.9853 5.15533 11.8447C5.01468 11.704 4.82391 11.625 4.625 11.625H1.75C1.55109 11.625 1.36032 11.546 1.21967 11.4053C1.07902 11.2647 1 11.0739 1 10.875V6.125C1 5.92609 1.07902 5.73532 1.21967 5.59467C1.36032 5.45402 1.55109 5.375 1.75 5.375H4.625C4.82391 5.375 5.01468 5.29598 5.15533 5.15533C5.29598 5.01468 5.375 4.82391 5.375 4.625V1.75C5.375 1.55109 5.45402 1.36032 5.59467 1.21967C5.73532 1.07902 5.92609 1 6.125 1H10.875C11.0739 1 11.2647 1.07902 11.4053 1.21967C11.546 1.36032 11.625 1.55109 11.625 1.75V4.625C11.625 4.82391 11.704 5.01468 11.8447 5.15533C11.9853 5.29598 12.1761 5.375 12.375 5.375H15.25C15.4489 5.375 15.6397 5.45402 15.7803 5.59467C15.921 5.73532 16 5.92609 16 6.125V10.875C16 11.0739 15.921 11.2647 15.7803 11.4053C15.6397 11.546 15.4489 11.625 15.25 11.625H12.375C12.1761 11.625 11.9853 11.704 11.8447 11.8447C11.704 11.9853 11.625 12.1761 11.625 12.375V15.25C11.625 15.4489 11.546 15.6397 11.4053 15.7803C11.2647 15.921 11.0739 16 10.875 16Z" stroke="#4FA6D1" stroke-width="1.5"/>
</svg>
