<svg width="21" height="21" viewBox="0 0 21 21" fill="none" xmlns="http://www.w3.org/2000/svg">
<path d="M17.0769 18.0668L16.3456 18.7575L17.3515 18.7576L19.8073 18.7579V20.0399H8.13259V18.7579H12.1643C15.4172 18.7579 18.0646 16.1121 18.0646 12.8592L18.0646 12.8589C18.0639 11.8671 17.8133 10.8914 17.336 10.0219C16.8587 9.15248 16.1701 8.41727 15.3337 7.88419L14.9813 7.65957L14.7723 8.02148L12.4432 12.0551L12.265 11.9521L11.9187 11.752L11.7185 12.0983L11.1725 13.043L10.5436 12.6798L11.0891 11.7361L11.2894 11.3895L10.9428 11.1894L10.7639 11.0862L16.3784 1.36053L16.4366 1.3941L16.783 1.59416L16.983 1.24766L17.3878 0.546411L18.2774 1.05995L17.873 1.76311L17.6739 2.10951L18.02 2.30906L18.0574 2.33059L15.8112 6.21869L15.6173 6.55436L15.9467 6.7587C18.0157 8.0421 19.3456 10.3269 19.3456 12.8589C19.3456 14.9117 18.4678 16.7531 17.0769 18.0668ZM5.87802 2.34806V2.74806H5.87834V3.04894L5.87834 8.33831L5.87835 8.33897C5.87865 8.52445 5.73538 8.66263 5.56749 8.6638C5.39436 8.66335 5.24608 8.51779 5.24608 8.33831V3.04894V2.74806H5.24641V2.34806V0.698922H5.87802V2.34806ZM2.43044 2.74806H2.43077V2.34806V0.698922H3.06336V2.34806V2.64894H3.06303V3.04894V8.33831C3.06303 8.52442 2.9193 8.66263 2.75152 8.6638C2.57863 8.66335 2.43044 8.51803 2.43044 8.33831V3.04894V2.74806Z" stroke="#535353" stroke-width="0.8"/>
</svg>
