<svg width="20" height="22" viewBox="0 0 20 22" fill="none" xmlns="http://www.w3.org/2000/svg">
<g clip-path="url(#clip0_320_10430)">
<path d="M12.5368 14.1544L13.7868 16.6544C13.3129 18.1168 12.4551 19.3015 11.2132 20.2083C9.97141 21.1152 8.5866 21.5686 7.05882 21.5686C5.78431 21.5686 4.6058 21.252 3.52328 20.6189C2.44077 19.9857 1.58292 19.1279 0.949755 18.0453C0.316585 16.9628 0 15.7843 0 14.5098C0 13.031 0.426879 11.683 1.28064 10.4657C2.1344 9.24837 3.25572 8.38644 4.64461 7.8799L4.85294 9.48529C3.85621 9.92647 3.05964 10.6025 2.46324 11.5135C1.86683 12.4244 1.56863 13.4232 1.56863 14.5098C1.56863 16.0212 2.1058 17.3141 3.18015 18.3885C4.25449 19.4628 5.54739 20 7.05882 20C8.08824 20 9.03799 19.7345 9.90809 19.2034C10.7782 18.6724 11.4522 17.9555 11.9301 17.0527C12.4081 16.1499 12.6103 15.1838 12.5368 14.1544ZM19.2525 15.3799L19.9632 16.777L16.826 18.3456C16.7198 18.4028 16.6013 18.4314 16.4706 18.4314C16.1438 18.4314 15.9109 18.2884 15.7721 18.0024L12.8431 12.1569H7.05882C6.86275 12.1569 6.68913 12.0895 6.53799 11.9547C6.38685 11.8199 6.29902 11.6544 6.27451 11.4583L5.09804 1.91176C5.0817 1.77288 5.10621 1.60131 5.17157 1.39706C5.28595 0.980392 5.51879 0.643382 5.8701 0.386029C6.22141 0.128676 6.61765 0 7.05882 0C7.59804 0 8.05964 0.191993 8.44363 0.57598C8.82761 0.959967 9.01961 1.42157 9.01961 1.96078C9.01961 2.52451 8.80719 3.00449 8.38235 3.40074C7.95752 3.79698 7.46732 3.9665 6.91176 3.90931L7.3652 7.45098H12.549V9.01961H7.56127L7.75735 10.5882H13.3333C13.6601 10.5882 13.893 10.7312 14.0319 11.0172L16.826 16.5931L19.2525 15.3799Z" fill="#535353"/>
</g>
<defs>
<clipPath id="clip0_320_10430">
<rect width="20" height="21.5686" fill="white"/>
</clipPath>
</defs>
</svg>
