<svg width="20" height="25" viewBox="0 0 20 25" fill="none" xmlns="http://www.w3.org/2000/svg">
<path d="M13.374 15.866C13.374 15.866 12.0542 15.5651 12.679 14.2366C13.4509 13.1904 13.92 12.0035 13.9575 11.6153C13.9575 11.6153 15.1456 10.6711 15.2148 9.2532C15.2889 7.83923 14.9543 7.77324 14.9543 7.77324C15.4542 6.23117 15.6157 0.443305 11.935 1.13428C11.3217 -0.0797767 7.47669 -1.0318 5.68394 2.20276C4.79093 3.81568 4.45833 6.01767 5.15621 7.814C5.13025 7.94793 4.90916 7.68299 4.82841 8.51371C4.75055 9.31434 5.10814 10.4624 5.49649 10.9942C5.66567 11.2184 5.93579 11.3824 6.12516 11.4659C6.12516 11.4659 6.35778 12.8925 7.46035 14.2366C7.71412 15.3031 6.66539 15.866 6.66539 15.866C3.19235 16.5404 0 18.4872 0 20.5931V22.2245C0 24.5099 5.27252 25 10.0173 25C14.7631 25 20 23.6229 20 22.2245V20.5931C20 18.4872 16.8451 16.5404 13.374 15.866ZM16.2559 23.225H11.4496V20.3136H16.2559V23.225Z" fill="#535353"/>
</svg>
