<svg width="14" height="14" viewBox="0 0 14 14" fill="none" xmlns="http://www.w3.org/2000/svg">
<path d="M8.9 13H5.1C4.94087 13 4.78826 12.9368 4.67574 12.8243C4.56321 12.7117 4.5 12.5591 4.5 12.4V10.1C4.5 9.94087 4.43679 9.78826 4.32426 9.67574C4.21174 9.56321 4.05913 9.5 3.9 9.5H1.6C1.44087 9.5 1.28826 9.43679 1.17574 9.32426C1.06321 9.21174 1 9.05913 1 8.9V5.1C1 4.94087 1.06321 4.78826 1.17574 4.67574C1.28826 4.56321 1.44087 4.5 1.6 4.5H3.9C4.05913 4.5 4.21174 4.43679 4.32426 4.32426C4.43679 4.21174 4.5 4.05913 4.5 3.9V1.6C4.5 1.44087 4.56321 1.28826 4.67574 1.17574C4.78826 1.06321 4.94087 1 5.1 1H8.9C9.05913 1 9.21174 1.06321 9.32426 1.17574C9.43679 1.28826 9.5 1.44087 9.5 1.6V3.9C9.5 4.05913 9.56321 4.21174 9.67574 4.32426C9.78826 4.43679 9.94087 4.5 10.1 4.5H12.4C12.5591 4.5 12.7117 4.56321 12.8243 4.67574C12.9368 4.78826 13 4.94087 13 5.1V8.9C13 9.05913 12.9368 9.21174 12.8243 9.32426C12.7117 9.43679 12.5591 9.5 12.4 9.5H10.1C9.94087 9.5 9.78826 9.56321 9.67574 9.67574C9.56321 9.78826 9.5 9.94087 9.5 10.1V12.4C9.5 12.5591 9.43679 12.7117 9.32426 12.8243C9.21174 12.9368 9.05913 13 8.9 13V13Z" stroke="#4FA6D1" stroke-width="1.5"/>
</svg>
