<svg width="22" height="23" viewBox="0 0 22 23" fill="none" xmlns="http://www.w3.org/2000/svg">
<path d="M4.17018 16.0913V20.0328L8.06602 19.059L10.9993 22.0268L13.9327 19.059L17.8285 20.0328V16.0913L21.7702 15.0711L19.7993 11.1296L21.7702 7.18807L17.8285 6.16791V2.22637L13.9327 3.20016L10.9993 0.232422L8.06602 3.20016L4.17018 2.22637V6.16791L0.228516 7.18807L2.19935 11.1296L0.228516 15.0711L4.17018 16.0913ZM3.94102 10.2486L3.07018 8.44008L4.62852 8.06912C5.08685 7.97637 5.44588 7.75225 5.7056 7.39674C5.96532 7.04123 6.09518 6.63162 6.09518 6.16791V4.77678L7.56185 5.19412H8.06602C8.58546 5.19412 9.04379 4.99317 9.44102 4.59129L10.9993 3.01468L12.5577 4.59129C12.9549 4.99317 13.4132 5.19412 13.9327 5.19412C14.116 5.19412 14.2841 5.1632 14.4368 5.10137L15.9035 4.77678V6.16791C15.9035 6.63162 16.0334 7.04123 16.2931 7.39674C16.5528 7.75225 16.9118 7.97637 17.3702 8.06912L18.9285 8.44008L18.0577 10.2486C17.7521 10.8359 17.7521 11.4233 18.0577 12.0106L18.9285 13.8191L17.3702 14.1901C16.9118 14.2828 16.5528 14.507 16.2931 14.8625C16.0334 15.218 15.9035 15.6276 15.9035 16.0913V17.4824L14.4368 17.0651H13.9327C13.4132 17.0651 12.9549 17.266 12.5577 17.6679L10.9993 19.2445L9.44102 17.6679C9.04379 17.266 8.58546 17.0651 8.06602 17.0651C7.88268 17.0651 7.71463 17.096 7.56185 17.1578L6.09518 17.4824V16.0913C6.09518 15.6276 5.96532 15.218 5.7056 14.8625C5.44588 14.507 5.08685 14.2828 4.62852 14.1901L3.07018 13.8191L3.94102 12.0106C4.24657 11.4233 4.24657 10.8359 3.94102 10.2486ZM10.0368 14.5147L14.6202 9.83121C15.048 9.39842 15.048 8.93471 14.6202 8.44008C14.1618 8.0382 13.7035 8.0382 13.2452 8.44008L10.0368 11.7324L8.75352 10.434C8.29518 10.0322 7.83685 10.0322 7.37852 10.434C6.98129 10.8977 6.98129 11.3615 7.37852 11.8252L10.0368 14.5147Z" fill="#4FA6D1"/>
</svg>
