<svg width="22" height="23" viewBox="0 0 22 23" fill="none" xmlns="http://www.w3.org/2000/svg">
<g clip-path="url(#clip0_3852_23135)">
<path d="M4.17079 16.0913V20.0328L8.06663 19.059L11 22.0268L13.9333 19.059L17.8291 20.0328V16.0913L21.7708 15.0711L19.8 11.1296L21.7708 7.18807L17.8291 6.16791V2.22637L13.9333 3.20016L11 0.232422L8.06663 3.20016L4.17079 2.22637V6.16791L0.229126 7.18807L2.19996 11.1296L0.229126 15.0711L4.17079 16.0913ZM3.94163 10.2486L3.07079 8.44008L4.62913 8.06912C5.08746 7.97637 5.44649 7.75225 5.70621 7.39674C5.96593 7.04123 6.09579 6.63162 6.09579 6.16791V4.77678L7.56246 5.19412H8.06663C8.58607 5.19412 9.0444 4.99317 9.44163 4.59129L11 3.01468L12.5583 4.59129C12.9555 4.99317 13.4138 5.19412 13.9333 5.19412C14.1166 5.19412 14.2847 5.1632 14.4375 5.10137L15.9041 4.77678V6.16791C15.9041 6.63162 16.034 7.04123 16.2937 7.39674C16.5534 7.75225 16.9125 7.97637 17.3708 8.06912L18.9291 8.44008L18.0583 10.2486C17.7527 10.8359 17.7527 11.4233 18.0583 12.0106L18.9291 13.8191L17.3708 14.1901C16.9125 14.2828 16.5534 14.507 16.2937 14.8625C16.034 15.218 15.9041 15.6276 15.9041 16.0913V17.4824L14.4375 17.0651H13.9333C13.4138 17.0651 12.9555 17.266 12.5583 17.6679L11 19.2445L9.44163 17.6679C9.0444 17.266 8.58607 17.0651 8.06663 17.0651C7.88329 17.0651 7.71524 17.096 7.56246 17.1578L6.09579 17.4824V16.0913C6.09579 15.6276 5.96593 15.218 5.70621 14.8625C5.44649 14.507 5.08746 14.2828 4.62913 14.1901L3.07079 13.8191L3.94163 12.0106C4.24718 11.4233 4.24718 10.8359 3.94163 10.2486ZM10.0375 14.5147L14.6208 9.83121C15.0486 9.39842 15.0486 8.93471 14.6208 8.44008C14.1625 8.0382 13.7041 8.0382 13.2458 8.44008L10.0375 11.7324L8.75413 10.434C8.29579 10.0322 7.83746 10.0322 7.37913 10.434C6.9819 10.8977 6.9819 11.3615 7.37913 11.8252L10.0375 14.5147Z" fill="#535353"/>
</g>
<defs>
<clipPath id="clip0_3852_23135">
<rect width="22" height="23" fill="white"/>
</clipPath>
</defs>
</svg>
