<svg width="20" height="22" viewBox="0 0 20 22" fill="none" xmlns="http://www.w3.org/2000/svg">
<path d="M6.08695 10C4.93384 10 3.82795 9.56101 3.01258 8.77961C2.1972 7.99821 1.73913 6.9384 1.73913 5.83333V2.5C1.73913 2.27899 1.83074 2.06702 1.99382 1.91074C2.15689 1.75446 2.37807 1.66667 2.60869 1.66667H3.47826C3.70888 1.66667 3.93006 1.57887 4.09313 1.42259C4.25621 1.26631 4.34782 1.05435 4.34782 0.833333C4.34782 0.61232 4.25621 0.400358 4.09313 0.244078C3.93006 0.0877973 3.70888 0 3.47826 0H2.60869C1.91683 0 1.25329 0.263392 0.764069 0.732233C0.274844 1.20107 0 1.83696 0 2.5V5.83333C0.00111776 6.77478 0.240671 7.7019 0.698086 8.53507C1.1555 9.36823 1.81711 10.0826 2.62609 10.6167C3.40333 11.2734 4.03366 12.0742 4.47903 12.9708C4.9244 13.8674 5.17557 14.8411 5.21739 15.8333C5.21739 17.3804 5.85869 18.8642 7.00022 19.9581C8.14174 21.0521 9.68998 21.6667 11.3043 21.6667C12.9187 21.6667 14.4669 21.0521 15.6085 19.9581C16.75 18.8642 17.3913 17.3804 17.3913 15.8333V14.8833C18.211 14.6805 18.9254 14.1981 19.4005 13.5267C19.8757 12.8552 20.0789 12.0407 19.9723 11.2358C19.8656 10.431 19.4563 9.69106 18.8211 9.15473C18.1858 8.61841 17.3683 8.32251 16.5217 8.32251C15.6751 8.32251 14.8576 8.61841 14.2224 9.15473C13.5872 9.69106 13.1779 10.431 13.0712 11.2358C12.9645 12.0407 13.1678 12.8552 13.6429 13.5267C14.1181 14.1981 14.8325 14.6805 15.6522 14.8833V15.8333C15.6522 16.9384 15.1941 17.9982 14.3787 18.7796C13.5633 19.561 12.4575 20 11.3043 20C10.1512 20 9.04534 19.561 8.22997 18.7796C7.41459 17.9982 6.95652 16.9384 6.95652 15.8333C7.00054 14.8399 7.25442 13.8654 7.70282 12.9687C8.15122 12.072 8.7848 11.2719 9.56521 10.6167C10.371 10.0807 11.0292 9.36557 11.4835 8.53252C11.9378 7.69946 12.1747 6.7733 12.1739 5.83333V2.5C12.1739 1.83696 11.8991 1.20107 11.4098 0.732233C10.9206 0.263392 10.2571 0 9.56521 0H8.69565C8.46503 0 8.24385 0.0877973 8.08077 0.244078C7.9177 0.400358 7.82608 0.61232 7.82608 0.833333C7.82608 1.05435 7.9177 1.26631 8.08077 1.42259C8.24385 1.57887 8.46503 1.66667 8.69565 1.66667H9.56521C9.79584 1.66667 10.017 1.75446 10.1801 1.91074C10.3432 2.06702 10.4348 2.27899 10.4348 2.5V5.83333C10.4348 6.38051 10.3223 6.92232 10.1038 7.42785C9.88532 7.93337 9.56506 8.3927 9.16133 8.77961C8.7576 9.16652 8.2783 9.47344 7.75079 9.68283C7.22329 9.89223 6.65792 10 6.08695 10M16.5217 13.3333C16.0605 13.3333 15.6181 13.1577 15.292 12.8452C14.9658 12.5326 14.7826 12.1087 14.7826 11.6667C14.7826 11.2246 14.9658 10.8007 15.292 10.4882C15.6181 10.1756 16.0605 10 16.5217 10C16.983 10 17.4253 10.1756 17.7515 10.4882C18.0776 10.8007 18.2609 11.2246 18.2609 11.6667C18.2609 12.1087 18.0776 12.5326 17.7515 12.8452C17.4253 13.1577 16.983 13.3333 16.5217 13.3333Z" fill="#535353"/>
</svg>
