<svg width="21" height="21" viewBox="0 0 21 21" fill="none" xmlns="http://www.w3.org/2000/svg">
<path d="M12.3197 1.3125C12.4587 1.3125 12.594 1.35661 12.7063 1.43845C12.8186 1.5203 12.902 1.63566 12.9445 1.76794L13.6664 4.011C13.9695 4.15931 14.2596 4.326 14.5365 4.51369L16.8413 4.01756C16.9772 3.98855 17.1188 4.00342 17.2457 4.06003C17.3726 4.11664 17.4782 4.21206 17.5474 4.33256L19.3665 7.48125C19.436 7.60168 19.4654 7.74106 19.4506 7.87929C19.4357 8.01752 19.3773 8.14746 19.2839 8.25037L17.7023 9.996C17.7253 10.3307 17.7253 10.6666 17.7023 11.0014L19.2839 12.7496C19.3773 12.8525 19.4357 12.9825 19.4506 13.1207C19.4654 13.2589 19.436 13.3983 19.3665 13.5188L17.5474 16.6687C17.478 16.789 17.3723 16.8842 17.2454 16.9405C17.1185 16.9969 16.977 17.0116 16.8413 16.9824L14.5365 16.4863C14.2609 16.6727 13.9695 16.8407 13.6677 16.989L12.9445 19.2321C12.902 19.3643 12.8186 19.4797 12.7063 19.5616C12.594 19.6434 12.4587 19.6875 12.3197 19.6875H8.68147C8.54254 19.6875 8.40718 19.6434 8.29491 19.5616C8.18264 19.4797 8.09924 19.3643 8.05673 19.2321L7.33616 16.9903C7.03379 16.8425 6.74214 16.6736 6.46335 16.485L4.15991 16.9824C4.02402 17.0115 3.88243 16.9966 3.75553 16.94C3.62863 16.8834 3.52298 16.7879 3.45379 16.6674L1.63466 13.5188C1.5652 13.3983 1.53577 13.2589 1.55064 13.1207C1.5655 12.9825 1.62387 12.8525 1.71735 12.7496L3.29891 11.0014C3.276 10.6675 3.276 10.3325 3.29891 9.99862L1.71735 8.25037C1.62387 8.14746 1.5655 8.01752 1.55064 7.87929C1.53577 7.74106 1.5652 7.60168 1.63466 7.48125L3.45379 4.33125C3.52317 4.21099 3.62891 4.11584 3.75579 4.05947C3.88267 4.0031 4.02416 3.98843 4.15991 4.01756L6.46335 4.515C6.7416 4.32731 7.03298 4.158 7.33616 4.00969L8.05804 1.76794C8.10041 1.63609 8.18342 1.52103 8.29516 1.43922C8.40691 1.35742 8.54167 1.31306 8.68016 1.3125H12.3184H12.3197ZM11.8394 2.625H9.16185L8.41635 4.94419L7.91366 5.18963C7.66654 5.31056 7.42798 5.44825 7.19966 5.60175L6.73504 5.91675L4.35154 5.40225L3.01279 7.72275L4.64685 9.53137L4.60747 10.0879C4.58862 10.3623 4.58862 10.6377 4.60747 10.9121L4.64685 11.4686L3.01016 13.2773L4.35022 15.5977L6.73373 15.0846L7.19835 15.3983C7.42667 15.5517 7.66523 15.6894 7.91235 15.8104L8.41504 16.0558L9.16185 18.375H11.842L12.5901 16.0545L13.0915 15.8104C13.3383 15.6897 13.5765 15.552 13.8042 15.3983L14.2675 15.0846L16.6523 15.5977L17.991 13.2773L16.3557 11.4686L16.395 10.9121C16.414 10.6373 16.414 10.3614 16.395 10.0866L16.3557 9.53006L17.9924 7.72275L16.6523 5.40225L14.2675 5.91412L13.8042 5.60175C13.5765 5.44794 13.3383 5.31023 13.0915 5.18963L12.5901 4.9455L11.8407 2.625H11.8394ZM10.5006 6.5625C11.5449 6.5625 12.5464 6.97734 13.2848 7.71577C14.0233 8.45419 14.4381 9.45571 14.4381 10.5C14.4381 11.5443 14.0233 12.5458 13.2848 13.2842C12.5464 14.0227 11.5449 14.4375 10.5006 14.4375C9.45631 14.4375 8.45479 14.0227 7.71637 13.2842C6.97794 12.5458 6.5631 11.5443 6.5631 10.5C6.5631 9.45571 6.97794 8.45419 7.71637 7.71577C8.45479 6.97734 9.45631 6.5625 10.5006 6.5625ZM10.5006 7.875C9.80441 7.875 9.13673 8.15156 8.64444 8.64384C8.15216 9.13613 7.8756 9.80381 7.8756 10.5C7.8756 11.1962 8.15216 11.8639 8.64444 12.3562C9.13673 12.8484 9.80441 13.125 10.5006 13.125C11.1968 13.125 11.8645 12.8484 12.3568 12.3562C12.849 11.8639 13.1256 11.1962 13.1256 10.5C13.1256 9.80381 12.849 9.13613 12.3568 8.64384C11.8645 8.15156 11.1968 7.875 10.5006 7.875Z" fill="#193F52"/>
</svg>
