<svg width="32" height="32" viewBox="0 0 32 32" fill="none" xmlns="http://www.w3.org/2000/svg">
<g clip-path="url(#clip0_6457_12538)">
<path d="M16.4346 0.867188C13.0822 0.867188 10.3547 3.59468 10.3547 6.94705V17.2793C10.3547 20.6316 13.0822 23.3591 16.4346 23.3591C19.787 23.3591 22.5145 20.6158 22.5145 17.2441V6.94705C22.5145 3.59468 19.7873 0.867188 16.4346 0.867188ZM20.4058 17.2441C20.4058 19.4532 18.6244 21.2505 16.4346 21.2505C14.2448 21.2505 12.4634 19.4687 12.4634 17.2793V6.94705C12.4634 4.75722 14.2448 2.97583 16.4346 2.97583C18.6244 2.97583 20.4058 4.75728 20.4058 6.94705V17.2441Z" fill="white"/>
<path d="M17.489 26.417H15.3804V31.1965H17.489V26.417Z" fill="white"/>
<path d="M20.7924 29.8955H12.0767C11.4944 29.8955 11.0225 30.3675 11.0225 30.9498C11.0225 31.5321 11.4944 32.0041 12.0767 32.0041H20.7924C21.3747 32.0041 21.8467 31.5321 21.8467 30.9498C21.8467 30.3675 21.3747 29.8955 20.7924 29.8955Z" fill="white"/>
<path d="M25.326 12.0781C24.7437 12.0781 24.2717 12.5501 24.2717 13.1324V17.2794C24.2717 21.6007 20.7563 25.1164 16.4346 25.1164C12.113 25.1164 8.59759 21.6007 8.59759 17.2794V13.1324C8.59759 12.55 8.12561 12.0781 7.5433 12.0781C6.961 12.0781 6.48901 12.5501 6.48901 13.1324V17.2794C6.48901 22.7636 10.9505 27.225 16.4346 27.225C21.9188 27.225 26.3803 22.7635 26.3803 17.2794V13.1324C26.3803 12.5501 25.9083 12.0781 25.326 12.0781Z" fill="white"/>
<path d="M29.2694 3.60092C28.8575 3.18902 28.1904 3.18902 27.7785 3.60092L3.5997 27.7798C3.1878 28.1913 3.1878 28.859 3.5997 29.2706C3.80531 29.4765 4.07521 29.5795 4.34511 29.5795C4.61464 29.5795 4.8849 29.4766 5.09052 29.2706L29.2694 5.09174C29.6813 4.6802 29.6813 4.01245 29.2694 3.60092Z" fill="white"/>
</g>
<defs>
<clipPath id="clip0_6457_12538">
<rect width="31.1373" height="31.1373" fill="white" transform="translate(0.865967 0.867188)"/>
</clipPath>
</defs>
</svg>
