<svg width="41" height="19" viewBox="0 0 41 19" fill="none" xmlns="http://www.w3.org/2000/svg">
<path d="M1.42631 6.60403C4.75969 3.82568 8.39995 1.92299 12.4952 1.09057C22.4001 -0.920225 31.1093 1.53381 38.5379 8.58239C39.6067 9.58779 40.1253 10.7878 40.0512 12.2472C40.0194 13.3391 39.903 14.431 39.7337 15.5121C39.5962 16.431 39.0459 17.0796 38.2311 17.4796C36.8554 18.1499 35.4903 18.4201 34.1146 17.512C32.5802 16.5066 31.0458 15.5229 29.5114 14.5175C28.9293 14.1391 28.6013 13.5661 28.5907 12.8634C28.5695 11.7391 28.5801 10.6256 28.6225 9.5013C28.6436 9.04725 28.5061 8.82023 28.1039 8.64726C25.0139 7.34997 21.7864 6.73376 18.4636 6.90673C16.453 7.01484 14.4741 7.41483 12.4741 7.6851C12.0296 7.74997 11.8815 7.9878 11.8497 8.45266C11.7862 9.49049 11.6804 10.5283 11.5534 11.5661C11.4582 12.377 11.0561 13.004 10.3259 13.3607C8.60102 14.1932 6.89729 15.1121 5.11949 15.8256C2.70675 16.7985 0.177619 15.0796 0.0929602 12.4418C0.0612139 11.2851 0.135289 10.0851 0.368095 8.96077C0.526829 8.14996 1.05594 7.39321 1.42631 6.60403Z" fill="white"/>
</svg>
