<?xml version="1.0" encoding="UTF-8"?>
<svg width="24px" height="24px" viewBox="0 0 24 24" version="1.1" xmlns="http://www.w3.org/2000/svg">
    <g stroke="none" stroke-width="1" fill="none" fill-rule="evenodd">
        <path d="M12,2 C14.209139,2 16,3.790861 16,6 L16,8 L18,8 C19.1045695,8 20,8.8954305 20,10 L20,20 C20,21.1045695 19.1045695,22 18,22 L6,22 C4.8954305,22 4,21.1045695 4,20 L4,10 C4,8.8954305 4.8954305,8 6,8 L8,8 L8,6 C8,3.790861 9.790861,2 12,2 Z M12,4 C10.8954305,4 10,4.8954305 10,6 L10,8 L14,8 L14,6 C14,4.8954305 13.1045695,4 12,4 Z M6,10 L6,20 L18,20 L18,10 L6,10 Z M12,14 C12.5522847,14 13,14.4477153 13,15 L13,17 C13,17.5522847 12.5522847,18 12,18 C11.4477153,18 11,17.5522847 11,17 L11,15 C11,14.4477153 11.4477153,14 12,14 Z" fill="currentColor" fill-rule="nonzero"></path>
    </g>
</svg> 