<svg width="16" height="22" viewBox="0 0 16 22" fill="none" xmlns="http://www.w3.org/2000/svg">
<path d="M7.88045 9.95507C7.77949 9.94498 7.65834 9.94498 7.54728 9.95507C5.14446 9.87431 3.23633 7.9056 3.23633 5.48258C3.23633 3.00909 5.23532 1 7.71891 1C10.1924 1 12.2015 3.00909 12.2015 5.48258C12.1914 7.9056 10.2833 9.87431 7.88045 9.95507Z" stroke="#0D0D0D" stroke-width="1.5" stroke-linecap="round" stroke-linejoin="round"/>
<path d="M2.83241 13.6806C0.389197 15.3161 0.389197 17.9814 2.83241 19.6069C5.60878 21.4645 10.162 21.4645 12.9384 19.6069C15.3816 17.9713 15.3816 15.306 12.9384 13.6806C10.1721 11.833 5.61888 11.833 2.83241 13.6806Z" stroke="#0D0D0D" stroke-width="1.5" stroke-linecap="round" stroke-linejoin="round"/>
</svg>
