<svg width="13" height="13" viewBox="0 0 13 13" fill="none" xmlns="http://www.w3.org/2000/svg">
<path d="M3.875 9.21875C3.95551 9.28079 4.05462 9.31382 4.15625 9.3125C4.22902 9.3125 4.30079 9.29556 4.36588 9.26301C4.43097 9.23047 4.48759 9.18322 4.53125 9.125C4.81506 8.74659 5.18307 8.43946 5.60615 8.22792C6.02922 8.01638 6.49574 7.90625 6.96875 7.90625C7.44176 7.90625 7.90828 8.01638 8.33135 8.22792C8.75443 8.43946 9.12244 8.74659 9.40625 9.125C9.48178 9.22317 9.59268 9.28792 9.71529 9.30544C9.83791 9.32295 9.96251 9.29184 10.0625 9.21875C10.1117 9.18182 10.1532 9.13554 10.1846 9.08257C10.216 9.02961 10.2366 8.97098 10.2453 8.91004C10.254 8.8491 10.2506 8.78705 10.2353 8.72742C10.2201 8.66778 10.1932 8.61175 10.1562 8.5625C9.74141 8.00564 9.18786 7.56725 8.55078 7.29102C8.89934 6.97213 9.1434 6.55535 9.25095 6.09534C9.35851 5.63532 9.32453 5.15354 9.15348 4.71317C8.98244 4.27279 8.6823 3.89439 8.29243 3.62758C7.90257 3.36077 7.44117 3.21801 6.96875 3.21801C6.49633 3.21801 6.03493 3.36077 5.64507 3.62758C5.2552 3.89439 4.95506 4.27279 4.78402 4.71317C4.61297 5.15354 4.57899 5.63532 4.68655 6.09534C4.7941 6.55535 5.03816 6.97213 5.38672 7.29102C4.74964 7.56725 4.19609 8.00564 3.78125 8.5625C3.70666 8.66196 3.67463 8.78697 3.69221 8.91004C3.70979 9.03311 3.77554 9.14416 3.875 9.21875ZM5.5625 5.5625C5.5625 5.28437 5.64498 5.01249 5.7995 4.78123C5.95402 4.54997 6.17364 4.36973 6.4306 4.26329C6.68756 4.15686 6.97031 4.12901 7.2431 4.18327C7.51588 4.23753 7.76645 4.37146 7.96312 4.56813C8.15979 4.7648 8.29372 5.01537 8.34798 5.28815C8.40224 5.56094 8.37439 5.84369 8.26796 6.10065C8.16152 6.35761 7.98128 6.57723 7.75002 6.73175C7.51876 6.88628 7.24688 6.96875 6.96875 6.96875C6.59626 6.96721 6.23947 6.81855 5.97609 6.55516C5.7127 6.29178 5.56404 5.93499 5.5625 5.5625ZM11.1875 0.40625H2.75C2.50136 0.40625 2.2629 0.505022 2.08709 0.680837C1.91127 0.856653 1.8125 1.09511 1.8125 1.34375V2.51562H0.875C0.75068 2.51562 0.631451 2.56501 0.543544 2.65292C0.455636 2.74083 0.40625 2.86005 0.40625 2.98438C0.40625 3.1087 0.455636 3.22792 0.543544 3.31583C0.631451 3.40374 0.75068 3.45312 0.875 3.45312H1.8125V4.85938H0.875C0.75068 4.85938 0.631451 4.90876 0.543544 4.99667C0.455636 5.08458 0.40625 5.2038 0.40625 5.32812C0.40625 5.45245 0.455636 5.57167 0.543544 5.65958C0.631451 5.74749 0.75068 5.79688 0.875 5.79688H1.8125V7.20312H0.875C0.75068 7.20312 0.631451 7.25251 0.543544 7.34042C0.455636 7.42833 0.40625 7.54755 0.40625 7.67188C0.40625 7.7962 0.455636 7.91542 0.543544 8.00333C0.631451 8.09124 0.75068 8.14062 0.875 8.14062H1.8125V9.54688H0.875C0.75068 9.54688 0.631451 9.59626 0.543544 9.68417C0.455636 9.77208 0.40625 9.8913 0.40625 10.0156C0.40625 10.1399 0.455636 10.2592 0.543544 10.3471C0.631451 10.435 0.75068 10.4844 0.875 10.4844H1.8125V11.6562C1.8125 11.9049 1.91127 12.1433 2.08709 12.3192C2.2629 12.495 2.50136 12.5938 2.75 12.5938H11.1875C11.4361 12.5938 11.6746 12.495 11.8504 12.3192C12.0262 12.1433 12.125 11.9049 12.125 11.6562V1.34375C12.125 1.09511 12.0262 0.856653 11.8504 0.680837C11.6746 0.505022 11.4361 0.40625 11.1875 0.40625ZM11.1875 11.6562H2.75V1.34375H11.1875V11.6562Z" fill="#4FA6D1"/>
</svg>
