<svg width="9" height="16" viewBox="0 0 9 16" fill="none" xmlns="http://www.w3.org/2000/svg">
<g clip-path="url(#clip0_318_9116)">
<path d="M4.5843 10.4051C5.47245 10.404 6.32392 10.0377 6.95193 9.38642C7.57995 8.73514 7.93321 7.85213 7.93423 6.9311V3.94043H1.23438V6.9311C1.23557 7.85196 1.5888 8.73477 2.21663 9.38599C2.84447 10.0372 3.69568 10.4037 4.58366 10.4051H4.5843ZM1.65737 4.33776H2.84023V4.60843H1.65737V4.33776ZM1.65737 5.3211H2.84023V5.59176H1.65737V5.3211ZM1.65737 6.29976H2.84023V6.57043H1.65737V6.29976ZM1.65737 7.2831H2.84023V7.55376H1.65737V7.2831Z" fill="#4FA6D1"/>
<path d="M8.18973 0.000666639H0V6.93371C0.00131466 8.03201 0.362031 9.09606 1.02102 9.94555C1.68002 10.795 2.59676 11.3777 3.6159 11.5948L3.64493 11.6002V11.7802C3.64493 11.9202 3.78818 12.0302 3.96676 12.0302H4.23812V13.0008H4.13652C4.09037 13.001 4.04617 13.0204 4.01354 13.0549C3.98092 13.0893 3.96251 13.136 3.96235 13.1848V14.6194C3.96235 14.7207 4.03997 14.802 4.13525 14.802H4.23748V16H4.76125V14.804H4.86348C4.90962 14.8039 4.95383 14.7844 4.98646 14.75C5.01908 14.7155 5.03749 14.6688 5.03765 14.6201V13.1835C5.03749 13.1347 5.01908 13.088 4.98646 13.0535C4.95383 13.0191 4.90962 12.9996 4.86348 12.9995H4.76125V12.0288H5.0326C5.21308 12.0288 5.35507 11.9182 5.35507 11.7788V11.5989C7.44447 11.1582 8.99748 9.23762 9 6.93304V0L8.18973 0.000666639ZM8.18973 6.93371C8.17218 7.95553 7.7757 8.92926 7.08556 9.64546C6.39543 10.3617 5.46677 10.7631 4.49935 10.7634C3.53192 10.7638 2.60301 10.363 1.91241 9.64733C1.22181 8.93163 0.824692 7.95819 0.806479 6.93638V0.853964H8.18973V3.89384V6.93371Z" fill="#4FA6D1"/>
<path d="M1.65625 1.39355H2.83718V1.66422H1.65625V1.39355ZM1.65625 2.37622H2.83718V2.64689H1.65625V2.37622ZM1.65625 3.35955H2.83718V3.63022H1.65625V3.35955Z" fill="#4FA6D1"/>
</g>
<defs>
<clipPath id="clip0_318_9116">
<rect width="9" height="16" fill="white"/>
</clipPath>
</defs>
</svg>
