<svg width="15" height="15" viewBox="0 0 15 15" fill="none" xmlns="http://www.w3.org/2000/svg">
<path d="M6.25977 5.23698L4.674 3.40653C4.49119 3.19559 4.15604 3.19653 3.94369 3.40934L2.63964 4.71574C2.25152 5.10433 2.14042 5.68136 2.36495 6.14401C3.70633 8.92132 5.9462 11.1643 8.72164 12.5096C9.18382 12.7341 9.76038 12.623 10.1485 12.2344L11.4647 10.9159C11.678 10.7026 11.6785 10.3656 11.4657 10.1827L9.62819 8.6054C9.43601 8.4404 9.13742 8.46197 8.94476 8.65509L8.30539 9.2954C8.27266 9.3297 8.22957 9.35232 8.18274 9.35977C8.13591 9.36722 8.08794 9.3591 8.04617 9.33665C7.00107 8.73482 6.13415 7.86677 5.53368 6.82088C5.5112 6.77905 5.50306 6.73099 5.51051 6.68408C5.51796 6.63717 5.54059 6.594 5.57493 6.5612L6.21243 5.92323C6.40556 5.72917 6.42665 5.42917 6.25977 5.23652V5.23698Z" stroke="#4FA6D1" stroke-linecap="round" stroke-linejoin="round"/>
</svg>
