<svg width="15" height="12" viewBox="0 0 15 12" fill="none" xmlns="http://www.w3.org/2000/svg">
<path d="M13.75 0H1.25C0.56875 0.0266667 0.025 0.606667 0 1.33333V10.6667C0.025 11.3933 0.56875 11.9733 1.25 12H13.75C14.4312 11.9733 14.975 11.3933 15 10.6667V1.33333C14.9885 0.983618 14.8531 0.651562 14.6211 0.404123C14.3892 0.156685 14.0779 0.0122703 13.75 0ZM13.75 10.6667H1.25V1.33333H13.75V10.6667ZM8.75 9.33333V8.5C8.75 7.39333 6.6625 6.83333 5.625 6.83333C4.5875 6.83333 2.5 7.39333 2.5 8.5V9.33333H8.75ZM5.625 2.66667C5.2106 2.66667 4.81317 2.84226 4.52015 3.15482C4.22712 3.46738 4.0625 3.89131 4.0625 4.33333C4.0625 4.5522 4.10292 4.76893 4.18144 4.97114C4.25996 5.17335 4.37505 5.35708 4.52015 5.51184C4.81317 5.82441 5.2106 6 5.625 6C5.83019 6 6.03337 5.95689 6.22294 5.87313C6.41251 5.78937 6.58476 5.66661 6.72985 5.51184C6.87495 5.35708 6.99004 5.17335 7.06856 4.97114C7.14708 4.76893 7.1875 4.5522 7.1875 4.33333C7.1875 4.11446 7.14708 3.89774 7.06856 3.69553C6.99004 3.49332 6.87495 3.30959 6.72985 3.15482C6.58476 3.00006 6.41251 2.87729 6.22294 2.79353C6.03337 2.70978 5.83019 2.66667 5.625 2.66667ZM8.75 2.66667V3.33333H12.5V2.66667H8.75ZM8.75 4V4.66667H12.5V4H8.75ZM8.75 5.33333V6H11.25V5.33333H8.75Z" fill="#4FA6D1"/>
</svg>
