<svg width="23" height="20" viewBox="0 0 23 20" fill="none" xmlns="http://www.w3.org/2000/svg">
<path d="M19.125 2H16.875V1C16.875 0.734784 16.7565 0.48043 16.5455 0.292893C16.3345 0.105357 16.0484 0 15.75 0C15.4516 0 15.1655 0.105357 14.9545 0.292893C14.7435 0.48043 14.625 0.734784 14.625 1V2H7.875V1C7.875 0.734784 7.75647 0.48043 7.5455 0.292893C7.33452 0.105357 7.04837 0 6.75 0C6.45163 0 6.16548 0.105357 5.95451 0.292893C5.74353 0.48043 5.625 0.734784 5.625 1V2H3.375C2.47989 2 1.62145 2.31607 0.988515 2.87868C0.355579 3.44129 0 4.20435 0 5V17C0 17.7956 0.355579 18.5587 0.988515 19.1213C1.62145 19.6839 2.47989 20 3.375 20H19.125C20.0201 20 20.8786 19.6839 21.5115 19.1213C22.1444 18.5587 22.5 17.7956 22.5 17V5C22.5 4.20435 22.1444 3.44129 21.5115 2.87868C20.8786 2.31607 20.0201 2 19.125 2ZM20.25 17C20.25 17.2652 20.1315 17.5196 19.9205 17.7071C19.7095 17.8946 19.4234 18 19.125 18H3.375C3.07663 18 2.79048 17.8946 2.57951 17.7071C2.36853 17.5196 2.25 17.2652 2.25 17V10H20.25V17ZM20.25 8H2.25V5C2.25 4.73478 2.36853 4.48043 2.57951 4.29289C2.79048 4.10536 3.07663 4 3.375 4H5.625V5C5.625 5.26522 5.74353 5.51957 5.95451 5.70711C6.16548 5.89464 6.45163 6 6.75 6C7.04837 6 7.33452 5.89464 7.5455 5.70711C7.75647 5.51957 7.875 5.26522 7.875 5V4H14.625V5C14.625 5.26522 14.7435 5.51957 14.9545 5.70711C15.1655 5.89464 15.4516 6 15.75 6C16.0484 6 16.3345 5.89464 16.5455 5.70711C16.7565 5.51957 16.875 5.26522 16.875 5V4H19.125C19.4234 4 19.7095 4.10536 19.9205 4.29289C20.1315 4.48043 20.25 4.73478 20.25 5V8Z" fill="#193F52"/>
</svg>
