<svg width="38" height="35" viewBox="0 0 38 35" fill="none" xmlns="http://www.w3.org/2000/svg">
<path fill-rule="evenodd" clip-rule="evenodd" d="M6.345 4.988C4.885 6.846 4 9.384 4 12.035C4 13.572 4.264 15.044 4.73 16.445H13.415L16.803 10.421L18.92 17.831L21.51 14.5H28V16.5H22.49L18.08 22.17L16.197 15.579L14.585 18.444H0V16.444H2.636C2.21649 15.0115 2.00235 13.5267 2 12.034C2 8.959 3.021 5.98 4.772 3.752C6.528 1.518 9.056 0 12.032 0C15.535 0 18.199 1.963 20 4.734C21.8 1.964 24.465 0 27.969 0C30.944 0 33.473 1.518 35.229 3.753C36.978 5.98 38 8.96 38 12.035C38 18.617 33.456 24.114 29.158 27.866C26.5426 30.1307 23.6955 32.113 20.664 33.78L20.513 33.86L20.473 33.882L20.461 33.887L20.458 33.889H20.457C20.457 33.889 20.456 33.89 20 33L19.566 33.9L19.56 33.898L19.546 33.891L19.496 33.866C19.2016 33.7184 18.9095 33.566 18.62 33.409C17.8076 32.9668 17.0092 32.4992 16.226 32.007C14.275 30.783 11.716 28.98 9.308 26.674C8.024 25.444 6.778 24.064 5.688 22.546C5.60707 22.4396 5.54829 22.3181 5.51513 22.1887C5.48196 22.0592 5.47508 21.9244 5.49491 21.7922C5.51473 21.66 5.56084 21.5332 5.63053 21.4191C5.70022 21.3051 5.79206 21.2061 5.90062 21.1282C6.00919 21.0502 6.13228 20.9948 6.26262 20.9653C6.39297 20.9357 6.52791 20.9326 6.65949 20.956C6.79106 20.9795 6.9166 21.0291 7.02867 21.102C7.14075 21.1748 7.23709 21.2693 7.312 21.38C8.317 22.78 9.478 24.067 10.692 25.23C12.971 27.414 15.412 29.135 17.289 30.313C18.1689 30.8656 19.0688 31.3856 19.987 31.872L20.239 31.731C22.9442 30.1957 25.491 28.3966 27.842 26.36C32.044 22.691 36 17.705 36 12.034C36 9.384 35.115 6.845 33.656 4.987C32.2 3.137 30.213 2 27.969 2C24.866 2 22.459 4.02 20.898 7.202L20 9.03L19.102 7.202C17.541 4.02 15.134 2 12.032 2C9.787 2 7.8 3.136 6.345 4.988ZM20 33L19.566 33.9L20.014 34.117L20.457 33.89L20 33Z" fill="#4FA6D1"/>
</svg>
