<svg width="10" height="11" viewBox="0 0 10 11" fill="none" xmlns="http://www.w3.org/2000/svg">
<path d="M3.02083 0.9375H2.91667C2.97396 0.9375 3.02083 0.890625 3.02083 0.833333V0.9375H6.97917V0.833333C6.97917 0.890625 7.02604 0.9375 7.08333 0.9375H6.97917V1.875H7.91667V0.833333C7.91667 0.373698 7.54297 0 7.08333 0H2.91667C2.45703 0 2.08333 0.373698 2.08333 0.833333V1.875H3.02083V0.9375ZM9.58333 1.875H0.416667C0.186198 1.875 0 2.0612 0 2.29167V2.70833C0 2.76563 0.046875 2.8125 0.104167 2.8125H0.890625L1.21224 9.6224C1.23307 10.0664 1.60026 10.4167 2.04427 10.4167H7.95573C8.40104 10.4167 8.76693 10.0677 8.78776 9.6224L9.10937 2.8125H9.89583C9.95312 2.8125 10 2.76563 10 2.70833V2.29167C10 2.0612 9.8138 1.875 9.58333 1.875ZM7.85547 9.47917H2.14453L1.82943 2.8125H8.17057L7.85547 9.47917Z" fill="#EC826E"/>
</svg>
