<svg width="24" height="24" viewBox="0 0 24 24" fill="none" xmlns="http://www.w3.org/2000/svg">
<path d="M11.0008 22.9508V20.9508C8.91745 20.7174 7.13012 19.8551 5.63878 18.3638C4.14678 16.8718 3.28411 15.0841 3.05078 13.0008H1.05078V11.0008H3.05078C3.28411 8.91745 4.14678 7.12978 5.63878 5.63778C7.13012 4.14645 8.91745 3.28411 11.0008 3.05078V1.05078H13.0008V3.05078C15.0841 3.28411 16.8718 4.14645 18.3638 5.63778C19.8551 7.12978 20.7174 8.91745 20.9508 11.0008H22.9508V13.0008H20.9508C20.7174 15.0841 19.8551 16.8718 18.3638 18.3638C16.8718 19.8551 15.0841 20.7174 13.0008 20.9508V22.9508H11.0008ZM12.0008 19.0008C13.9341 19.0008 15.5841 18.3174 16.9508 16.9508C18.3174 15.5841 19.0008 13.9341 19.0008 12.0008C19.0008 10.0674 18.3174 8.41745 16.9508 7.05078C15.5841 5.68411 13.9341 5.00078 12.0008 5.00078C10.0674 5.00078 8.41745 5.68411 7.05078 7.05078C5.68411 8.41745 5.00078 10.0674 5.00078 12.0008C5.00078 13.9341 5.68411 15.5841 7.05078 16.9508C8.41745 18.3174 10.0674 19.0008 12.0008 19.0008ZM12.0008 16.0008C10.9008 16.0008 9.95912 15.6091 9.17578 14.8258C8.39245 14.0424 8.00078 13.1008 8.00078 12.0008C8.00078 10.9008 8.39245 9.95912 9.17578 9.17578C9.95912 8.39245 10.9008 8.00078 12.0008 8.00078C13.1008 8.00078 14.0424 8.39245 14.8258 9.17578C15.6091 9.95912 16.0008 10.9008 16.0008 12.0008C16.0008 13.1008 15.6091 14.0424 14.8258 14.8258C14.0424 15.6091 13.1008 16.0008 12.0008 16.0008Z" fill="#094963"/>
</svg>
