<svg width="178" height="78" viewBox="0 0 178 78" fill="none" xmlns="http://www.w3.org/2000/svg">
<g filter="url(#filter0_d_718_3596)">
<path d="M93.8125 29.6245H95.9129L100.114 39.8384L104.251 29.6245H106.361V45.2995H104.134V35.5143H104.084L101.017 43.0489H99.1561L96.0755 35.5236H96.0484V45.3088H93.8215L93.8125 29.6245Z" fill="white"/>
<path d="M117.527 41.7908H111.949L110.815 45.2995H108.457L113.805 29.6245H115.671L121.023 45.2995H118.67L117.527 41.7908ZM116.895 39.6846L114.763 32.8303H114.722L112.595 39.6846H116.895Z" fill="white"/>
<path d="M120.891 29.6245H123.244L125.552 40.7656H125.593L128.452 29.6245H130.065L132.91 40.7656H132.951L135.273 29.6245H137.604L133.927 45.2995H132.061L129.256 33.9952H129.215L126.397 45.2995H124.54L120.891 29.6245Z" fill="white"/>
<path d="M139.967 29.6245H149.371V31.8611H142.198V36.3437H148.319V38.4498H142.198V43.0629H149.371V45.2995H139.967V29.6245Z" fill="white"/>
<path d="M151.838 29.6245H154.065V45.2995H151.838V29.6245Z" fill="white"/>
<path d="M157.34 29.6242H162.489C163.402 29.5968 164.303 29.8315 165.094 30.3022C165.884 30.7729 166.532 31.4609 166.966 32.2895C167.312 32.8562 167.542 33.4908 167.639 34.1534C167.733 35.2658 167.771 36.3825 167.752 37.499C167.779 38.6775 167.722 39.8565 167.58 41.0263C167.533 41.3349 167.451 41.6367 167.336 41.9256C167.213 42.2017 167.076 42.4708 166.925 42.7317C166.478 43.4864 165.857 44.1154 165.118 44.5629C164.28 45.0988 163.308 45.3678 162.322 45.3365H157.34V29.6242ZM159.571 43.0626H162.236C163.492 43.0626 164.395 42.6059 164.947 41.6927C165.202 41.3133 165.358 40.8716 165.398 40.4113C165.479 39.4584 165.511 38.5019 165.493 37.5456C165.493 36.1803 165.461 35.2158 165.398 34.6147C165.345 34.0906 165.146 33.5936 164.825 33.1842C164.538 32.7441 164.144 32.3899 163.683 32.1575C163.221 31.9251 162.708 31.8227 162.196 31.8608H159.531L159.571 43.0626Z" fill="white"/>
<path d="M170.781 29.6245H173.013V45.2995H170.781V29.6245Z" fill="white"/>
<path d="M112.147 52.6473H110.114V55.0285H109.342V49.5767H110.114V51.9065H112.147V49.5767H112.919V55.0285H112.147V52.6473Z" fill="white"/>
<path d="M114.635 53.3835C114.627 53.5133 114.646 53.6433 114.689 53.7653C114.733 53.8872 114.801 53.9985 114.888 54.0918C114.969 54.1753 115.066 54.2404 115.172 54.2829C115.279 54.3255 115.393 54.3445 115.507 54.3387C115.658 54.3369 115.807 54.3023 115.944 54.2373C116.081 54.1722 116.203 54.0782 116.302 53.9613L116.835 54.4273C116.674 54.6247 116.473 54.7832 116.246 54.8919C116.018 55.0006 115.771 55.0567 115.521 55.0563C115.33 55.0559 115.141 55.0245 114.961 54.9632C114.867 54.9302 114.778 54.8865 114.694 54.8327C114.602 54.7858 114.516 54.7279 114.437 54.6603C114.268 54.4893 114.14 54.2804 114.062 54.0498C113.947 53.741 113.893 53.4114 113.904 53.0807C113.895 52.755 113.941 52.4303 114.039 52.1208C114.112 51.8934 114.233 51.685 114.392 51.5104C114.528 51.3636 114.695 51.2506 114.879 51.1796C115.049 51.1156 115.228 51.0824 115.408 51.0817C115.8 51.0765 116.179 51.2324 116.46 51.515C116.612 51.6734 116.73 51.8623 116.808 52.07C116.886 52.2776 116.921 52.4995 116.912 52.7219V53.3649L114.635 53.3835ZM116.176 52.7405C116.184 52.4892 116.102 52.2434 115.945 52.0509C115.799 51.9097 115.606 51.8312 115.406 51.8312C115.205 51.8312 115.012 51.9097 114.866 52.0509C114.713 52.2455 114.631 52.4898 114.635 52.7405H116.176Z" fill="white"/>
<path d="M119.712 54.684C119.645 54.8165 119.534 54.9204 119.4 54.9775C119.215 55.0506 119.016 55.084 118.818 55.0754C118.472 55.089 118.134 54.9657 117.874 54.7306C117.76 54.6243 117.67 54.4939 117.61 54.3483C117.55 54.2027 117.521 54.0453 117.526 53.8872C117.522 53.7381 117.546 53.5897 117.598 53.4505C117.65 53.3113 117.729 53.1842 117.829 53.0764C117.948 52.9587 118.09 52.8681 118.246 52.8103C118.401 52.7526 118.567 52.7289 118.732 52.7409H119.748V52.3262C119.748 51.9814 119.504 51.8183 118.998 51.8277C118.846 51.8196 118.693 51.8401 118.547 51.8882C118.437 51.9355 118.347 52.0191 118.289 52.1258L117.711 51.6599C117.854 51.4664 118.042 51.3133 118.257 51.2147C118.473 51.1162 118.709 51.0753 118.944 51.0961C119.329 51.0688 119.712 51.1648 120.042 51.371C120.187 51.4887 120.301 51.6422 120.374 51.8172C120.446 51.9922 120.475 52.1833 120.457 52.3728V55.0242H119.73L119.712 54.684ZM119.712 53.384H118.831C118.402 53.384 118.194 53.5471 118.199 53.8499C118.199 53.9151 118.213 53.9794 118.241 54.0377C118.27 54.096 118.311 54.1466 118.362 54.1854C118.511 54.3022 118.698 54.357 118.885 54.3392C119.109 54.3618 119.333 54.3215 119.536 54.2227C119.653 54.145 119.712 53.9586 119.712 53.6635V53.384Z" fill="white"/>
<path d="M121.51 49.5767H122.246V54.0313C122.246 54.2084 122.336 54.2969 122.517 54.2969H122.77V55.0285H122.445C122.207 55.0391 121.974 54.9632 121.785 54.8141C121.688 54.7231 121.613 54.61 121.566 54.4838C121.519 54.3576 121.501 54.2218 121.514 54.0872L121.51 49.5767Z" fill="white"/>
<path d="M123.465 49.9634H124.197V51.1469H124.73V51.7433H124.197V54.0079C124.197 54.2036 124.279 54.3015 124.455 54.2968H124.73V55.0284H124.346C124.23 55.0331 124.114 55.0127 124.006 54.9686C123.898 54.9244 123.8 54.8575 123.718 54.7721C123.63 54.6812 123.562 54.5717 123.518 54.4511C123.474 54.3305 123.456 54.2016 123.465 54.0731V51.7433H123.1V51.1469H123.465V49.9634Z" fill="white"/>
<path d="M125.484 49.5767H126.216V51.557C126.327 51.4073 126.471 51.287 126.636 51.206C126.801 51.125 126.982 51.0855 127.165 51.091C127.471 51.0935 127.766 51.213 127.991 51.4265C128.121 51.5576 128.223 51.7153 128.29 51.8895C128.357 52.0637 128.387 52.2505 128.38 52.4377V55.0191H127.666V52.6893C127.673 52.5773 127.659 52.4648 127.624 52.3585C127.589 52.2521 127.535 52.154 127.463 52.0695C127.397 51.9977 127.317 51.9411 127.228 51.9034C127.139 51.8657 127.044 51.8476 126.948 51.8506C126.851 51.8476 126.755 51.8655 126.666 51.9032C126.576 51.941 126.495 51.9976 126.428 52.0695C126.355 52.153 126.299 52.251 126.263 52.3575C126.227 52.464 126.213 52.5769 126.221 52.6893V55.0191H125.489L125.484 49.5767Z" fill="white"/>
<path d="M131.281 49.5767H132.013V50.3548H131.281V49.5767ZM131.281 51.147H132.013V55.0285H131.281V51.147Z" fill="white"/>
<path d="M133.033 51.1471H133.76V51.5572C133.871 51.4081 134.014 51.2882 134.178 51.2072C134.342 51.1262 134.523 51.0865 134.704 51.0912C135.012 51.0934 135.308 51.2129 135.536 51.4267C135.664 51.5589 135.764 51.7169 135.831 51.8908C135.898 52.0647 135.93 52.2509 135.924 52.4378V55.0193H135.21V52.6895C135.218 52.5775 135.204 52.465 135.169 52.3587C135.134 52.2523 135.079 52.1541 135.007 52.0697C134.94 51.9978 134.859 51.9411 134.77 51.9034C134.68 51.8657 134.584 51.8477 134.488 51.8507C134.391 51.8483 134.295 51.8665 134.206 51.9042C134.116 51.9419 134.035 51.9982 133.968 52.0697C133.896 52.1538 133.84 52.2518 133.804 52.3582C133.769 52.4645 133.754 52.5771 133.76 52.6895V55.0193H133.033V51.1471Z" fill="white"/>
<path d="M139.753 52.792L138.213 49.5815H139.035L140.119 51.9999L141.203 49.5815H142.025L140.485 52.7874V55.0333H139.753V52.792Z" fill="white"/>
<path d="M141.732 53.0807C141.723 52.7671 141.755 52.4536 141.827 52.1488C141.888 51.9462 141.991 51.7599 142.13 51.6036C142.248 51.4631 142.391 51.3462 142.55 51.2588C142.765 51.1567 143 51.1057 143.236 51.1097C143.478 51.1047 143.717 51.1557 143.937 51.2588C144.094 51.345 144.233 51.464 144.343 51.6083C144.49 51.7577 144.595 51.944 144.65 52.1488C144.716 52.4545 144.745 52.7676 144.736 53.0807C144.746 53.3939 144.717 53.707 144.65 54.0126C144.593 54.222 144.488 54.4139 144.343 54.5718C144.29 54.6323 144.233 54.6884 144.171 54.7396C144.102 54.807 144.021 54.8607 143.932 54.898C143.718 55.0112 143.481 55.0703 143.241 55.0703C143.001 55.0703 142.764 55.0112 142.55 54.898C142.391 54.8186 142.248 54.7077 142.13 54.5718C141.993 54.4089 141.89 54.2185 141.827 54.0126C141.754 53.708 141.722 53.3944 141.732 53.0807ZM143.991 53.0807C143.996 52.8783 143.985 52.6757 143.959 52.4749C143.938 52.3554 143.889 52.2433 143.815 52.1488C143.754 52.0595 143.671 51.9887 143.575 51.9438C143.465 51.8904 143.345 51.8633 143.223 51.8646C143.103 51.8643 142.984 51.8913 142.875 51.9438C142.78 51.9923 142.696 52.0624 142.631 52.1488C142.565 52.2472 142.519 52.358 142.496 52.4749C142.459 52.6714 142.444 52.8715 142.451 53.0714C142.443 53.2713 142.459 53.4715 142.496 53.6678C142.52 53.7874 142.566 53.9011 142.631 54.0033C142.701 54.0842 142.783 54.152 142.875 54.2037C142.983 54.2598 143.102 54.2885 143.223 54.2875C143.345 54.2897 143.466 54.2609 143.575 54.2037C143.668 54.156 143.75 54.0875 143.815 54.0033C143.888 53.9049 143.937 53.7899 143.959 53.6678C143.989 53.4768 144.004 53.2836 144.004 53.09L143.991 53.0807Z" fill="white"/>
<path d="M145.627 51.147H146.359V53.4768C146.352 53.5877 146.366 53.699 146.402 53.8039C146.438 53.9088 146.494 54.0052 146.566 54.0872C146.632 54.1607 146.713 54.2187 146.803 54.2573C146.892 54.2959 146.989 54.3142 147.086 54.3109C147.182 54.3144 147.278 54.2963 147.367 54.2576C147.456 54.219 147.536 54.1609 147.601 54.0872C147.744 53.9196 147.818 53.7 147.804 53.4768V51.147H148.536V55.0285H147.804V54.6138C147.694 54.7628 147.55 54.8828 147.386 54.9637C147.222 55.0447 147.042 55.0845 146.86 55.0797C146.556 55.0696 146.266 54.9434 146.047 54.7256C145.91 54.6033 145.802 54.4502 145.732 54.2781C145.661 54.106 145.63 53.9196 145.641 53.7331L145.627 51.147Z" fill="white"/>
<path d="M149.615 51.1468H150.347V51.5569C150.449 51.4287 150.574 51.3228 150.716 51.2453C150.858 51.1678 151.013 51.1203 151.173 51.1055C151.333 51.0908 151.494 51.1091 151.647 51.1594C151.8 51.2097 151.941 51.291 152.063 51.3985L151.526 52.0694C151.394 51.9472 151.224 51.8778 151.047 51.8738C150.958 51.872 150.869 51.8884 150.786 51.9219C150.704 51.9555 150.628 52.0056 150.564 52.0694C150.483 52.1488 150.421 52.2455 150.381 52.3527C150.341 52.4598 150.325 52.5748 150.333 52.6892V55.019H149.602L149.615 51.1468Z" fill="white"/>
<path d="M157.155 52.6473H155.122V55.0285H154.35V49.5767H155.122V51.9065H157.155V49.5767H157.932V55.0285H157.159L157.155 52.6473Z" fill="white"/>
<path d="M161.007 54.6837C160.939 54.8175 160.827 54.9216 160.691 54.9772C160.505 55.0507 160.307 55.084 160.108 55.0751C159.764 55.0904 159.427 54.9667 159.169 54.7303C159.055 54.6239 158.965 54.4935 158.905 54.3479C158.845 54.2023 158.816 54.045 158.821 53.8868C158.816 53.7376 158.84 53.5889 158.892 53.4496C158.944 53.3103 159.023 53.1832 159.124 53.0761C159.24 52.9607 159.379 52.8713 159.53 52.8136C159.682 52.7558 159.843 52.731 160.004 52.7406H161.021V52.3259C161.021 51.9811 160.777 51.818 160.271 51.8273C160.126 51.821 159.98 51.8416 159.842 51.8879C159.731 51.9349 159.639 52.0184 159.58 52.1255L159.006 51.6595C159.148 51.465 159.336 51.3112 159.552 51.2126C159.768 51.1139 160.004 51.0737 160.239 51.0957C160.624 51.0685 161.007 51.1645 161.337 51.3706C161.481 51.4892 161.594 51.6428 161.667 51.8176C161.739 51.9924 161.769 52.1831 161.753 52.3725V55.0238H161.021L161.007 54.6837ZM161.007 53.3836H160.126C159.702 53.3836 159.489 53.5467 159.494 53.8496C159.494 53.9152 159.509 53.9799 159.538 54.0383C159.567 54.0967 159.609 54.147 159.661 54.1851C159.811 54.3023 159.998 54.3571 160.185 54.3388C160.408 54.3614 160.633 54.3212 160.836 54.2223C160.948 54.1431 161.007 53.9567 161.007 53.6632V53.3836Z" fill="white"/>
<path d="M162.806 51.1472H163.538V51.5573C163.649 51.4076 163.793 51.2873 163.957 51.2063C164.122 51.1253 164.304 51.0858 164.486 51.0913C164.793 51.0938 165.087 51.2133 165.313 51.4268C165.443 51.5579 165.544 51.7156 165.611 51.8898C165.678 52.064 165.709 52.2508 165.701 52.438V55.0194H164.97V52.6896C164.977 52.5776 164.963 52.4651 164.928 52.3588C164.893 52.2524 164.838 52.1542 164.766 52.0698C164.7 51.9998 164.621 51.945 164.533 51.9089C164.445 51.8727 164.35 51.8561 164.256 51.8602C164.159 51.8572 164.063 51.8751 163.974 51.9128C163.884 51.9506 163.803 52.0072 163.736 52.0792C163.663 52.1626 163.607 52.2606 163.571 52.3671C163.535 52.4736 163.521 52.5865 163.529 52.6989V55.0287H162.797L162.806 51.1472Z" fill="white"/>
<path d="M168.97 54.6231C168.855 54.767 168.711 54.8832 168.548 54.9637C168.385 55.0442 168.207 55.087 168.026 55.0891C167.837 55.0861 167.651 55.0388 167.482 54.9508C167.313 54.8628 167.165 54.7364 167.05 54.5812C166.941 54.4369 166.872 54.2645 166.852 54.0826C166.773 53.425 166.773 52.7599 166.852 52.1023C166.877 51.9316 166.946 51.7709 167.05 51.6363C167.218 51.4042 167.459 51.2393 167.732 51.1697C168.004 51.1 168.292 51.1298 168.546 51.2542C168.701 51.346 168.844 51.4588 168.97 51.5897V49.6094H169.702V55.0611H168.97V54.6231ZM168.252 51.8739C168.114 51.8653 167.976 51.8976 167.854 51.9671C167.754 52.0338 167.676 52.1317 167.633 52.2467C167.586 52.3692 167.556 52.4978 167.543 52.6288C167.543 52.7779 167.543 52.927 167.543 53.0948C167.543 53.2625 167.543 53.3883 167.543 53.5281C167.555 53.6653 167.585 53.8002 167.633 53.9288C167.678 54.0418 167.755 54.1378 167.854 54.2038C167.972 54.2828 168.112 54.3204 168.252 54.3109C168.398 54.3191 168.542 54.2782 168.663 54.1944C168.761 54.1272 168.833 54.0266 168.866 53.9102C168.918 53.7858 168.95 53.6537 168.961 53.5188C168.961 53.3744 168.961 53.2346 168.961 53.0948C168.961 52.955 168.961 52.8058 168.961 52.6661C168.949 52.5344 168.917 52.4055 168.866 52.284C168.832 52.1683 168.76 52.0681 168.663 51.9998C168.544 51.9098 168.4 51.8609 168.252 51.86V51.8739Z" fill="white"/>
<path d="M170.75 53.8404C170.896 54.0051 171.075 54.1351 171.275 54.2212C171.474 54.3073 171.69 54.3474 171.906 54.339C172.087 54.3496 172.266 54.3042 172.421 54.2085C172.484 54.1728 172.536 54.1201 172.572 54.056C172.608 53.992 172.626 53.919 172.624 53.8451C172.63 53.7895 172.622 53.7332 172.601 53.6818C172.579 53.6304 172.545 53.5855 172.502 53.5515C172.405 53.4897 172.292 53.4575 172.177 53.4583L171.531 53.3978C171.251 53.3818 170.986 53.2646 170.781 53.0669C170.68 52.968 170.601 52.8476 170.548 52.7142C170.496 52.5807 170.472 52.4372 170.479 52.2934C170.47 52.1222 170.501 51.9513 170.571 51.7955C170.64 51.6396 170.745 51.5035 170.876 51.3988C171.155 51.1906 171.494 51.0855 171.838 51.1005C171.99 51.0984 172.141 51.1093 172.29 51.1331C172.418 51.1561 172.543 51.1905 172.665 51.2357C172.887 51.3303 173.091 51.4626 173.27 51.6271L172.819 52.1909C172.679 52.0843 172.527 51.9952 172.367 51.9253C172.195 51.8586 172.013 51.8269 171.829 51.8321C171.66 51.8131 171.489 51.8595 171.351 51.9626C171.303 52.0035 171.266 52.055 171.241 52.1131C171.216 52.1712 171.204 52.2345 171.206 52.298C171.204 52.3424 171.213 52.3866 171.232 52.4265C171.251 52.4664 171.279 52.5007 171.314 52.5264C171.419 52.6153 171.549 52.6646 171.685 52.6662L172.29 52.7127C172.445 52.7126 172.598 52.7452 172.74 52.8085C172.883 52.8718 173.011 52.9645 173.117 53.0809C173.279 53.3122 173.361 53.5925 173.352 53.8777C173.354 54.0505 173.314 54.2213 173.235 54.3738C173.156 54.5263 173.041 54.6554 172.9 54.749C172.583 54.9691 172.207 55.083 171.825 55.0752C171.525 55.0745 171.229 55.0124 170.953 54.8924C170.677 54.7724 170.427 54.597 170.217 54.3763L170.75 53.8404Z" fill="white"/>
<path d="M94.9231 52.7921L93.3828 49.5723H94.2049L95.2935 52L96.3821 49.5723H97.2042L95.6594 52.7921V55.0427H94.9231V52.7921Z" fill="white"/>
<path d="M96.91 53.0811C96.9011 52.7675 96.933 52.454 97.0049 52.1492C97.0635 51.9457 97.1671 51.7591 97.3075 51.604C97.4239 51.4613 97.5667 51.3441 97.7276 51.2592C97.9418 51.1536 98.1769 51.1009 98.4142 51.1054C98.6575 51.0996 98.8987 51.1522 99.1189 51.2592C99.2747 51.3479 99.4127 51.4666 99.5254 51.6086C99.6726 51.7574 99.7787 51.944 99.8326 52.1492C99.9001 52.4547 99.9304 52.7678 99.9229 53.0811C99.9318 53.3945 99.9015 53.7077 99.8326 54.013C99.7722 54.2208 99.6672 54.4119 99.5254 54.5722C99.4733 54.635 99.4142 54.6914 99.3492 54.74C99.2835 54.8114 99.2033 54.8671 99.1144 54.903C98.8988 55.02 98.6577 55.0778 98.4142 55.0708C98.2061 55.0725 98.0001 55.029 97.8094 54.9431C97.6187 54.8572 97.4477 54.7308 97.3075 54.5722C97.1687 54.4105 97.0655 54.2198 97.0049 54.013C96.9318 53.7084 96.8999 53.3948 96.91 53.0811ZM99.1686 53.0811C99.1752 52.8769 99.1631 52.6726 99.1324 52.4707C99.1097 52.3518 99.0602 52.2401 98.9879 52.1445C98.9286 52.054 98.8456 51.9829 98.7485 51.9395C98.6386 51.8851 98.518 51.858 98.3961 51.8603C98.276 51.86 98.1572 51.8871 98.0483 51.9395C97.9531 51.988 97.8697 52.0581 97.8044 52.1445C97.7389 52.2435 97.6914 52.3541 97.6644 52.4707C97.6319 52.6692 97.6183 52.8705 97.6237 53.0718C97.6183 53.2715 97.6319 53.4713 97.6644 53.6682C97.6904 53.7881 97.7379 53.9018 97.8044 54.0037C97.8724 54.0861 97.9553 54.1542 98.0483 54.2041C98.1561 54.2602 98.2754 54.2889 98.3961 54.2879C98.5186 54.291 98.6397 54.2622 98.7485 54.2041C98.8434 54.1592 98.9257 54.0902 98.9879 54.0037C99.0612 53.9053 99.1107 53.7903 99.1324 53.6682C99.1759 53.4786 99.2016 53.2851 99.2092 53.0904L99.1686 53.0811Z" fill="white"/>
<path d="M100.812 51.1426H101.544V53.4724C101.538 53.584 101.553 53.6958 101.589 53.8013C101.624 53.9069 101.68 54.0042 101.752 54.0875C101.819 54.1611 101.9 54.2192 101.991 54.2577C102.081 54.2963 102.178 54.3145 102.276 54.3111C102.372 54.3147 102.468 54.2965 102.557 54.2579C102.646 54.2193 102.726 54.1611 102.791 54.0875C102.862 54.0038 102.917 53.9064 102.952 53.8008C102.987 53.6953 103.001 53.5837 102.994 53.4724V51.1426H103.726V55.0334H102.99V54.614C102.878 54.7626 102.734 54.8821 102.569 54.963C102.404 55.0439 102.224 55.084 102.041 55.08C101.706 55.0666 101.39 54.9178 101.161 54.6658C100.932 54.4138 100.808 54.0788 100.817 53.7334L100.812 51.1426Z" fill="white"/>
<path d="M104.811 51.1428H105.533V51.5528C105.634 51.4238 105.759 51.317 105.901 51.2387C106.043 51.1604 106.198 51.1122 106.358 51.097C106.518 51.0818 106.68 51.0999 106.833 51.1502C106.986 51.2004 107.128 51.2819 107.25 51.3897L106.717 52.0654C106.583 51.9439 106.412 51.8747 106.233 51.8697C106.144 51.8677 106.056 51.8839 105.973 51.9175C105.89 51.9511 105.814 52.0013 105.75 52.0654C105.669 52.1441 105.605 52.2407 105.565 52.3479C105.524 52.4551 105.507 52.5703 105.515 52.6851V55.0149H104.811V51.1428Z" fill="white"/>
<path d="M108.416 11.6427V11.7405C108.416 16.4328 104.965 20.0859 100.633 20.0859H100.488C96.1066 20.0859 92.7324 16.4095 92.7324 11.6427V9.2709H94.4308C94.4308 10.7993 94.4308 11.6893 94.4579 11.9362C94.7425 15.9901 97.0417 18.4085 100.56 18.4085C104.368 18.4085 106.74 15.5661 106.74 11.0975H100.443C100.755 6.06044 103.244 3.59082 107.48 3.59082V5.0959C104.87 5.0959 103.221 6.49378 102.512 9.34547H108.384L108.416 11.6427ZM99.8332 23.9627H98.1348V21.8659H99.8332V23.9627ZM102.995 23.9627H101.292V21.8659H102.995V23.9627Z" fill="white"/>
<path d="M124.6 15.9812H110.213V14.2525H119.084C119.084 12.0531 118.7 10.2732 117.91 8.94051C116.952 7.33294 115.466 6.49421 113.479 6.37306H112.833V4.74219C117.887 4.74219 120.543 7.9014 120.805 14.2525H124.613L124.6 15.9812Z" fill="white"/>
<path d="M136.7 15.9806H123.547V14.2518H127.215C126.578 13.0497 126.283 11.6869 126.363 10.3197C126.443 8.95241 126.894 7.63604 127.666 6.52153C128.597 5.31003 129.925 4.71826 131.614 4.71826C132.75 4.68788 133.868 5.01276 134.821 5.65019C135.309 5.95946 135.726 6.37339 136.045 6.86384C136.364 7.35429 136.577 7.90976 136.669 8.49255L134.632 8.71156C134.343 6.95954 133.34 6.09749 131.637 6.09749C131.109 6.07019 130.585 6.19693 130.124 6.46315C129.663 6.72936 129.284 7.12429 129.031 7.60257C128.561 8.59122 128.339 9.68526 128.385 10.7851C128.385 12.2948 128.741 13.4551 129.482 14.2472H136.709L136.7 15.9806Z" fill="white"/>
<path d="M151.463 15.9811H148.161C147.682 18.5206 146.051 19.8579 143.301 20.0303V18.3761H143.517C145.049 18.3761 146.029 17.5607 146.435 15.9811H143.829C143.197 15.9968 142.57 15.8621 141.996 15.5873C141.423 15.3126 140.919 14.9052 140.523 14.3968C139.636 13.2662 139.177 11.8425 139.231 10.3895C139.181 8.9204 139.664 7.48497 140.586 6.36362C141.008 5.84567 141.535 5.43071 142.131 5.14869C142.727 4.86667 143.377 4.72461 144.032 4.73275C146.688 4.73275 148.342 6.41023 148.342 9.67197V14.2664H151.454L151.463 15.9811ZM146.639 14.2617V9.04757C146.649 8.68493 146.585 8.3241 146.453 7.98798C146.321 7.65185 146.122 7.34777 145.87 7.09499C145.618 6.84221 145.317 6.64626 144.988 6.51956C144.658 6.39286 144.307 6.33815 143.956 6.35896C143.507 6.36122 143.067 6.48242 142.677 6.7109C142.287 6.93939 141.96 7.26749 141.729 7.66368C141.226 8.42111 140.958 9.31798 140.961 10.2358C140.941 11.164 141.174 12.0794 141.634 12.8778C141.845 13.2987 142.165 13.6516 142.558 13.8981C142.95 14.1446 143.401 14.2752 143.861 14.2757L146.639 14.2617Z" fill="white"/>
<path d="M156.125 15.9807H151.057V14.252H156.125V15.9807Z" fill="white"/>
<path d="M160.849 15.9807H155.799V14.252H160.849V15.9807Z" fill="white"/>
<path d="M173.994 12.533C174.049 13.9692 173.589 15.376 172.702 16.4844C172.253 17.0295 171.69 17.4619 171.056 17.7485C170.421 18.0352 169.731 18.1686 169.038 18.1386C167.195 18.1386 165.804 17.421 164.896 15.9905H160.275V14.2617H164.201C164.056 13.7058 163.984 13.1321 163.988 12.5563C163.931 11.086 164.415 9.64784 165.343 8.53041C165.81 8.00099 166.385 7.58476 167.026 7.31164C167.667 7.03852 168.359 6.91529 169.052 6.95079C169.743 6.91639 170.434 7.04255 171.072 7.31997C171.709 7.59739 172.279 8.01901 172.738 8.5537C173.613 9.67789 174.059 11.093 173.994 12.533ZM172.056 12.3559C172.095 11.4247 171.879 10.501 171.432 9.69065C171.186 9.29846 170.844 8.98007 170.44 8.76743C170.037 8.55479 169.586 8.45538 169.133 8.47916C168.647 8.45344 168.162 8.56103 167.729 8.79101C167.296 9.02098 166.929 9.36514 166.667 9.78852C166.168 10.6526 165.926 11.6492 165.971 12.6542C165.933 13.6113 166.175 14.5582 166.667 15.3707C166.929 15.7649 167.284 16.0833 167.7 16.2954C168.115 16.5074 168.576 16.6062 169.038 16.5822C171.047 16.5822 172.053 15.1735 172.056 12.3559Z" fill="white"/>
<path d="M69.8759 34.0835C69.8841 28.4964 68.5541 22.9937 66.0042 18.0645C63.4543 13.1353 59.7635 8.93224 55.2597 5.82882C50.7559 2.7254 45.5787 0.817744 40.1881 0.27541C34.7976 -0.266924 29.3606 0.572847 24.3604 2.72009C19.3602 4.86734 14.9517 8.25558 11.5265 12.5837C8.10143 16.9117 5.76582 22.0456 4.72729 27.5291C3.68876 33.0126 3.97947 38.6757 5.57358 44.0154C7.16769 49.355 10.0158 54.2058 13.8649 58.1365C14.1327 57.5454 14.5192 57.0197 14.9987 56.5942C11.4175 52.861 8.78267 48.2755 7.32687 43.2427C5.87108 38.21 5.63912 32.8848 6.65151 27.7376C7.6639 22.5904 9.88946 17.7796 13.1316 13.7302C16.3738 9.68068 20.5328 6.51714 25.2412 4.51896C29.9497 2.52078 35.0627 1.74946 40.1286 2.27313C45.1946 2.7968 50.0575 4.59932 54.288 7.52152C58.5185 10.4437 61.9863 14.3957 64.3851 19.0282C66.7839 23.6608 68.0398 28.8315 68.042 34.0835C68.0153 39.5079 66.6631 44.8378 64.1106 49.5804C61.5581 54.3229 57.8876 58.325 53.4385 61.2165C50.3534 63.2108 46.1751 65.3683 42.4712 65.5687C41.9158 65.5792 41.3647 65.4674 40.8545 65.2408C40.3443 65.0142 39.8868 64.678 39.5125 64.2546C38.9642 63.636 38.5578 62.8981 38.3232 62.0956C38.0886 61.2931 38.032 60.4465 38.1574 59.6183L36.6758 59.4366C36.5192 60.494 36.5981 61.5743 36.9065 62.5956C37.2148 63.6169 37.7446 64.5523 38.4555 65.331C42.3537 69.4501 49.1338 65.9694 53.1494 63.6302C58.2318 60.6807 62.4622 56.3899 65.4071 51.1978C68.3519 46.0057 69.9052 40.0991 69.9076 34.0835H69.8759Z" fill="#CADE6C"/>
<path d="M43.0993 67.4092C42.2125 67.4415 41.3287 67.2838 40.5039 66.9462C39.679 66.6085 38.9309 66.0983 38.3068 65.4475C37.582 64.6496 37.0427 63.6921 36.7297 62.6475C36.4167 61.6029 36.3381 60.4985 36.5 59.4179V59.2502L38.3068 59.4692V59.6369C38.1838 60.4412 38.2385 61.2638 38.4669 62.0432C38.6953 62.8226 39.0914 63.5388 39.6257 64.1381C39.9845 64.5444 40.423 64.8672 40.9121 65.0849C41.4013 65.3027 41.9298 65.4104 42.4624 65.4009C46.2341 65.1959 50.4666 62.9359 53.3485 61.0721C57.9022 58.1377 61.6347 54.0279 64.1766 49.1492C66.7186 44.2704 67.9821 38.7918 67.8421 33.2549C67.7022 27.718 66.1637 22.3147 63.3787 17.5793C60.5937 12.8439 56.6587 8.94034 51.9629 6.2547C47.2671 3.56905 41.973 2.19431 36.6042 2.26643C31.2354 2.33855 25.9778 3.85504 21.3514 6.66591C16.725 9.47679 12.8899 13.4847 10.2254 18.2933C7.56088 23.102 6.15927 28.5448 6.15913 34.0835C6.15262 38.2411 6.94123 42.3592 8.47981 46.202C10.0184 50.0447 12.2767 53.5366 15.1254 56.4777L15.2519 56.6081L15.1164 56.7246C14.6539 57.1333 14.2825 57.6404 14.0278 58.2111L13.9284 58.4254L13.7658 58.2577C9.90578 54.307 7.05101 49.4343 5.45492 44.0721C3.85883 38.71 3.57078 33.0243 4.61635 27.5198C5.66193 22.0152 8.00877 16.8621 11.4486 12.5179C14.8883 8.17362 19.3147 4.77264 24.3346 2.61684C29.3545 0.46104 34.8128 -0.382905 40.2248 0.15993C45.6368 0.702765 50.8353 2.61558 55.3586 5.72859C59.8819 8.84159 63.5902 13.0585 66.1542 18.0049C68.7183 22.9514 70.0589 28.4743 70.0569 34.0835C70.0496 40.1285 68.4863 46.0631 65.5269 51.2806C62.5674 56.498 58.318 60.8113 53.213 63.7793C50.2317 65.508 46.4419 67.4092 43.0993 67.4092ZM36.7755 59.623C36.6469 60.6304 36.737 61.6547 37.0393 62.6217C37.3417 63.5888 37.8487 64.4744 38.5236 65.2145C42.2004 69.096 48.5604 66.0858 53.0232 63.4858C58.0807 60.5505 62.2904 56.2807 65.221 51.114C68.1515 45.9473 69.6974 40.0696 69.7001 34.0835C69.7091 28.5336 68.3912 23.0671 65.8631 18.1681C63.335 13.269 59.6747 9.08874 55.2065 5.99746C50.7382 2.90617 45.5999 0.999279 40.2467 0.445696C34.8935 -0.107887 29.4905 0.70893 24.5163 2.82377C19.5422 4.93861 15.1504 8.28623 11.7299 12.5701C8.30943 16.854 5.96584 21.9419 4.90674 27.3832C3.84764 32.8245 4.1057 38.4513 5.65806 43.7652C7.21043 49.079 10.0092 53.916 13.8064 57.8476C14.0493 57.3757 14.3669 56.9489 14.746 56.5849C11.1667 52.8189 8.54049 48.2025 7.09878 43.1425C5.65707 38.0825 5.44416 32.7344 6.47881 27.5695C7.51347 22.4046 9.76392 17.5816 13.0318 13.5256C16.2997 9.46956 20.4846 6.3051 25.2177 4.31113C29.9508 2.31716 35.0868 1.55491 40.1729 2.09158C45.2589 2.62825 50.1389 4.44736 54.3827 7.38855C58.6265 10.3297 62.1037 14.3027 64.5078 18.9572C66.912 23.6117 68.1692 28.8049 68.1688 34.0789C68.142 39.5314 66.7828 44.889 64.2168 49.656C61.6508 54.423 57.9609 58.4456 53.4885 61.3517C50.575 63.2155 46.2929 65.5453 42.4444 65.7317C41.8663 65.7432 41.2925 65.6274 40.7613 65.392C40.23 65.1565 39.7536 64.8069 39.3638 64.3664C38.8106 63.7548 38.3957 63.0243 38.1489 62.2274C37.9021 61.4306 37.8295 60.5873 37.9364 59.7581L36.7755 59.623Z" fill="#CADE6C"/>
<path d="M18.9465 69.9999C23.7937 69.9999 27.7231 65.9464 27.7231 60.9462C27.7231 55.946 23.7937 51.8926 18.9465 51.8926C14.0993 51.8926 10.1699 55.946 10.1699 60.9462C10.1699 65.9464 14.0993 69.9999 18.9465 69.9999Z" fill="#CADE6C"/>
<path d="M18.9469 69.1983C23.365 69.1983 26.9466 65.5036 26.9466 60.9461C26.9466 56.3885 23.365 52.6938 18.9469 52.6938C14.5288 52.6938 10.9473 56.3885 10.9473 60.9461C10.9473 65.5036 14.5288 69.1983 18.9469 69.1983Z" fill="#49B0E2"/>
<path d="M37.0016 60.4526C36.6958 60.4529 36.3915 60.4074 36.0982 60.3176C33.5416 59.5394 31.3554 56.6877 29.937 54.6142C26.2014 49.1531 23.9204 42.6482 22.1813 37.0008C21.6393 35.2301 21.1876 33.4362 20.7855 31.754C20.7268 31.5024 20.6545 31.2322 20.5778 30.9526C20.1712 29.4149 19.6744 27.4951 20.2616 25.9575C21.3592 23.1197 27.4888 23.2316 29.5486 23.3527C29.628 23.3574 29.7056 23.3785 29.777 23.4148C29.8483 23.4511 29.9117 23.5019 29.9636 23.5641C30.0155 23.6263 30.0546 23.6987 30.0788 23.7768C30.1029 23.855 30.1116 23.9374 30.1041 24.0191C30.0914 24.1769 30.0198 24.3234 29.9043 24.4277C29.7889 24.532 29.6386 24.586 29.4853 24.5782C26.4679 24.3918 22.0232 24.718 21.3547 26.4141C20.903 27.5697 21.3547 29.2658 21.716 30.6311C21.7928 30.92 21.8696 31.1995 21.9329 31.4605C22.3304 33.1193 22.773 34.8946 23.288 36.628C24.9999 42.1869 27.2404 48.5846 30.8811 53.9059C31.6399 55.0149 33.9527 58.3931 36.4054 59.1433C36.7832 59.2552 37.1839 59.2552 37.5618 59.1433C40.0145 58.3931 42.3272 55.0149 43.0861 53.9059C46.7268 48.5846 48.9582 42.1869 50.6747 36.628C51.2122 34.89 51.6549 33.1193 52.0524 31.4605C52.1156 31.1995 52.1924 30.92 52.2692 30.6311C52.6305 29.2658 53.0777 27.5697 52.6305 26.4141C51.9711 24.718 47.5218 24.3872 44.4999 24.5782C44.3466 24.586 44.1963 24.532 44.0809 24.4277C43.9654 24.3234 43.8938 24.1769 43.8811 24.0191C43.8737 23.9374 43.8823 23.855 43.9064 23.7768C43.9306 23.6987 43.9697 23.6263 44.0216 23.5641C44.0735 23.5019 44.137 23.4511 44.2083 23.4148C44.2796 23.3785 44.3573 23.3574 44.4367 23.3527C46.51 23.2316 52.6215 23.1197 53.7237 25.9575C54.3199 27.4951 53.814 29.4149 53.4029 30.9526C53.3307 31.2322 53.2584 31.5024 53.1997 31.754C52.7977 33.4315 52.346 35.2301 51.7994 37.0008C50.0649 42.6482 47.7838 49.1531 44.0482 54.6142C42.6299 56.6877 40.4346 59.5394 37.887 60.3176C37.5996 60.4057 37.3015 60.4511 37.0016 60.4526Z" fill="#CADE6C"/>
<path d="M43.9977 25.058C44.5465 25.058 44.9914 24.5991 44.9914 24.0329C44.9914 23.4668 44.5465 23.0078 43.9977 23.0078C43.4488 23.0078 43.0039 23.4668 43.0039 24.0329C43.0039 24.5991 43.4488 25.058 43.9977 25.058Z" fill="#CADE6C"/>
<path d="M30.023 25.058C30.5719 25.058 31.0168 24.5991 31.0168 24.0329C31.0168 23.4668 30.5719 23.0078 30.023 23.0078C29.4742 23.0078 29.0293 23.4668 29.0293 24.0329C29.0293 24.5991 29.4742 25.058 30.023 25.058Z" fill="#CADE6C"/>
<path d="M59.5137 34.1255C59.5843 34.8869 59.9275 35.5939 60.4762 36.1084C61.0249 36.6229 61.7398 36.908 62.4814 36.908C63.2229 36.908 63.9378 36.6229 64.4865 36.1084C65.0353 35.5939 65.3784 34.8869 65.449 34.1255H59.5137Z" fill="#CADE6C"/>
<path d="M59.5137 33.5476H65.449C65.3784 32.7862 65.0353 32.0792 64.4865 31.5647C63.9378 31.0502 63.2229 30.7651 62.4814 30.7651C61.7398 30.7651 61.0249 31.0502 60.4762 31.5647C59.9275 32.0792 59.5843 32.7862 59.5137 33.5476Z" fill="#CADE6C"/>
<path d="M57.2338 34.7964C56.7631 35.3864 56.5223 36.1361 56.5582 36.8993C56.5941 37.6625 56.9041 38.3846 57.4279 38.9249C57.9516 39.4652 58.6516 39.7851 59.3915 39.8221C60.1314 39.8591 60.8581 39.6107 61.4301 39.1252L57.2338 34.7964Z" fill="#49B0E2"/>
<path d="M57.627 34.3909L61.8233 38.7197C62.2939 38.1297 62.5347 37.38 62.4988 36.6168C62.463 35.8536 62.1529 35.1315 61.6292 34.5912C61.1054 34.0509 60.4054 33.7311 59.6655 33.694C58.9257 33.657 58.199 33.9055 57.627 34.3909Z" fill="#49B0E2"/>
<path d="M39.5399 16.913H32.6921C32.385 16.913 32.0904 16.7875 31.8729 16.5639C31.6553 16.3404 31.5324 16.037 31.5312 15.7202V6.60595C31.5324 6.28915 31.6553 5.98576 31.8729 5.76219C32.0904 5.53862 32.385 5.41308 32.6921 5.41309H34.3183V5.58083C34.386 6.01869 34.6029 6.4173 34.9299 6.70506C35.2569 6.99283 35.6726 7.15089 36.1025 7.15089C36.5323 7.15089 36.9481 6.99283 37.2751 6.70506C37.6021 6.4173 37.819 6.01869 37.8867 5.58083V5.41309H39.5173C39.824 5.41309 40.1182 5.53877 40.335 5.76247C40.5519 5.98618 40.6737 6.28958 40.6737 6.60595V15.7015C40.6785 16.0171 40.5619 16.3218 40.3494 16.5489C40.1369 16.776 39.8458 16.9069 39.5399 16.913ZM32.6921 5.79051C32.4773 5.79051 32.2711 5.87824 32.1188 6.03453C31.9664 6.19082 31.8803 6.40294 31.8791 6.62458V15.7015C31.8803 15.9232 31.9664 16.1353 32.1188 16.2916C32.2711 16.4479 32.4773 16.5356 32.6921 16.5356H39.5399C39.7544 16.5356 39.96 16.4477 40.1117 16.2913C40.2633 16.1349 40.3485 15.9228 40.3485 15.7015V6.60595C40.3485 6.38474 40.2633 6.17258 40.1117 6.01616C39.96 5.85974 39.7544 5.77189 39.5399 5.77189H38.23C38.159 6.29882 37.9057 6.78147 37.5167 7.13081C37.1278 7.48015 36.6295 7.67257 36.1138 7.67257C35.5981 7.67257 35.0997 7.48015 34.7108 7.13081C34.3218 6.78147 34.0685 6.29882 33.9975 5.77189L32.6921 5.79051Z" fill="#CADE6C"/>
<path d="M34.4316 5.37549C34.4316 5.83645 34.6092 6.27852 34.9251 6.60447C35.2411 6.93042 35.6696 7.11352 36.1165 7.11352C36.5633 7.11352 36.9919 6.93042 37.3079 6.60447C37.6238 6.27852 37.8013 5.83645 37.8013 5.37549H34.4316Z" fill="#CADE6C"/>
<path d="M38.7775 9.85352H33.4609V10.0446H38.7775V9.85352Z" fill="#CADE6C"/>
<path d="M38.7775 11.1768H33.4609V11.3678H38.7775V11.1768Z" fill="#CADE6C"/>
<path d="M38.7775 12.5H33.4609V12.6911H38.7775V12.5Z" fill="#CADE6C"/>
<path d="M38.7775 13.8281H33.4609V14.0192H38.7775V13.8281Z" fill="#CADE6C"/>
<path d="M19.3991 24.5546H19.0513C18.8197 24.5485 18.5941 24.4771 18.399 24.3481C18.204 24.2191 18.0468 24.0376 17.9447 23.823C17.7318 23.4056 17.6864 22.9187 17.8182 22.4671L19.223 18.334L20.6278 22.4624C20.7598 22.9155 20.7144 23.404 20.5013 23.823C20.4003 24.0375 20.244 24.2192 20.0496 24.3482C19.8553 24.4773 19.6302 24.5487 19.3991 24.5546ZM18.2337 23.6646C18.3083 23.8249 18.4238 23.9613 18.5679 24.059C18.7119 24.1567 18.8791 24.212 19.0513 24.2191H19.3991C19.5706 24.2112 19.7368 24.1555 19.88 24.0578C20.0232 23.9602 20.138 23.8243 20.2122 23.6646C20.3816 23.3252 20.4188 22.9317 20.3161 22.5649L19.223 19.3544L18.1298 22.5743C18.0277 22.938 18.0649 23.3283 18.2337 23.6646Z" fill="#49B0E2"/>
<path d="M21.9681 19.0842H21.5706C21.3063 19.0767 21.049 18.9945 20.8268 18.8466C20.6046 18.6988 20.426 18.4908 20.3104 18.2455C20.0653 17.7701 20.0117 17.2143 20.1613 16.6985L21.7694 11.9736L23.3729 16.6892C23.5225 17.2076 23.4706 17.7657 23.2284 18.2455C23.1128 18.4908 22.9342 18.6988 22.712 18.8466C22.4898 18.9945 22.2325 19.0767 21.9681 19.0842ZM20.6401 18.0637C20.7247 18.2467 20.856 18.4024 21.0199 18.5141C21.1839 18.6258 21.3743 18.6892 21.5706 18.6975H21.9681C22.1645 18.6892 22.3549 18.6258 22.5188 18.5141C22.6828 18.4024 22.8141 18.2467 22.8987 18.0637C23.0909 17.6765 23.1329 17.2283 23.0161 16.8103L21.7694 13.1432L20.5182 16.8196C20.4014 17.235 20.4451 17.6809 20.6401 18.0637Z" fill="#CADE6C"/>
<path d="M16.1825 22.4437H15.8618C15.6468 22.4385 15.4373 22.3722 15.2564 22.2522C15.0756 22.1322 14.9302 21.963 14.8365 21.7634C14.6388 21.3763 14.595 20.9251 14.7145 20.5053L16.0199 16.6704L17.3253 20.5006C17.4465 20.9213 17.4044 21.3741 17.2079 21.7634C17.1137 21.9627 16.9683 22.1316 16.7875 22.2516C16.6067 22.3715 16.3974 22.438 16.1825 22.4437ZM15.103 21.6143C15.1711 21.7642 15.2779 21.8918 15.4118 21.9831C15.5457 22.0743 15.7014 22.1257 15.8618 22.1315H16.1825C16.3421 22.1249 16.4969 22.0731 16.6299 21.9819C16.763 21.8907 16.8691 21.7635 16.9369 21.6143C17.0941 21.2994 17.1297 20.9347 17.0362 20.5938L16.0199 17.6163L15.0036 20.6031C14.9089 20.9408 14.9445 21.3031 15.103 21.6143Z" fill="#CADE6C"/>
<path d="M18.8165 55.8904L18.9792 55.8857L19.205 61.193L18.6855 61.1092L18.8165 55.8904Z" fill="#F6F8FA"/>
<path d="M19.0598 53.4351H18.834V54.5114H19.0598V53.4351Z" fill="white"/>
<path d="M19.0598 67.3813H18.834V68.4577H19.0598V67.3813Z" fill="white"/>
<path d="M26.229 60.8301H25.1855V61.0631H26.229V60.8301Z" fill="white"/>
<path d="M12.7094 60.8301H11.666V61.0631H12.7094V60.8301Z" fill="white"/>
<path d="M23.4468 65.3909L23.2871 65.5557L24.0252 66.3165L24.1848 66.1517L23.4468 65.3909Z" fill="white"/>
<path d="M13.8745 55.5545L13.7148 55.7192L14.4526 56.4803L14.6123 56.3156L13.8745 55.5545Z" fill="white"/>
<path d="M14.4566 65.4108L13.7188 66.1719L13.8785 66.3366L14.6163 65.5755L14.4566 65.4108Z" fill="white"/>
<path d="M24.0152 55.5533L23.2773 56.3145L23.437 56.4792L24.1749 55.7181L24.0152 55.5533Z" fill="white"/>
<path d="M15.2285 61.0254V60.867L19.0002 60.7598V61.1325L15.2285 61.0254Z" fill="#F2F2F2"/>
<path d="M18.9468 61.5242C19.2562 61.5242 19.5069 61.2655 19.5069 60.9464C19.5069 60.6273 19.2562 60.3687 18.9468 60.3687C18.6375 60.3687 18.3867 60.6273 18.3867 60.9464C18.3867 61.2655 18.6375 61.5242 18.9468 61.5242Z" fill="#F6F8FA"/>
<path d="M41.9562 41.907C39.9642 41.907 38.835 45.1687 36.8475 45.1687C34.86 45.1687 33.4507 41.907 31.4271 41.907C31.4271 39.8987 29.9274 32.6157 30.6095 30.7239C31.1244 29.2887 34.1237 28.1611 35.524 28.683C36.3869 29.0206 37.3397 29.0206 38.2026 28.683C39.7113 28.1285 42.7196 29.3027 43.2165 30.8683C43.6501 32.3175 42.1685 39.8474 41.9562 41.907Z" fill="#CADE6C"/>
<path d="M36.8754 20.2677C37.5946 20.2659 38.2983 20.4836 38.8978 20.8935C39.4973 21.3033 39.9659 21.8869 40.2446 22.5709C40.5232 23.2549 40.5996 24.0086 40.4639 24.7372C40.3283 25.4658 39.9867 26.1367 39.4822 26.6655C38.9778 27.1943 38.3329 27.5574 37.6289 27.709C36.9248 27.8605 36.1931 27.7939 35.5257 27.5174C34.8582 27.2409 34.285 26.767 33.8782 26.1552C33.4713 25.5434 33.249 24.8211 33.2392 24.0792C33.2283 23.5807 33.3145 23.085 33.4926 22.6215C33.6708 22.1579 33.9373 21.736 34.2763 21.3806C34.6154 21.0252 35.0201 20.7436 35.4665 20.5524C35.913 20.3612 36.392 20.2644 36.8754 20.2677Z" fill="#CADE6C"/>
<path d="M58.5967 13.3296C58.6235 13.3284 58.6488 13.3166 58.6673 13.2966C58.6858 13.2766 58.6961 13.2501 58.6961 13.2224C58.6967 13.2086 58.6946 13.1947 58.6899 13.1818C58.6851 13.1688 58.6779 13.1569 58.6686 13.1469C58.6593 13.1369 58.6482 13.1289 58.6358 13.1235C58.6235 13.118 58.6101 13.1152 58.5967 13.1152H54.6037C54.5902 13.1152 54.5769 13.118 54.5646 13.1235C54.5522 13.1289 54.541 13.1369 54.5317 13.1469C54.5225 13.1569 54.5152 13.1688 54.5105 13.1818C54.5058 13.1947 54.5037 13.2086 54.5043 13.2224C54.5043 13.2501 54.5146 13.2766 54.5331 13.2966C54.5516 13.3166 54.5769 13.3284 54.6037 13.3296H55.0915V14.7927H53.3434V13.3296H53.8855C53.9127 13.3284 53.9384 13.3168 53.9577 13.2969C53.9769 13.2771 53.9882 13.2505 53.9894 13.2224C53.9894 13.194 53.9784 13.1667 53.9589 13.1466C53.9394 13.1265 53.913 13.1152 53.8855 13.1152H49.8969C49.8694 13.1152 49.8429 13.1265 49.8235 13.1466C49.804 13.1667 49.793 13.194 49.793 13.2224C49.793 13.2508 49.804 13.2781 49.8235 13.2982C49.8429 13.3183 49.8694 13.3296 49.8969 13.3296H50.3802V14.7927H49.8969C49.8702 14.7921 49.8444 14.8021 49.8247 14.8207C49.8145 14.83 49.8064 14.8415 49.801 14.8544C49.7955 14.8673 49.7928 14.8812 49.793 14.8952V21.4187C49.7925 21.4328 49.7951 21.4468 49.8005 21.4597C49.806 21.4726 49.8143 21.4841 49.8247 21.4933C49.8439 21.5131 49.8697 21.5248 49.8969 21.5259H58.5967C58.6239 21.5248 58.6497 21.5131 58.669 21.4933C58.687 21.4729 58.6967 21.4462 58.6961 21.4187V14.8952C58.6958 14.8679 58.6862 14.8415 58.669 14.8207C58.6493 14.8021 58.6234 14.7921 58.5967 14.7927H58.0547V13.3296H58.5967ZM57.8514 15.5615H55.2948V15.0024H57.8514V15.5615ZM55.2948 15.7712H57.8514V18.9398C57.853 19.1132 57.8207 19.2851 57.7562 19.4453C57.6918 19.6054 57.5966 19.7504 57.4765 19.8717C57.2356 20.1164 56.9111 20.2536 56.5731 20.2536C56.235 20.2536 55.9105 20.1164 55.6697 19.8717C55.5495 19.7504 55.4544 19.6054 55.3899 19.4453C55.3255 19.2851 55.2931 19.1132 55.2948 18.9398V15.7712ZM53.1356 13.3296V14.7927H50.579V13.3296H53.1356ZM53.1356 15.5615H50.579V15.0024H53.1356V15.5615ZM50.579 15.7712H53.1356V18.9398C53.1373 19.1132 53.1049 19.2851 53.0405 19.4453C52.976 19.6054 52.8809 19.7504 52.7607 19.8717C52.5199 20.1164 52.1954 20.2536 51.8573 20.2536C51.5193 20.2536 51.1948 20.1164 50.9539 19.8717C50.8338 19.7504 50.7386 19.6054 50.6742 19.4453C50.6097 19.2851 50.5774 19.1132 50.579 18.9398V15.7712ZM58.4883 21.3162H49.9963V21.0646H58.4928L58.4883 21.3162ZM58.4883 15.0024V20.8549H49.9963V15.0024H50.3802V18.9398C50.3823 19.1398 50.4234 19.3373 50.501 19.5207C50.5786 19.704 50.6911 19.8693 50.8319 20.0068C50.9684 20.1517 51.1312 20.2674 51.311 20.3474C51.4908 20.4273 51.6841 20.4699 51.8799 20.4728C52.0758 20.471 52.2695 20.4288 52.4494 20.3488C52.6294 20.2688 52.792 20.1525 52.9279 20.0068C53.0687 19.8693 53.1812 19.704 53.2588 19.5207C53.3364 19.3373 53.3775 19.1398 53.3796 18.9398V15.0024H55.1276V18.9398C55.1297 19.1398 55.1708 19.3373 55.2484 19.5207C55.326 19.704 55.4385 19.8693 55.5793 20.0068C55.8589 20.2903 56.2353 20.4491 56.6273 20.4491C57.0193 20.4491 57.3956 20.2903 57.6752 20.0068C57.8161 19.8693 57.9286 19.704 58.0062 19.5207C58.0838 19.3373 58.1249 19.1398 58.1269 18.9398V15.0024H58.4883ZM57.8469 14.7927H55.2902V13.3296H57.8469V14.7927Z" fill="#49B0E2"/>
<path d="M55.295 15.7715H57.8516V18.94C57.8533 19.1134 57.8209 19.2854 57.7565 19.4455C57.692 19.6057 57.5969 19.7507 57.4767 19.8719C57.2359 20.1167 56.9114 20.2539 56.5733 20.2539C56.2352 20.2539 55.9107 20.1167 55.6699 19.8719C55.5497 19.7507 55.4546 19.6057 55.3901 19.4455C55.3257 19.2854 55.2933 19.1134 55.295 18.94V15.7715Z" fill="#094963"/>
<path d="M50.5847 15.7715H53.1368V18.94C53.1395 19.1136 53.1076 19.2858 53.0431 19.4461C52.9786 19.6064 52.8829 19.7514 52.7619 19.8719C52.521 20.1167 52.1965 20.2539 51.8585 20.2539C51.5204 20.2539 51.1959 20.1167 50.9551 19.8719C50.8349 19.7507 50.7397 19.6057 50.6753 19.4455C50.6109 19.2854 50.5785 19.1134 50.5801 18.94L50.5847 15.7715Z" fill="#CADE6C"/>
<path d="M54.7538 53.1976C54.7598 53.2185 54.7724 53.2367 54.7896 53.2494C54.8068 53.2621 54.8275 53.2685 54.8486 53.2676C54.8695 53.2677 54.89 53.2617 54.9077 53.2501C54.9253 53.2385 54.9393 53.2219 54.948 53.2023L55.8514 50.332L56.6238 47.9369L57.1071 50.3413V50.3786C57.1132 50.4007 57.1263 50.4201 57.1443 50.4336C57.1623 50.4471 57.1843 50.454 57.2065 50.4531H59.4605C59.4737 50.4562 59.4875 50.4562 59.5007 50.4531C59.5139 50.45 59.5263 50.4439 59.5369 50.4351C59.5475 50.4264 59.5561 50.4153 59.562 50.4027C59.5679 50.3901 59.5709 50.3763 59.5709 50.3623C59.5709 50.3483 59.5679 50.3345 59.562 50.3218C59.5561 50.3092 59.5475 50.2981 59.5369 50.2894C59.5263 50.2807 59.5139 50.2745 59.5007 50.2714C59.4875 50.2683 59.4737 50.2683 59.4605 50.2714H57.3194L56.7684 47.5315C56.7625 47.5102 56.7501 47.4914 56.733 47.4779C56.7159 47.4645 56.695 47.4572 56.6735 47.457C56.6521 47.4538 56.6303 47.4586 56.6121 47.4706C56.5939 47.4826 56.5804 47.5009 56.5741 47.5222L55.6707 50.318L54.8667 52.8202L54.1575 50.304V50.2575C54.1488 50.2379 54.1348 50.2212 54.1172 50.2097C54.0996 50.1981 54.0791 50.192 54.0582 50.1922H51.6099C51.5873 50.1876 51.5637 50.1916 51.5438 50.2036C51.5238 50.2157 51.5088 50.2348 51.5015 50.2575C51.4969 50.2868 51.4969 50.3166 51.5015 50.346C51.5015 50.3832 51.5286 50.4205 51.5602 50.4345C51.5855 50.4408 51.6118 50.4408 51.637 50.4345H53.9904L54.7538 53.1976Z" fill="#CADE6C"/>
<path d="M54.849 53.295C54.822 53.2963 54.7954 53.2883 54.7733 53.2723C54.7513 53.2563 54.735 53.2331 54.727 53.2065L53.9546 50.49H51.6238C51.5956 50.4968 51.5662 50.4968 51.538 50.49C51.5073 50.4661 51.4837 50.4337 51.4701 50.3966C51.4565 50.3595 51.4535 50.3191 51.4612 50.2803C51.4686 50.2524 51.4854 50.2281 51.5086 50.2119C51.5318 50.1957 51.5598 50.1885 51.5877 50.1918H54.0404C54.0677 50.1917 54.0943 50.2001 54.1169 50.2159C54.1395 50.2317 54.1569 50.2541 54.1669 50.2803L54.858 52.7499L56.5428 47.5264C56.5516 47.5007 56.5682 47.4786 56.5902 47.4635C56.6122 47.4484 56.6384 47.441 56.6648 47.4426C56.6918 47.4418 56.7182 47.4507 56.7396 47.4677C56.761 47.4846 56.776 47.5087 56.7822 47.5358L57.3333 50.257H59.4608C59.4769 50.2557 59.493 50.2577 59.5082 50.2629C59.5235 50.268 59.5376 50.2763 59.5498 50.2872C59.562 50.298 59.572 50.3111 59.5792 50.326C59.5864 50.3408 59.5907 50.357 59.5918 50.3735C59.5895 50.4073 59.5745 50.4388 59.5501 50.4614C59.5256 50.484 59.4936 50.4959 59.4608 50.4946H57.2385C57.2097 50.4955 57.1816 50.4864 57.1586 50.4686C57.1356 50.4508 57.1191 50.4255 57.112 50.3968V50.3595L56.6603 48.0576L54.998 53.2252C54.9852 53.2532 54.9632 53.2755 54.9359 53.2883C54.9086 53.3011 54.8778 53.3035 54.849 53.295ZM52.3149 50.434H53.9952L54.7722 53.1739C54.7776 53.1878 54.787 53.1997 54.7991 53.208C54.8112 53.2163 54.8254 53.2207 54.8399 53.2205C54.8552 53.2217 54.8704 53.2178 54.8834 53.2094C54.8964 53.201 54.9065 53.1886 54.9122 53.1739L56.6377 47.8107L57.1526 50.3502C57.1568 50.3662 57.1664 50.3801 57.1796 50.3895C57.1929 50.3989 57.2089 50.4031 57.2249 50.4014H59.4608C59.5015 50.4014 59.5376 50.3781 59.5376 50.3409C59.5376 50.3036 59.5015 50.2803 59.4608 50.2803H57.3017V50.257L56.7461 47.5172C56.7414 47.5024 56.7323 47.4895 56.7202 47.4803C56.708 47.4711 56.6934 47.466 56.6783 47.4658C56.6632 47.4654 56.6482 47.4696 56.6354 47.4779C56.6225 47.4862 56.6123 47.4982 56.6061 47.5125L54.867 52.9083L54.1262 50.2616C54.1205 50.247 54.1105 50.2346 54.0975 50.2262C54.0845 50.2178 54.0692 50.2139 54.054 50.215H51.6012C51.5606 50.215 51.5335 50.215 51.5244 50.2616C51.5179 50.286 51.5179 50.3118 51.5244 50.3362C51.5267 50.3505 51.532 50.3641 51.5398 50.3761C51.5475 50.3882 51.5577 50.3984 51.5696 50.4061C51.5904 50.4109 51.612 50.4109 51.6328 50.4061L52.3149 50.434Z" fill="#CADE6C"/>
<path d="M59.6224 50.3177C59.6232 49.5893 59.4209 48.876 59.0397 48.2629C58.6594 47.6534 58.1033 47.1824 57.4497 46.9163C57.0896 46.7719 56.7067 46.6977 56.3204 46.6973C55.6741 46.6979 55.0436 46.9028 54.5136 47.2844C53.9837 46.9028 53.3531 46.6979 52.7068 46.6973C52.3205 46.6972 51.9375 46.7715 51.5776 46.9163C50.9226 47.1821 50.365 47.6531 49.983 48.2629C49.6835 48.7462 49.4934 49.2929 49.4269 49.8625C49.3604 50.432 49.4193 51.0097 49.5991 51.5526C49.693 51.8158 49.8255 52.0625 49.9921 52.2842C50.3468 52.7519 50.7513 53.1771 51.1981 53.5516C51.8769 54.1303 52.5905 54.6641 53.3347 55.1498C53.9309 55.5412 54.3736 55.7975 54.4414 55.8394H54.5452C55.3021 55.3939 56.0363 54.9087 56.745 54.3856C57.3178 53.9711 57.8598 53.5132 58.3666 53.0157C58.5945 52.7894 58.8044 52.5448 58.9945 52.2842C59.1611 52.0625 59.2936 51.8158 59.3875 51.5526C59.5147 51.1764 59.5818 50.7814 59.5862 50.383V50.3224L59.6224 50.3177ZM51.7357 50.4436H54.0845L54.8524 52.997C54.8576 53.0234 54.8714 53.0471 54.8916 53.0641C54.9118 53.0811 54.937 53.0904 54.9631 53.0904C54.9891 53.0904 55.0144 53.0811 55.0345 53.0641C55.0547 53.0471 55.0686 53.0234 55.0737 52.997L55.9771 50.3411L56.7089 48.2256L57.1606 50.3504V50.4016C57.1658 50.4288 57.1798 50.4533 57.2003 50.4712C57.2209 50.489 57.2467 50.4989 57.2735 50.4995H59.3423C59.3286 50.8269 59.2677 51.1504 59.1616 51.4594C59.0777 51.6982 58.9573 51.9216 58.8048 52.1211C58.4614 52.5727 58.0705 52.9837 57.6394 53.3465C56.9687 53.9183 56.2625 54.4444 55.5254 54.9215C55.015 55.2616 54.622 55.4993 54.4775 55.5785C54.2471 55.4434 53.3211 54.8889 52.3455 54.1806C51.7847 53.7735 51.2534 53.325 50.7555 52.8386C50.5372 52.6197 50.3349 52.3846 50.1502 52.135C49.9994 51.9344 49.8791 51.7113 49.7933 51.4734C49.6701 51.1046 49.6075 50.7171 49.6081 50.3271C49.6085 49.65 49.7966 48.9871 50.1502 48.4166C50.504 47.8514 51.0205 47.4147 51.6273 47.1679C51.9627 47.0326 52.3196 46.9631 52.6797 46.9628C53.3042 46.9648 53.9118 47.1721 54.4142 47.5546C54.4336 47.568 54.4564 47.5752 54.4798 47.5752C54.5031 47.5752 54.5259 47.568 54.5452 47.5546C55.0477 47.1721 55.6553 46.9648 56.2798 46.9628C56.6384 46.9631 56.9939 47.0327 57.3277 47.1679C57.9351 47.4136 58.4519 47.8506 58.8048 48.4166C59.1513 48.9732 59.3391 49.6191 59.3468 50.2805H57.3639L56.8263 47.7969C56.8221 47.7702 56.809 47.7457 56.7892 47.7278C56.7694 47.71 56.7442 47.6998 56.7179 47.699C56.6927 47.6974 56.6676 47.7043 56.6465 47.7186C56.6253 47.7329 56.6092 47.7538 56.6005 47.7783L55.6971 50.3783L54.9292 52.6056L54.2516 50.3691V50.3085C54.2447 50.283 54.23 50.2606 54.2096 50.2446C54.1892 50.2286 54.1643 50.22 54.1387 50.2199H51.7357C51.7068 50.2256 51.6807 50.2416 51.662 50.265C51.6432 50.2883 51.633 50.3177 51.633 50.3481C51.633 50.3784 51.6432 50.4078 51.662 50.4312C51.6807 50.4546 51.7068 50.4705 51.7357 50.4762V50.4436Z" fill="#49B0E2"/>
<path d="M19.9893 42.0001C19.811 41.8019 19.596 41.6425 19.3571 41.5312C19.1182 41.42 18.8601 41.3592 18.598 41.3524H11.6553C11.4349 41.3524 11.2235 41.2621 11.0677 41.1013C10.9118 40.9405 10.8242 40.7224 10.8242 40.4951C10.8242 40.2677 10.9118 40.0496 11.0677 39.8888C11.2235 39.728 11.4349 39.6377 11.6553 39.6377L12.3239 39.7635V39.9965H11.6553C11.5272 39.9965 11.4042 40.049 11.3136 40.1425C11.2229 40.236 11.172 40.3628 11.172 40.4951C11.172 40.6273 11.2229 40.7541 11.3136 40.8476C11.4042 40.9411 11.5272 40.9937 11.6553 40.9937H18.5935C18.9075 40.9963 19.2175 41.0664 19.5037 41.1996C19.7899 41.3328 20.046 41.5261 20.2558 41.7671L19.9893 42.0001Z" fill="#49B0E2"/>
<path d="M11.1999 36.1898C11.1625 36.1888 11.1261 36.1769 11.0949 36.1555C11.0637 36.134 11.0391 36.1039 11.0238 36.0687L11.34 35.9056C11.321 35.8766 11.2942 35.8541 11.2628 35.8408C11.2315 35.8275 11.197 35.8241 11.1638 35.831C11.1317 35.8383 11.1023 35.8548 11.0791 35.8788C11.0559 35.9028 11.0398 35.9331 11.0328 35.9662C11.0328 35.9382 10.9741 35.7425 10.6986 34.4611C10.6037 33.9951 10.6127 33.4174 10.3011 33.0306C9.84935 32.4808 9.32989 32.7371 8.88722 33.1471L8.65234 32.8768C9.17632 32.4109 10.0436 32.0754 10.5721 32.7417C10.9063 33.1611 10.9018 33.874 11.0238 34.3819C11.1548 34.9923 11.2812 35.407 11.3174 35.6773C11.3535 35.9475 11.4348 36.1432 11.2722 36.1759C11.25 36.1878 11.2248 36.1926 11.1999 36.1898Z" fill="#49B0E2"/>
<path d="M18.2648 43.8455C18.7164 43.8455 19.0824 43.4679 19.0824 43.0021C19.0824 42.5363 18.7164 42.1587 18.2648 42.1587C17.8133 42.1587 17.4473 42.5363 17.4473 43.0021C17.4473 43.4679 17.8133 43.8455 18.2648 43.8455Z" fill="#49B0E2"/>
<path d="M12.7219 43.8455C13.1734 43.8455 13.5395 43.4679 13.5395 43.0021C13.5395 42.5363 13.1734 42.1587 12.7219 42.1587C12.2703 42.1587 11.9043 42.5363 11.9043 43.0021C11.9043 43.4679 12.2703 43.8455 12.7219 43.8455Z" fill="#49B0E2"/>
<path d="M8.61235 33.7291C8.91172 33.7291 9.15439 33.4788 9.15439 33.17C9.15439 32.8612 8.91172 32.6108 8.61235 32.6108C8.31299 32.6108 8.07031 32.8612 8.07031 33.17C8.07031 33.4788 8.31299 33.7291 8.61235 33.7291Z" fill="#49B0E2"/>
<path d="M18.9738 40.0198H12.2841C12.1527 40.02 12.0251 39.9739 11.9225 39.8892C11.8199 39.8045 11.7483 39.6862 11.7195 39.5539C11.5343 38.622 10.9064 35.4301 10.7574 34.843C10.7229 34.7385 10.7139 34.6269 10.7313 34.518C10.7486 34.4091 10.7917 34.3063 10.8568 34.2186C10.9446 34.1348 11.0491 34.0718 11.163 34.034C11.277 33.9962 11.3975 33.9844 11.5162 33.9996H19.6469C19.7753 33.988 19.9046 34.0049 20.0261 34.0491C20.1476 34.0933 20.2586 34.1638 20.3515 34.2559C20.401 34.3152 20.4384 34.3841 20.4617 34.4585C20.485 34.5329 20.4936 34.6114 20.4871 34.6893C20.4554 34.857 19.7146 38.7152 19.5836 39.2836C19.4301 39.9779 18.9964 40.0152 18.9784 40.0198H18.9738ZM11.4349 34.3491C11.3229 34.3406 11.2117 34.3755 11.1233 34.447C11.0967 34.4912 11.0808 34.5413 11.0769 34.5932C11.073 34.6451 11.0811 34.6972 11.1007 34.7452C11.2452 35.337 11.8776 38.5148 12.0673 39.4747C12.0777 39.5261 12.1049 39.5722 12.1444 39.6053C12.1839 39.6384 12.2333 39.6565 12.2841 39.6564H18.9603C18.9603 39.6564 19.159 39.6005 19.2494 39.1905C19.3713 38.6406 20.1031 34.829 20.1528 34.6194C20.1523 34.5638 20.1313 34.5105 20.0941 34.4702C20.0312 34.4185 19.9586 34.3806 19.8809 34.3589C19.8032 34.3373 19.722 34.3323 19.6424 34.3444H11.4349V34.3491Z" fill="#CADE6C"/>
<path d="M17.5375 34.1343L16.9395 39.8042L17.2897 39.8435L17.8878 34.1736L17.5375 34.1343Z" fill="#CADE6C"/>
<path d="M13.7331 34.1428L13.3828 34.1821L13.9818 39.8519L14.3321 39.8126L13.7331 34.1428Z" fill="#CADE6C"/>
<path d="M14.3307 36.2505C14.3849 36.148 14.4482 36.0501 14.5024 35.9476V35.915H11.1914V36.2785H14.2991L14.3307 36.2505Z" fill="#CADE6C"/>
<path d="M16.8047 35.9149H16.8273C16.9397 35.9998 17.0184 36.124 17.0486 36.2643H20.0344V35.9009L16.8047 35.9149Z" fill="#CADE6C"/>
<path d="M14.2899 37.7925H11.5391V38.1512H14.3983C14.3178 38.051 14.2788 37.9221 14.2899 37.7925Z" fill="#CADE6C"/>
<path d="M16.9642 37.7925C16.9655 37.8589 16.9538 37.9249 16.9297 37.9866C16.9056 38.0482 16.8698 38.1042 16.8242 38.1512H19.6835V37.7925H16.9642Z" fill="#CADE6C"/>
<path d="M15.6093 38.8596C15.2607 38.8596 14.9199 38.7529 14.6301 38.553C14.3403 38.3531 14.1145 38.0691 13.9813 37.7367C13.8481 37.4044 13.8135 37.0388 13.8818 36.6861C13.9502 36.3335 14.1184 36.0097 14.3652 35.7557C14.612 35.5017 14.9264 35.329 15.2684 35.2595C15.6104 35.1899 15.9648 35.2265 16.2866 35.3648C16.6084 35.503 16.8832 35.7367 17.0762 36.0362C17.2693 36.3356 17.3718 36.6874 17.3709 37.047C17.3709 37.2855 17.3253 37.5215 17.2367 37.7417C17.1482 37.9619 17.0183 38.162 16.8547 38.3304C16.691 38.4988 16.4968 38.6322 16.2831 38.723C16.0694 38.8138 15.8404 38.8602 15.6093 38.8596ZM15.6093 35.5979C15.3295 35.5969 15.0557 35.6817 14.8226 35.8414C14.5895 36.0011 14.4076 36.2286 14.2999 36.495C14.1922 36.7614 14.1635 37.0548 14.2176 37.338C14.2716 37.6212 14.4059 37.8815 14.6034 38.086C14.801 38.2904 15.0529 38.4298 15.3273 38.4864C15.6017 38.5431 15.8862 38.5145 16.1448 38.4042C16.4034 38.294 16.6245 38.107 16.78 37.8671C16.9356 37.6272 17.0186 37.345 17.0186 37.0563C17.0198 36.8644 16.9842 36.6741 16.914 36.4964C16.8438 36.3187 16.7402 36.157 16.6093 36.0207C16.4784 35.8843 16.3226 35.776 16.151 35.7018C15.9794 35.6277 15.7953 35.5892 15.6093 35.5886V35.5979Z" fill="#CADE6C"/>
<path d="M16.0599 37.7739C15.8822 37.7592 15.7163 37.6761 15.5954 37.5409C15.4744 37.4058 15.4073 37.2286 15.4073 37.0447C15.4073 36.8608 15.4744 36.6836 15.5954 36.5484C15.7163 36.4133 15.8822 36.3301 16.0599 36.3155C16.1178 36.316 16.1755 36.3238 16.2316 36.3387C16.097 36.2496 15.9397 36.2042 15.7799 36.2083C15.5753 36.224 15.384 36.319 15.2445 36.4741C15.1049 36.6292 15.0273 36.8331 15.0273 37.0447C15.0273 37.2563 15.1049 37.4601 15.2445 37.6152C15.384 37.7703 15.5753 37.8653 15.7799 37.8811C15.9397 37.8852 16.097 37.8397 16.2316 37.7506C16.1755 37.7655 16.1178 37.7734 16.0599 37.7739Z" fill="#CADE6C"/>
<path d="M116.519 63.6906H112.309C111.005 63.6906 110.354 63.0118 110.354 61.6543V60.5034H110.805V61.645C110.805 62.6888 111.289 63.192 112.246 63.192H114.22C114.712 63.192 114.893 62.987 114.893 62.2321V59.1475H115.367V62.4511C115.378 62.7051 115.333 62.9581 115.236 63.192H116.501L116.519 63.6906ZM113.687 60.4615L113.344 60.4894C113.343 60.4488 113.334 60.4088 113.317 60.3719C113.301 60.335 113.277 60.3019 113.248 60.2745C113.219 60.2471 113.185 60.226 113.148 60.2125C113.111 60.199 113.071 60.1934 113.032 60.1959C112.811 60.1959 112.693 60.3496 112.693 60.6618C112.689 60.7706 112.717 60.8781 112.775 60.9694H113.678V61.3142H112.074V60.9694H112.404C112.37 60.8722 112.352 60.7699 112.35 60.6665C112.339 60.569 112.348 60.47 112.378 60.3766C112.407 60.2833 112.456 60.1977 112.521 60.1258C112.586 60.0539 112.666 59.9976 112.754 59.9606C112.842 59.9236 112.937 59.9069 113.032 59.9116C113.189 59.8984 113.345 59.9482 113.467 60.0507C113.589 60.1531 113.668 60.3003 113.687 60.4615Z" fill="white"/>
<path d="M118.019 60.5083V62.4607C118.019 63.2808 117.685 63.6908 117.021 63.6908H116.42V63.2248H116.872C116.986 63.2396 117.102 63.2191 117.204 63.166C117.307 63.113 117.393 63.0296 117.45 62.9266C117.534 62.7141 117.569 62.4846 117.554 62.2557V60.5222L118.019 60.5083ZM117.116 64.7625H116.637V64.1708H117.116V64.7625ZM118.019 64.7625H117.536V64.1708H118.019V64.7625Z" fill="white"/>
<path d="M122.788 63.6909H118.723V63.2016H121.239C121.263 62.6763 121.148 62.1541 120.904 61.6919C120.772 61.4711 120.587 61.2887 120.367 61.1616C120.148 61.0345 119.9 60.9669 119.649 60.965H119.463V60.499C120.9 60.499 121.654 61.3936 121.722 63.1969H122.802L122.788 63.6909Z" fill="white"/>
<path d="M124.283 60.5083V62.4607C124.283 63.2808 123.948 63.6908 123.28 63.6908H122.697V63.2248H123.149C123.263 63.2396 123.379 63.2191 123.482 63.166C123.585 63.113 123.67 63.0296 123.727 62.9266C123.809 62.7136 123.843 62.4842 123.827 62.2557V60.5222L124.283 60.5083ZM123.379 64.7625H122.896V64.1708H123.379V64.7625ZM124.283 64.7625H123.799V64.1708H124.283V64.7625Z" fill="white"/>
<path d="M131.908 63.6908H131.808C131.522 63.7061 131.239 63.6183 131.008 63.4424C130.778 63.2664 130.613 63.0133 130.544 62.7262C130.521 63.2989 130.282 63.8397 129.878 64.2326C129.473 64.6255 128.935 64.8391 128.38 64.8277C128.075 64.8171 127.775 64.7435 127.499 64.6114C127.222 64.4792 126.974 64.2912 126.769 64.0583C126.563 63.8255 126.406 63.5526 126.305 63.2557C126.204 62.9589 126.161 62.6441 126.18 62.3301V61.6452H126.663V62.2556C126.663 63.5184 127.323 64.3525 128.403 64.3525C128.833 64.3526 129.247 64.1851 129.563 63.8836C129.879 63.5821 130.072 63.1687 130.105 62.7262C130.119 62.6024 130.106 62.4769 130.067 62.3589C130.028 62.2409 129.964 62.1333 129.88 62.0441C129.796 61.9548 129.693 61.8861 129.58 61.8429C129.466 61.7997 129.345 61.783 129.225 61.7943V61.3283C129.348 61.319 129.472 61.319 129.595 61.3283C129.862 61.372 130.113 61.4877 130.322 61.6636C130.531 61.8396 130.692 62.0695 130.788 62.3301C131.04 63.0058 131.266 63.2295 131.777 63.2295H131.917L131.908 63.6908ZM128.231 65.9553H127.748V65.3729H128.231V65.9553ZM129.134 65.9553H128.651V65.3729H129.134V65.9553Z" fill="white"/>
<path d="M135.567 62.1112C135.585 62.3131 135.562 62.5165 135.499 62.7084C135.436 62.9004 135.335 63.0767 135.202 63.2262C135.07 63.3757 134.908 63.4951 134.729 63.5767C134.549 63.6583 134.354 63.7004 134.158 63.7002H131.732V63.2109H133.088C132.851 62.8996 132.731 62.511 132.749 62.1159C132.731 61.9121 132.755 61.7067 132.819 61.5132C132.883 61.3196 132.986 61.1421 133.121 60.9922C133.256 60.8424 133.421 60.7235 133.603 60.6433C133.786 60.5632 133.982 60.5235 134.181 60.527C135.025 60.5176 135.567 61.1467 135.567 62.1112ZM135.048 62.06C135.048 61.3611 134.741 60.9323 134.185 60.9323C133.63 60.9323 133.282 61.3983 133.282 62.1438C133.282 62.8894 133.616 63.2948 134.185 63.2948C134.754 63.2948 135.048 62.8708 135.048 62.0507V62.06ZM134.407 60.0144H133.919V59.418H134.407V60.0144Z" fill="white"/>
<path d="M143.477 63.6906H139.263C137.959 63.6906 137.307 63.0118 137.307 61.6543V60.5034H137.781V61.645C137.781 62.6888 138.264 63.192 139.222 63.192H141.191C141.688 63.192 141.864 62.987 141.864 62.2321V59.1475H142.343V62.4511C142.353 62.7051 142.309 62.9581 142.212 63.192H143.477V63.6906ZM140.645 60.4615L140.301 60.4894C140.3 60.4488 140.291 60.4088 140.275 60.3719C140.258 60.335 140.235 60.3019 140.206 60.2745C140.177 60.2471 140.143 60.226 140.106 60.2125C140.068 60.199 140.029 60.1934 139.99 60.1959C139.764 60.1959 139.651 60.3512 139.651 60.6618C139.646 60.7706 139.675 60.8781 139.732 60.9694H140.636V61.3142H139.028V60.9694H139.362C139.328 60.8722 139.309 60.7699 139.308 60.6665C139.296 60.569 139.306 60.47 139.335 60.3766C139.365 60.2833 139.414 60.1977 139.479 60.1258C139.544 60.0539 139.623 59.9976 139.711 59.9606C139.8 59.9236 139.895 59.9069 139.99 59.9116C140.144 59.9032 140.296 59.9552 140.415 60.0571C140.534 60.159 140.611 60.3034 140.631 60.4615H140.645Z" fill="white"/>
<path d="M145.676 63.6909H143.332V63.225H143.784C143.897 63.2393 144.012 63.2197 144.114 63.1685C144.217 63.1172 144.303 63.0365 144.362 62.9361C144.445 62.72 144.48 62.4877 144.466 62.2558V60.5223H144.94V62.4748C144.95 62.7287 144.906 62.9818 144.809 63.2156H145.713L145.676 63.6909ZM144.023 60.0051H143.54V59.4087H144.023V60.0051ZM144.927 60.0051H144.448V59.4087H144.927V60.0051Z" fill="white"/>
<path d="M150.97 63.6912H145.514V63.2019H149.647C149.647 63.1087 149.647 63.0249 149.647 62.9503C149.647 61.7668 149.041 61.0865 147.975 61.0865C147.721 61.0693 147.467 61.1251 147.241 61.2476C147.016 61.3702 146.827 61.5547 146.697 61.7808C146.629 61.7015 146.494 61.5617 146.282 61.3427C146.487 61.0921 146.746 60.8946 147.039 60.766C147.331 60.6373 147.649 60.5811 147.966 60.6019C149.322 60.6019 150.225 61.5338 150.225 62.9829V63.2019H150.97V63.6912Z" fill="white"/>
<path d="M156.296 63.6911H150.785V63.2018H151.418C151.901 63.2018 152.136 62.8384 152.136 62.1068V60.8487H152.615V62.0649C153.12 61.077 153.943 60.5039 154.697 60.5039C155.786 60.5039 156.332 61.3007 156.332 62.8803C156.332 63.1273 156.319 63.3975 156.296 63.6911ZM155.844 63.2251C155.844 63.0667 155.867 62.9222 155.867 62.7824C155.867 61.6921 155.415 60.9652 154.683 60.9652C153.852 60.9652 152.877 61.9623 152.515 63.104V63.2251H155.844Z" fill="white"/>
<path d="M106.446 61.2725H93.3828V63.0245H106.446V61.2725Z" fill="white"/>
<path d="M173.356 61.2725H160.293V63.0245H173.356V61.2725Z" fill="white"/>
</g>
<defs>
<filter id="filter0_d_718_3596" x="0" y="0" width="178" height="78" filterUnits="userSpaceOnUse" color-interpolation-filters="sRGB">
<feFlood flood-opacity="0" result="BackgroundImageFix"/>
<feColorMatrix in="SourceAlpha" type="matrix" values="0 0 0 0 0 0 0 0 0 0 0 0 0 0 0 0 0 0 127 0" result="hardAlpha"/>
<feOffset dy="4"/>
<feGaussianBlur stdDeviation="2"/>
<feComposite in2="hardAlpha" operator="out"/>
<feColorMatrix type="matrix" values="0 0 0 0 0 0 0 0 0 0 0 0 0 0 0 0 0 0 0.25 0"/>
<feBlend mode="normal" in2="BackgroundImageFix" result="effect1_dropShadow_718_3596"/>
<feBlend mode="normal" in="SourceGraphic" in2="effect1_dropShadow_718_3596" result="shape"/>
</filter>
</defs>
</svg>
