<svg width="24" height="24" viewBox="0 0 24 24" fill="none" xmlns="http://www.w3.org/2000/svg">
<path d="M18.53 9L13 3.47C12.8595 3.32931 12.6688 3.25018 12.47 3.25H8C7.27065 3.25 6.57118 3.53973 6.05546 4.05546C5.53973 4.57118 5.25 5.27065 5.25 6V18C5.25 18.7293 5.53973 19.4288 6.05546 19.9445C6.57118 20.4603 7.27065 20.75 8 20.75H16C16.7293 20.75 17.4288 20.4603 17.9445 19.9445C18.4603 19.4288 18.75 18.7293 18.75 18V9.5C18.7421 9.3116 18.6636 9.13309 18.53 9ZM13.25 5.81L16.19 8.75H13.25V5.81ZM16 19.25H8C7.66848 19.25 7.35054 19.1183 7.11612 18.8839C6.8817 18.6495 6.75 18.3315 6.75 18V6C6.75 5.66848 6.8817 5.35054 7.11612 5.11612C7.35054 4.8817 7.66848 4.75 8 4.75H11.75V9.5C11.7526 9.69811 11.8324 9.88737 11.9725 10.0275C12.1126 10.1676 12.3019 10.2474 12.5 10.25H17.25V18C17.25 18.3315 17.1183 18.6495 16.8839 18.8839C16.6495 19.1183 16.3315 19.25 16 19.25Z" fill="black"/>
<path d="M13.4895 14.8502C12.8746 14.4643 12.4119 13.8779 12.1795 13.1902C12.3948 12.5468 12.4598 11.8626 12.3695 11.1902C12.3407 11.0208 12.2581 10.8651 12.1339 10.7464C12.0097 10.6276 11.8506 10.5519 11.6801 10.5306C11.5096 10.5093 11.3367 10.5434 11.1871 10.628C11.0376 10.7126 10.9192 10.8431 10.8495 11.0002C10.7357 11.8086 10.8215 12.6326 11.0995 13.4002C10.7197 14.2874 10.2959 15.1552 9.82952 16.0002C9.11952 16.4002 8.14952 17.0002 7.99952 17.6902C7.87952 18.2502 8.92952 19.6902 10.7195 16.5702C11.5155 16.2747 12.3307 16.0341 13.1595 15.8502C13.7722 16.2005 14.4556 16.4089 15.1595 16.4602C15.3211 16.4644 15.4804 16.4207 15.6173 16.3346C15.7541 16.2486 15.8625 16.124 15.9288 15.9765C15.995 15.829 16.0162 15.6652 15.9896 15.5058C15.9631 15.3463 15.89 15.1982 15.7795 15.0802C15.3595 14.6502 14.1095 14.7702 13.4895 14.8502ZM8.70952 17.8502C8.98976 17.3706 9.35985 16.9496 9.79952 16.6102C9.11952 17.6902 8.70952 17.8802 8.70952 17.8602V17.8502ZM11.6295 11.0402C11.8895 11.0402 11.8695 12.1902 11.6895 12.5002C11.5539 12.0286 11.5334 11.5314 11.6295 11.0502V11.0402ZM10.7595 15.9202C11.0983 15.302 11.3924 14.6604 11.6395 14.0002C11.9044 14.4931 12.2729 14.923 12.7195 15.2602C12.0486 15.4282 11.3929 15.6523 10.7595 15.9302V15.9202ZM15.4595 15.7402C15.4595 15.7402 15.2795 15.9602 14.1295 15.4602C15.3795 15.3802 15.5895 15.6702 15.4595 15.7502V15.7402Z" fill="black"/>
</svg>
