<svg width="20" height="18" viewBox="0 0 20 18" fill="none" xmlns="http://www.w3.org/2000/svg">
<path d="M0.625 11.376C0.79076 11.376 0.949732 11.4418 1.06694 11.559C1.18415 11.6762 1.25 11.8352 1.25 12.001V15.126C1.25 15.4575 1.3817 15.7754 1.61612 16.0099C1.85054 16.2443 2.16848 16.376 2.5 16.376H17.5C17.8315 16.376 18.1495 16.2443 18.3839 16.0099C18.6183 15.7754 18.75 15.4575 18.75 15.126V12.001C18.75 11.8352 18.8158 11.6762 18.9331 11.559C19.0503 11.4418 19.2092 11.376 19.375 11.376C19.5408 11.376 19.6997 11.4418 19.8169 11.559C19.9342 11.6762 20 11.8352 20 12.001V15.126C20 15.789 19.7366 16.4249 19.2678 16.8937C18.7989 17.3626 18.163 17.626 17.5 17.626H2.5C1.83696 17.626 1.20107 17.3626 0.732233 16.8937C0.263392 16.4249 0 15.789 0 15.126V12.001C0 11.8352 0.065848 11.6762 0.183058 11.559C0.300269 11.4418 0.45924 11.376 0.625 11.376Z" fill="#094963"/>
<path d="M9.55707 0.432641C9.61513 0.374437 9.6841 0.328258 9.76003 0.29675C9.83596 0.265242 9.91736 0.249023 9.99957 0.249023C10.0818 0.249023 10.1632 0.265242 10.2391 0.29675C10.315 0.328258 10.384 0.374437 10.4421 0.432641L14.1921 4.18264C14.3094 4.3 14.3754 4.45917 14.3754 4.62514C14.3754 4.79111 14.3094 4.95028 14.1921 5.06764C14.0747 5.185 13.9155 5.25093 13.7496 5.25093C13.5836 5.25093 13.4244 5.185 13.3071 5.06764L10.6246 2.38389V13.3751C10.6246 13.5409 10.5587 13.6999 10.4415 13.8171C10.3243 13.9343 10.1653 14.0001 9.99957 14.0001C9.83381 14.0001 9.67484 13.9343 9.55763 13.8171C9.44042 13.6999 9.37457 13.5409 9.37457 13.3751V2.38389L6.69207 5.06764C6.63396 5.12575 6.56497 5.17185 6.48905 5.2033C6.41312 5.23474 6.33175 5.25093 6.24957 5.25093C6.16739 5.25093 6.08601 5.23474 6.01009 5.2033C5.93417 5.17185 5.86518 5.12575 5.80707 5.06764C5.74896 5.00953 5.70286 4.94054 5.67141 4.86462C5.63997 4.7887 5.62378 4.70732 5.62378 4.62514C5.62378 4.54296 5.63997 4.46159 5.67141 4.38566C5.70286 4.30974 5.74896 4.24075 5.80707 4.18264L9.55707 0.432641Z" fill="#094963"/>
</svg>
