<svg width="113" height="114" viewBox="0 0 113 114" fill="none" xmlns="http://www.w3.org/2000/svg">
<circle cx="56.5" cy="57" r="56.5" fill="#0D0D0D" fill-opacity="0.1"/>
<g clip-path="url(#clip0_493_3320)">
<path d="M78.8097 56.1555V83.8374H66.8341V44.6574C66.8341 44.1674 66.6387 43.6974 66.2907 43.3509L55.4028 32.5091C55.0548 32.1626 54.8594 31.6926 54.8594 31.2026V30.1641L66.8349 30.2384V41.3849C66.8349 41.8825 67.0337 42.36 67.3868 42.7115L77.3387 52.62C78.2805 53.5575 78.8097 54.8298 78.8097 56.1555Z" fill="#0D0D0D"/>
<path d="M78.8109 30.2099V39.1434L72.1481 32.5107C71.8009 32.1601 71.6055 31.6934 71.6055 31.2009V30.1624L78.8109 30.2099Z" fill="#0D0D0D"/>
<path d="M62.6191 56.1555V83.8374H50.6435V44.6574C50.6435 44.1674 50.4481 43.6974 50.1001 43.3509L39.2114 32.5091C38.8634 32.1626 38.668 31.6926 38.668 31.2026V30.1641L50.6435 30.2384V41.3966C50.6435 41.8867 50.8389 42.3567 51.187 42.7031L61.1473 52.6183C62.0899 53.5575 62.6191 54.8298 62.6191 56.1555Z" fill="#0D0D0D"/>
<path d="M45.874 56.1539V83.8358H33.8984V42.1614L44.4014 52.6209C45.344 53.5559 45.874 54.8307 45.874 56.1539Z" fill="#0D0D0D"/>
<path d="M78.8109 30.2099V39.1434L72.1481 32.5107C71.8009 32.1601 71.6055 31.6934 71.6055 31.2009V30.1624L78.8109 30.2099Z" fill="#0D0D0D"/>
</g>
<defs>
<clipPath id="clip0_493_3320">
<rect width="44.9117" height="53.675" fill="white" transform="translate(33.8984 30.1624)"/>
</clipPath>
</defs>
</svg>
