<svg width="1000" height="1000" viewBox="0 0 1000 1000" xmlns="http://www.w3.org/2000/svg">
  <rect width="1000" height="1000" fill="#ffffff"/>
  <g transform="matrix(0.7,0,0,0.7,149.5757575757575,406.31655809789453)">
    <g transform="matrix(1,0,0,1,0.24000000000003752,0.13239615635731639)">
      <g>
        <g transform="matrix(1,0,0,1,0,23.191355249183992)">
          <g>
            <g>
              <g transform="matrix(1,0,0,1,0,0)">
                <path d="M8.7 0L3.75 0 0.1-32.75 2.95-32.75 6.3-2.5 6.85-2.5 11.25-18.3 13.9-18.3 18.1-2.5 18.7-2.5 22.05-32.75 24.9-32.75 21.25 0 16.2 0 12.6-14.1 12.45-14.1 8.7 0ZM28.35-11.85Q28.35-17.6 30.72-20.83 33.1-24.05 37.65-24.05 42.2-24.05 44.42-21.05 46.65-18.05 46.65-13.05L46.65-13.05 46.5-10.55 31.2-10.55Q31.45-6.8 33.2-4.48 34.95-2.15 38.02-2.15 41.1-2.15 45.25-3.6L45.25-3.6 46-1.1Q41.95 0.45 38.4 0.45L38.4 0.45Q33.5 0.45 30.92-2.83 28.35-6.1 28.35-11.85ZM37.85-21.5L37.85-21.5Q31.55-21.5 31.2-13.05L31.2-13.05 43.8-13.05Q43.8-21.5 37.85-21.5ZM60.8-12L60.8-12 56.2-12 56.2 0 53.45 0 53.45-32.75 60.8-32.75Q66.8-32.75 69.67-30.48 72.55-28.2 72.55-22.6 72.55-17 69.65-14.5 66.75-12 60.8-12ZM60.8-30.25L60.8-30.25 56.2-30.25 56.2-14.5 60.8-14.5Q65.4-14.5 67.52-16.35 69.65-18.2 69.65-22.55 69.65-26.9 67.55-28.58 65.45-30.25 60.8-30.25ZM86.94-21.25L81.14-21.25 81.14-23.75 89.59-23.75 89.59-2.5 95.39-2.5 95.39 0 80.74 0 80.74-2.5 86.94-2.5 86.94-21.25ZM88.04-28.55Q87.14-28.55 86.52-29.18 85.89-29.8 85.89-30.78 85.89-31.75 86.52-32.33 87.14-32.9 88.04-32.9 88.94-32.9 89.52-32.35 90.09-31.8 90.09-30.8 90.09-29.8 89.52-29.18 88.94-28.55 88.04-28.55ZM120.64-16L117.94-16 117.94-20.95Q115.49-21.5 114.04-21.5L114.04-21.5Q110.44-21.5 108.67-18.95 106.89-16.4 106.89-11.9 106.89-7.4 108.69-4.78 110.49-2.15 114.04-2.15L114.04-2.15Q116.29-2.15 120.29-3.55L120.29-3.55 121.04-1.05Q117.09 0.45 114.09 0.45L114.09 0.45Q109.19 0.45 106.62-2.83 104.04-6.1 104.04-11.95 104.04-17.8 106.59-20.93 109.14-24.05 114.09-24.05L114.09-24.05Q117.39-24.05 120.64-23L120.64-23 120.64-16ZM142.94-23.75L142.94-23.75 145.94-23.75Q142.44-18.1 137.89-12.65L137.89-12.65Q140.99-8.25 146.24 0L146.24 0 143.24 0Q139.24-6.5 135.99-11.05L135.99-11.05 132.49-10.6 132.49 0 129.84 0 129.84-33.2 132.49-33.2 132.49-13 135.74-13.5Q139.29-18.1 142.94-23.75Z" fill="#000000"/>
              </g>
            </g>
          </g>
        </g>
      </g>
    </g>
  </g>
</svg> 