<svg width="35" height="35" viewBox="0 0 35 35" fill="none" xmlns="http://www.w3.org/2000/svg">
<rect width="35" height="35" rx="17.5" fill="#FAFAFA"/>
<path d="M17.5003 20.611C18.789 20.611 19.8336 19.5663 19.8336 18.2777C19.8336 16.989 18.789 15.9443 17.5003 15.9443C16.2117 15.9443 15.167 16.989 15.167 18.2777C15.167 19.5663 16.2117 20.611 17.5003 20.611Z" stroke="#0D0D0D" stroke-width="1.5"/>
<path d="M15.7722 24.5H19.2286C21.6561 24.5 22.8702 24.5 23.7421 23.9283C24.1183 23.6818 24.4423 23.3636 24.6956 22.9919C25.2782 22.1363 25.2782 20.944 25.2782 18.5609C25.2782 16.177 25.2782 14.9855 24.6956 14.1299C24.4423 13.7582 24.1183 13.44 23.7421 13.1935C23.1821 12.8256 22.4805 12.6941 21.4064 12.6475C20.8938 12.6475 20.4529 12.2664 20.3525 11.7725C20.2758 11.4107 20.0766 11.0865 19.7885 10.8547C19.5004 10.6228 19.1411 10.4976 18.7713 10.5H16.2295C15.4611 10.5 14.7992 11.0328 14.6483 11.7725C14.548 12.2664 14.107 12.6475 13.5944 12.6475C12.5211 12.6941 11.8195 12.8264 11.2588 13.1935C10.8828 13.4401 10.5591 13.7583 10.306 14.1299C9.72266 14.9855 9.72266 16.177 9.72266 18.5609C9.72266 20.944 9.72266 22.1356 10.3052 22.9919C10.5572 23.3621 10.8808 23.6802 11.2588 23.9283C12.1307 24.5 13.3448 24.5 15.7722 24.5Z" stroke="#0D0D0D" stroke-width="1.5"/>
<path d="M22.9448 15.9443H22.167" stroke="#0D0D0D" stroke-width="1.5" stroke-linecap="round"/>
</svg>
