<svg width="24" height="24" viewBox="0 0 24 24" fill="none" xmlns="http://www.w3.org/2000/svg">
<rect width="24" height="24" rx="12" fill="#F6F6F6"/>
<path d="M12 6C12.2076 6 12.4066 6.08245 12.5534 6.22922C12.7002 6.37599 12.7826 6.57505 12.7826 6.78261V11.2174H17.2174C17.425 11.2174 17.624 11.2998 17.7708 11.4466C17.9175 11.5934 18 11.7924 18 12C18 12.2076 17.9175 12.4066 17.7708 12.5534C17.624 12.7002 17.425 12.7826 17.2174 12.7826H12.7826V17.2174C12.7826 17.425 12.7002 17.624 12.5534 17.7708C12.4066 17.9175 12.2076 18 12 18C11.7924 18 11.5934 17.9175 11.4466 17.7708C11.2998 17.624 11.2174 17.425 11.2174 17.2174V12.7826H6.78261C6.57505 12.7826 6.37599 12.7002 6.22922 12.5534C6.08245 12.4066 6 12.2076 6 12C6 11.7924 6.08245 11.5934 6.22922 11.4466C6.37599 11.2998 6.57505 11.2174 6.78261 11.2174H11.2174V6.78261C11.2174 6.57505 11.2998 6.37599 11.4466 6.22922C11.5934 6.08245 11.7924 6 12 6Z" fill="#0D0D0D"/>
</svg>
