<svg width="16" height="14" viewBox="0 0 16 14" fill="none" xmlns="http://www.w3.org/2000/svg">
<path d="M0.5 8.90039C0.632608 8.90039 0.759785 8.95307 0.853553 9.04684C0.947322 9.14061 1 9.26778 1 9.40039V11.9004C1 12.1656 1.10536 12.42 1.29289 12.6075C1.48043 12.795 1.73478 12.9004 2 12.9004H14C14.2652 12.9004 14.5196 12.795 14.7071 12.6075C14.8946 12.42 15 12.1656 15 11.9004V9.40039C15 9.26778 15.0527 9.14061 15.1464 9.04684C15.2402 8.95307 15.3674 8.90039 15.5 8.90039C15.6326 8.90039 15.7598 8.95307 15.8536 9.04684C15.9473 9.14061 16 9.26778 16 9.40039V11.9004C16 12.4308 15.7893 12.9395 15.4142 13.3146C15.0391 13.6897 14.5304 13.9004 14 13.9004H2C1.46957 13.9004 0.960859 13.6897 0.585786 13.3146C0.210714 12.9395 0 12.4308 0 11.9004V9.40039C0 9.26778 0.0526784 9.14061 0.146447 9.04684C0.240215 8.95307 0.367392 8.90039 0.5 8.90039Z" fill="#094963"/>
<path d="M7.64663 0.145917C7.69308 0.099354 7.74825 0.0624111 7.809 0.0372047C7.86974 0.0119982 7.93486 -0.000976562 8.00063 -0.000976562C8.0664 -0.000976563 8.13152 0.0119982 8.19227 0.0372047C8.25301 0.0624111 8.30819 0.099354 8.35463 0.145917L11.3546 3.14592C11.4485 3.2398 11.5013 3.36714 11.5013 3.49992C11.5013 3.63269 11.4485 3.76003 11.3546 3.85392C11.2607 3.9478 11.1334 4.00055 11.0006 4.00055C10.8679 4.00055 10.7405 3.9478 10.6466 3.85392L8.50063 1.70692V10.4999C8.50063 10.6325 8.44795 10.7597 8.35419 10.8535C8.26042 10.9472 8.13324 10.9999 8.00063 10.9999C7.86802 10.9999 7.74085 10.9472 7.64708 10.8535C7.55331 10.7597 7.50063 10.6325 7.50063 10.4999V1.70692L5.35463 3.85392C5.30814 3.90041 5.25295 3.93728 5.19222 3.96244C5.13148 3.9876 5.06638 4.00055 5.00063 4.00055C4.93489 4.00055 4.86979 3.9876 4.80905 3.96244C4.74831 3.93728 4.69312 3.90041 4.64663 3.85392C4.60014 3.80743 4.56327 3.75224 4.53811 3.6915C4.51295 3.63076 4.5 3.56566 4.5 3.49992C4.5 3.43417 4.51295 3.36907 4.53811 3.30833C4.56327 3.24759 4.60014 3.19241 4.64663 3.14592L7.64663 0.145917Z" fill="#094963"/>
</svg>
