<svg width="27" height="24" viewBox="0 0 27 24" fill="none" xmlns="http://www.w3.org/2000/svg">
<path d="M21.375 4H19.125V3C19.125 2.73478 19.0065 2.48043 18.7955 2.29289C18.5845 2.10536 18.2984 2 18 2C17.7016 2 17.4155 2.10536 17.2045 2.29289C16.9935 2.48043 16.875 2.73478 16.875 3V4H10.125V3C10.125 2.73478 10.0065 2.48043 9.7955 2.29289C9.58452 2.10536 9.29837 2 9 2C8.70163 2 8.41548 2.10536 8.20451 2.29289C7.99353 2.48043 7.875 2.73478 7.875 3V4H5.625C4.72989 4 3.87145 4.31607 3.23851 4.87868C2.60558 5.44129 2.25 6.20435 2.25 7V19C2.25 19.7956 2.60558 20.5587 3.23851 21.1213C3.87145 21.6839 4.72989 22 5.625 22H21.375C22.2701 22 23.1286 21.6839 23.7615 21.1213C24.3944 20.5587 24.75 19.7956 24.75 19V7C24.75 6.20435 24.3944 5.44129 23.7615 4.87868C23.1286 4.31607 22.2701 4 21.375 4ZM22.5 19C22.5 19.2652 22.3815 19.5196 22.1705 19.7071C21.9595 19.8946 21.6734 20 21.375 20H5.625C5.32663 20 5.04048 19.8946 4.82951 19.7071C4.61853 19.5196 4.5 19.2652 4.5 19V12H22.5V19ZM22.5 10H4.5V7C4.5 6.73478 4.61853 6.48043 4.82951 6.29289C5.04048 6.10536 5.32663 6 5.625 6H7.875V7C7.875 7.26522 7.99353 7.51957 8.20451 7.70711C8.41548 7.89464 8.70163 8 9 8C9.29837 8 9.58452 7.89464 9.7955 7.70711C10.0065 7.51957 10.125 7.26522 10.125 7V6H16.875V7C16.875 7.26522 16.9935 7.51957 17.2045 7.70711C17.4155 7.89464 17.7016 8 18 8C18.2984 8 18.5845 7.89464 18.7955 7.70711C19.0065 7.51957 19.125 7.26522 19.125 7V6H21.375C21.6734 6 21.9595 6.10536 22.1705 6.29289C22.3815 6.48043 22.5 6.73478 22.5 7V10Z" fill="#193F52"/>
</svg>
