<svg width="30" height="24" viewBox="0 0 30 24" fill="none" xmlns="http://www.w3.org/2000/svg">
<path d="M19.6875 12.9375C19.6875 14.1807 19.1936 15.373 18.3146 16.2521C17.4355 17.1311 16.2432 17.625 15 17.625C13.7568 17.625 12.5645 17.1311 11.6854 16.2521C10.8064 15.373 10.3125 14.1807 10.3125 12.9375C10.3125 11.6943 10.8064 10.502 11.6854 9.62294C12.5645 8.74386 13.7568 8.25 15 8.25C16.2432 8.25 17.4355 8.74386 18.3146 9.62294C19.1936 10.502 19.6875 11.6943 19.6875 12.9375Z" fill="#8C8C8C"/>
<path d="M3.75 4.5C2.75544 4.5 1.80161 4.89509 1.09835 5.59835C0.395088 6.30161 0 7.25544 0 8.25L0 19.5C0 20.4946 0.395088 21.4484 1.09835 22.1516C1.80161 22.8549 2.75544 23.25 3.75 23.25H26.25C27.2446 23.25 28.1984 22.8549 28.9016 22.1516C29.6049 21.4484 30 20.4946 30 19.5V8.25C30 7.25544 29.6049 6.30161 28.9016 5.59835C28.1984 4.89509 27.2446 4.5 26.25 4.5H24.0525C23.058 4.49979 22.1043 4.10456 21.4012 3.40125L19.8488 1.84875C19.1457 1.14544 18.192 0.750212 17.1975 0.75H12.8025C11.808 0.750212 10.8543 1.14544 10.1512 1.84875L8.59875 3.40125C7.89565 4.10456 6.94198 4.49979 5.9475 4.5H3.75ZM4.6875 8.25C4.43886 8.25 4.2004 8.15123 4.02459 7.97541C3.84877 7.7996 3.75 7.56114 3.75 7.3125C3.75 7.06386 3.84877 6.8254 4.02459 6.64959C4.2004 6.47377 4.43886 6.375 4.6875 6.375C4.93614 6.375 5.1746 6.47377 5.35041 6.64959C5.52623 6.8254 5.625 7.06386 5.625 7.3125C5.625 7.56114 5.52623 7.7996 5.35041 7.97541C5.1746 8.15123 4.93614 8.25 4.6875 8.25ZM21.5625 12.9375C21.5625 14.678 20.8711 16.3472 19.6404 17.5779C18.4097 18.8086 16.7405 19.5 15 19.5C13.2595 19.5 11.5903 18.8086 10.3596 17.5779C9.1289 16.3472 8.4375 14.678 8.4375 12.9375C8.4375 11.197 9.1289 9.52782 10.3596 8.29711C11.5903 7.0664 13.2595 6.375 15 6.375C16.7405 6.375 18.4097 7.0664 19.6404 8.29711C20.8711 9.52782 21.5625 11.197 21.5625 12.9375Z" fill="#8C8C8C"/>
</svg>
