<svg width="12" height="12" viewBox="0 0 12 12" fill="none" xmlns="http://www.w3.org/2000/svg">
<path d="M12 11.7146C12 11.8716 11.8754 12 11.7232 12L9.43945 11.9893L6 7.76219L2.56401 11.9857L0.276817 11.9964C0.124567 11.9964 0 11.8716 0 11.7111C0 11.6433 0.0242212 11.5791 0.0657437 11.5256L4.56747 5.99643L0.0657437 0.470868C0.0239318 0.418587 0.000732291 0.353129 0 0.285375C0 0.128419 0.124567 0 0.276817 0L2.56401 0.010704L6 4.23781L9.43599 0.0142689L11.7197 0.0035677C11.872 0.0035677 11.9965 0.128419 11.9965 0.288942C11.9965 0.356719 11.9723 0.42093 11.9308 0.474438L7.43599 6L11.9377 11.5291C11.9792 11.5791 12 11.6468 12 11.7146Z" fill="#8C8C8C"/>
</svg>
