<svg width="61" height="34" viewBox="0 0 61 34" fill="none" xmlns="http://www.w3.org/2000/svg">
<path d="M0 5C0 2.23858 2.23858 0 5 0H61V34H5C2.23858 34 0 31.7614 0 29V5Z" fill="#E4E3E4"/>
<path d="M35.9904 8.3303C35.1497 8.24113 34.3049 8.19773 33.4595 8.2003C30.657 8.2003 28.9154 9.9853 28.9154 12.8586V14.8095H26.5612C26.4507 14.8095 26.3447 14.8534 26.2666 14.9315C26.1884 15.0096 26.1445 15.1156 26.1445 15.2261V18.4345C26.1445 18.545 26.1884 18.651 26.2666 18.7291C26.3447 18.8072 26.4507 18.8511 26.5612 18.8511H28.9154V25.2845C28.9154 25.395 28.9593 25.501 29.0374 25.5791C29.1155 25.6572 29.2215 25.7011 29.332 25.7011H32.647C32.7575 25.7011 32.8635 25.6572 32.9417 25.5791C33.0198 25.501 33.0637 25.395 33.0637 25.2845V18.8511H35.4104C35.5115 18.8512 35.6092 18.8144 35.6853 18.7477C35.7614 18.681 35.8105 18.5889 35.8237 18.4886L36.2379 15.2803C36.2456 15.2215 36.2406 15.1617 36.2234 15.105C36.2062 15.0482 36.177 14.9958 36.1379 14.9512C36.0987 14.9067 36.0505 14.871 35.9965 14.8465C35.9425 14.8221 35.8838 14.8094 35.8245 14.8095H33.0637V13.177C33.0637 12.3686 33.2262 12.0311 34.237 12.0311H35.9362C36.0467 12.0311 36.1527 11.9872 36.2308 11.9091C36.309 11.831 36.3529 11.725 36.3529 11.6145V8.74364C36.3529 8.64248 36.3162 8.54475 36.2495 8.4687C36.1828 8.39265 36.0907 8.34345 35.9904 8.3303ZM35.5195 11.197L34.2362 11.1978C32.4387 11.1978 32.2304 12.3278 32.2304 13.177V15.227C32.2304 15.3373 32.2741 15.4432 32.3521 15.5213C32.4301 15.5994 32.5358 15.6434 32.6462 15.6436H35.3512L35.0437 18.0186H32.647C32.5365 18.0186 32.4305 18.0625 32.3524 18.1407C32.2743 18.2188 32.2304 18.3248 32.2304 18.4353V24.867H29.7487V18.4353C29.7487 18.3248 29.7048 18.2188 29.6267 18.1407C29.5485 18.0625 29.4425 18.0186 29.332 18.0186H26.9787V15.6436H29.332C29.4425 15.6436 29.5485 15.5997 29.6267 15.5216C29.7048 15.4435 29.7487 15.3375 29.7487 15.227V12.8586C29.7487 10.4636 31.1362 9.03364 33.4595 9.03364C34.3004 9.03364 35.0595 9.07947 35.5195 9.11947V11.197Z" fill="#193F52"/>
</svg>
