<svg width="22" height="22" viewBox="0 0 22 22" fill="none" xmlns="http://www.w3.org/2000/svg">
<path d="M10.0008 21.9498V19.9498C7.91745 19.7165 6.13012 18.8541 4.63878 17.3628C3.14678 15.8708 2.28411 14.0831 2.05078 11.9998H0.0507812V9.9998H2.05078C2.28411 7.91647 3.14678 6.1288 4.63878 4.6368C6.13012 3.14547 7.91745 2.28314 10.0008 2.0498V0.0498047H12.0008V2.0498C14.0841 2.28314 15.8718 3.14547 17.3638 4.6368C18.8551 6.1288 19.7174 7.91647 19.9508 9.9998H21.9508V11.9998H19.9508C19.7174 14.0831 18.8551 15.8708 17.3638 17.3628C15.8718 18.8541 14.0841 19.7165 12.0008 19.9498V21.9498H10.0008ZM11.0008 17.9998C12.9341 17.9998 14.5841 17.3165 15.9508 15.9498C17.3174 14.5831 18.0008 12.9331 18.0008 10.9998C18.0008 9.06647 17.3174 7.41647 15.9508 6.0498C14.5841 4.68314 12.9341 3.9998 11.0008 3.9998C9.06745 3.9998 7.41745 4.68314 6.05078 6.0498C4.68411 7.41647 4.00078 9.06647 4.00078 10.9998C4.00078 12.9331 4.68411 14.5831 6.05078 15.9498C7.41745 17.3165 9.06745 17.9998 11.0008 17.9998ZM11.0008 14.9998C9.90078 14.9998 8.95912 14.6081 8.17578 13.8248C7.39245 13.0415 7.00078 12.0998 7.00078 10.9998C7.00078 9.8998 7.39245 8.95814 8.17578 8.1748C8.95912 7.39147 9.90078 6.9998 11.0008 6.9998C12.1008 6.9998 13.0424 7.39147 13.8258 8.1748C14.6091 8.95814 15.0008 9.8998 15.0008 10.9998C15.0008 12.0998 14.6091 13.0415 13.8258 13.8248C13.0424 14.6081 12.1008 14.9998 11.0008 14.9998Z" fill="#094963"/>
</svg>
