<svg width="60" height="60" viewBox="0 0 60 60" fill="none" xmlns="http://www.w3.org/2000/svg">
<rect width="60" height="60" rx="6" fill="#4FA6D1" fill-opacity="0.15"/>
<path d="M28.9937 24.4997L25.4697 20.432C25.0635 19.9633 24.3187 19.9654 23.8468 20.4383L20.9489 23.3414C20.0864 24.205 19.8395 25.4872 20.3385 26.5154C23.3193 32.6872 28.2968 37.6717 34.4645 40.6612C35.4916 41.1602 36.7728 40.9133 37.6353 40.0497L40.5603 37.1195C41.0343 36.6456 41.0353 35.8966 40.5624 35.4904L36.4791 31.9852C36.052 31.6185 35.3885 31.6664 34.9603 32.0956L33.5395 33.5185C33.4668 33.5947 33.371 33.645 33.2669 33.6615C33.1629 33.6781 33.0563 33.6601 32.9635 33.6102C30.641 32.2728 28.7145 30.3437 27.3801 28.0195C27.3302 27.9266 27.3121 27.8198 27.3286 27.7155C27.3452 27.6113 27.3955 27.5154 27.4718 27.4425L28.8885 26.0247C29.3176 25.5935 29.3645 24.9268 28.9937 24.4987V24.4997Z" stroke="#4FA6D1" stroke-width="2" stroke-linecap="round" stroke-linejoin="round"/>
</svg>
