<svg width="8" height="14" viewBox="0 0 8 14" fill="none" xmlns="http://www.w3.org/2000/svg">
<path d="M3.738 13.218H4.494V12.084C6.398 11.958 7.378 10.628 7.378 9.326C7.378 7.38 5.88 6.974 4.494 6.624V3.208C5.348 3.39 5.81 4.02 5.894 4.622H7.252C7.112 3.208 6.09 2.27 4.494 2.13V0.967999H3.738V2.13C1.988 2.242 0.84 3.32 0.84 4.832C0.84 6.764 2.338 7.17 3.738 7.534V11.034C2.744 10.88 2.282 10.194 2.212 9.466H0.854C0.882 10.95 2.058 11.93 3.738 12.084V13.218ZM6.104 9.396C6.104 10.236 5.53 10.936 4.494 11.048V7.744C5.39 8.01 6.104 8.402 6.104 9.396ZM2.142 4.762C2.142 3.768 2.8 3.264 3.738 3.18V6.414C2.842 6.134 2.142 5.756 2.142 4.762Z" fill="#8C8C8C"/>
</svg>
