<svg width="14" height="14" viewBox="0 0 14 14" fill="none" xmlns="http://www.w3.org/2000/svg">
<g clip-path="url(#clip0_2429_21364)">
<path d="M13.0189 11.2401L8.91184 4.8063V1.73072H9.86598V0.0458984H4.04003V1.73243H5.00199V4.808L0.887119 11.2401C0.733259 11.4797 0.645858 11.7572 0.634163 12.0432C0.622468 12.3292 0.686913 12.6132 0.820682 12.8649C0.95445 13.1167 1.15257 13.327 1.39407 13.4735C1.63558 13.6201 1.9115 13.6974 2.19264 13.6974H11.7083C11.99 13.697 12.2663 13.6191 12.5081 13.472C12.7499 13.3249 12.9482 13.1141 13.0821 12.8618C13.2159 12.6095 13.2804 12.3251 13.2687 12.0385C13.257 11.752 13.1695 11.474 13.0155 11.2339L13.0194 11.2401H13.0189ZM12.5133 12.5495C12.435 12.6964 12.3193 12.819 12.1783 12.9045C12.0374 12.99 11.8763 13.0352 11.7122 13.0353H2.19264C2.02783 13.0356 1.86603 12.9904 1.72438 12.9046C1.58274 12.8188 1.46653 12.6956 1.38807 12.548C1.30962 12.4004 1.27185 12.234 1.27876 12.0663C1.28566 11.8987 1.337 11.736 1.42731 11.5956L1.42508 11.5991L5.64218 5.00083V1.72959H8.25992V5.00254L12.4725 11.6008C12.5675 11.7435 12.6245 11.9199 12.6245 12.1099C12.6245 12.272 12.5832 12.4244 12.5105 12.5564L12.5128 12.5518L12.5133 12.5495Z" fill="#094963"/>
<path d="M8.68356 7.07129H5.22509L2.06603 12.0188C2.04966 12.0438 2.04037 12.0729 2.03919 12.1029C2.03801 12.1329 2.04498 12.1627 2.05933 12.1889L2.05877 12.1883C2.0867 12.2378 2.1381 12.2708 2.19731 12.2714H11.7119C11.74 12.2714 11.7676 12.2637 11.7919 12.2492C11.8161 12.2347 11.8362 12.2139 11.8499 12.1889L11.8504 12.1883C11.8648 12.1622 11.8718 12.1325 11.8705 12.1025C11.8692 12.0726 11.8598 12.0436 11.8432 12.0188L11.8437 12.0194L8.68356 7.07129Z" fill="#094963"/>
</g>
<defs>
<clipPath id="clip0_2429_21364">
<rect width="12.8485" height="13.6515" fill="white" transform="translate(0.632812 0.0458984)"/>
</clipPath>
</defs>
</svg>
