<svg width="32" height="32" viewBox="0 0 32 32" fill="none" xmlns="http://www.w3.org/2000/svg">
<rect width="32" height="32" rx="16" fill="#F5F5F5"/>
<path d="M18.3866 15.9999C18.3866 17.3199 17.3199 18.3866 15.9999 18.3866C14.6799 18.3866 13.6133 17.3199 13.6133 15.9999C13.6133 14.6799 14.6799 13.6133 15.9999 13.6133C17.3199 13.6133 18.3866 14.6799 18.3866 15.9999Z" stroke="#0D0D0D" stroke-width="1.2" stroke-linecap="round" stroke-linejoin="round"/>
<path d="M15.9999 21.5133C18.3532 21.5133 20.5466 20.1266 22.0732 17.7266C22.6732 16.7866 22.6732 15.2066 22.0732 14.2666C20.5466 11.8666 18.3532 10.48 15.9999 10.48C13.6466 10.48 11.4532 11.8666 9.92656 14.2666C9.32656 15.2066 9.32656 16.7866 9.92656 17.7266C11.4532 20.1266 13.6466 21.5133 15.9999 21.5133Z" stroke="#0D0D0D" stroke-width="1.2" stroke-linecap="round" stroke-linejoin="round"/>
</svg>
